<svg xmlns="http://www.w3.org/2000/svg" viewBox="0 0 360 504">
<style type="text/css">
	.st2{fill:none;stroke:#FFF;stroke-width:2.25;}
	.st3{fill:#EC1E32;}
	.st4{fill:#FFF;}
	.st5{fill:#1D4699;}
	.st6{fill:none;stroke:#231F20;stroke-width:2.25;}
	.st7{fill:#00AD4D;}
	.st8{fill:none;stroke:#000;stroke-width:2.25;}
	.st9{fill:#FED900;}
</style>
	<rect width="180" height="252"/>
	<rect x="9" y="9" width="162" height="234"/>
	<rect x="9" y="9" class="st2" width="162" height="234"/>
	<path class="st3" d="M84,63.8c4.5,0.8,25.6,13.8,29.5,57.7c0,0.1,0.1,0.1,0.1,0.1c3.3-1,8-10.6,3.5-24.8c0-0.1,0.1-0.2,0.1-0.1
		c5.8,6,25.7,29.5,7.8,51v0.1c0.4,1.6,5.2,3.8,8.1-1.8c0-0.1,0.2-0.1,0.2,0c-2.6,70.9-111.4,44.8-81.1-21
		C64.9,101,89.8,116.3,84,63.8C83.9,63.8,83.9,63.8,84,63.8z"/>
		<path class="st4" d="M65.5,27.2h6.6c0.8,0,1.6,0.1,2.3,0.3s1.4,0.5,2.1,0.9s1.2,0.8,1.7,1.4s1,1.1,1.3,1.8s0.6,1.4,0.8,2.1
			s0.3,1.5,0.3,2.3c0,0.8-0.1,1.6-0.3,2.4s-0.5,1.5-0.8,2.1s-0.8,1.3-1.3,1.8s-1.1,1-1.7,1.4s-1.3,0.7-2.1,0.9S72.9,45,72.1,45h-6.6
			v-2h1.7V29.3h-1.7V27.2z M69.5,29.3V43h2.8c0.8,0,1.6-0.2,2.3-0.5s1.4-0.8,1.9-1.5s1-1.4,1.3-2.2s0.5-1.7,0.5-2.7
			c0-1-0.2-1.8-0.5-2.7s-0.7-1.5-1.3-2.2s-1.2-1.1-1.9-1.4s-1.5-0.5-2.3-0.5H69.5z"/>
		<path class="st4" d="M84.7,39.2c0,0.3,0,0.7,0.1,0.9s0.1,0.6,0.2,0.8c0.3,0.8,0.8,1.4,1.4,1.8s1.4,0.6,2.2,0.6
			c0.6,0,1.2-0.1,1.8-0.3s1.2-0.5,1.9-0.8l0.9,1.5c-0.8,0.5-1.6,1-2.4,1.2s-1.6,0.4-2.5,0.4c-0.8,0-1.6-0.1-2.3-0.4
			s-1.3-0.7-1.8-1.2s-0.9-1.2-1.2-2s-0.4-1.7-0.4-2.8c0-0.9,0.1-1.7,0.4-2.5s0.6-1.4,1.1-2s1.1-1,1.8-1.4s1.5-0.5,2.5-0.5
			c0.9,0,1.7,0.1,2.3,0.4s1.1,0.6,1.5,1.1s0.7,1,0.9,1.6s0.3,1.2,0.4,1.8c0,0.3,0.1,0.6,0.1,0.9s0,0.6,0,0.9H84.7z M88.1,34.4
			c-0.5,0-1,0.1-1.3,0.2s-0.7,0.4-1,0.6s-0.5,0.6-0.6,1s-0.3,0.8-0.4,1.3h6.3c0-0.5-0.1-0.9-0.2-1.3s-0.3-0.7-0.5-1
			s-0.5-0.5-0.9-0.7S88.7,34.4,88.1,34.4z"/>
		<path class="st4" d="M103.6,43.9c-0.5,0.4-1,0.8-1.5,1.1s-1.2,0.4-1.9,0.4c-0.6,0-1.1-0.1-1.6-0.3s-0.9-0.4-1.3-0.8
			s-0.6-0.7-0.8-1.1s-0.3-0.9-0.3-1.4c0-0.5,0.1-1,0.2-1.4s0.4-0.7,0.6-1s0.6-0.5,0.9-0.7s0.7-0.4,1.1-0.5s0.8-0.2,1.1-0.3
			s0.8-0.1,1.1-0.1c0.6,0,1,0,1.4,0.1s0.7,0.1,1,0.1l0-1c0-0.4-0.1-0.8-0.2-1.1s-0.3-0.6-0.5-0.8s-0.5-0.4-0.8-0.5s-0.7-0.2-1.1-0.2
			c-0.4,0-0.7,0-1.1,0.1s-0.7,0.1-0.9,0.2s-0.6,0.2-0.8,0.3s-0.5,0.2-0.6,0.3l-0.7-1.5c0.3-0.2,0.6-0.4,0.9-0.5s0.7-0.3,1.1-0.4
			s0.8-0.2,1.2-0.3s0.8-0.1,1.2-0.1c0.7,0,1.3,0.1,1.9,0.3s1,0.4,1.4,0.8s0.7,0.8,0.9,1.3s0.3,1.2,0.3,2l0,6.1h1.3v2h-3.5V43.9z
			 M100.6,43.5c0.3,0,0.6,0,0.9-0.1s0.6-0.2,0.8-0.3s0.5-0.3,0.7-0.4s0.4-0.3,0.6-0.5l0-2.7H101c-0.4,0-0.8,0-1.2,0.1
			S99.2,39.8,99,40s-0.5,0.4-0.6,0.7s-0.2,0.6-0.2,0.9c0,0.3,0.1,0.6,0.2,0.8s0.3,0.4,0.5,0.6s0.5,0.3,0.8,0.4
			S100.2,43.5,100.6,43.5z"/>
		<path class="st4" d="M109.5,26.8h3.9V43h1.8v2h-5.8v-2h1.8V28.8h-1.8V26.8z"/>
		<path class="st4" d="M77.5,148l12.6-21.6h5l-12,21.2h9.1v-5.9l4.6-0.3v6.2h5.3v4h-5.3v6.2h3.5v4H88.8v-4h3.4v-6.2H77.4L77.5,148z"
			/>
		<path class="st4" d="M104.9,233.4c-0.2,0.2-0.5,0.4-0.8,0.5s-0.6,0.2-1,0.2c-0.3,0-0.6,0-0.8-0.1s-0.5-0.2-0.6-0.4
			s-0.3-0.4-0.4-0.6s-0.1-0.4-0.1-0.7c0-0.3,0-0.5,0.1-0.7s0.2-0.4,0.3-0.5s0.3-0.3,0.4-0.4s0.3-0.2,0.5-0.2s0.4-0.1,0.6-0.1
			s0.4,0,0.6,0c0.3,0,0.5,0,0.7,0s0.4,0,0.5,0.1l0-0.5c0-0.2,0-0.4-0.1-0.6s-0.2-0.3-0.3-0.4s-0.2-0.2-0.4-0.2s-0.3-0.1-0.5-0.1
			c-0.2,0-0.4,0-0.5,0s-0.3,0.1-0.5,0.1s-0.3,0.1-0.4,0.1s-0.2,0.1-0.3,0.2l-0.4-0.8c0.1-0.1,0.3-0.2,0.5-0.3s0.4-0.1,0.5-0.2
			s0.4-0.1,0.6-0.1s0.4,0,0.6,0c0.4,0,0.7,0,0.9,0.1s0.5,0.2,0.7,0.4s0.3,0.4,0.5,0.7s0.2,0.6,0.2,1l0,3h0.7v1h-1.8V233.4z
			 M103.4,233.3c0.1,0,0.3,0,0.4-0.1s0.3-0.1,0.4-0.1s0.2-0.1,0.4-0.2s0.2-0.2,0.3-0.2l0-1.4h-1.3c-0.2,0-0.4,0-0.6,0.1
			s-0.3,0.1-0.5,0.2s-0.2,0.2-0.3,0.3s-0.1,0.3-0.1,0.5c0,0.2,0,0.3,0.1,0.4s0.1,0.2,0.2,0.3s0.2,0.1,0.4,0.2
			S103.2,233.3,103.4,233.3z"/>
		<path class="st4" d="M111.9,233h0.9v-2.8c0-0.5-0.1-0.8-0.4-1.1s-0.6-0.4-1-0.4c-0.3,0-0.5,0.1-0.8,0.2s-0.5,0.3-0.7,0.5v3.6h0.9
			v1h-2.8v-1h0.8v-4.1h-0.8v-1h1.9v0.7h0c0.1-0.1,0.3-0.2,0.4-0.3s0.3-0.2,0.5-0.3s0.3-0.1,0.5-0.2s0.4-0.1,0.5-0.1
			c0.3,0,0.6,0,0.9,0.1s0.5,0.2,0.7,0.4s0.3,0.4,0.4,0.7s0.1,0.6,0.1,1v2.9h0.8v1h-2.8V233z"/>
		<path class="st4" d="M115.5,227.9h2.3v1h-0.7l1.4,3.9l1.5-3.9h-0.7v-1h2.3v1h-0.6l-2.7,6.8h0.8v1h-2.4v-1h0.7l0.6-1.7l-2-5.1h-0.5
			V227.9z"/>
		<path class="st4" d="M125.2,227.9h1.9v0.5c0.3-0.2,0.5-0.4,0.8-0.5s0.6-0.2,0.9-0.2c0.4,0,0.8,0.1,1.1,0.2s0.6,0.4,0.9,0.6
			s0.4,0.6,0.6,1s0.2,0.8,0.2,1.3c0,0.5-0.1,0.9-0.2,1.3s-0.4,0.7-0.6,1s-0.6,0.5-0.9,0.7s-0.8,0.2-1.2,0.2c-0.3,0-0.6,0-0.8-0.1
			s-0.5-0.1-0.7-0.2v2h0.9v1h-2.9v-1h0.8v-6.8h-0.8V227.9z M128.6,228.7c-0.3,0-0.6,0.1-0.8,0.2s-0.5,0.3-0.7,0.5v3.3
			c0.1,0.1,0.3,0.3,0.6,0.4s0.5,0.2,0.9,0.2c0.3,0,0.5,0,0.7-0.1s0.4-0.2,0.6-0.4s0.3-0.4,0.4-0.7s0.2-0.6,0.2-1
			c0-0.3,0-0.6-0.1-0.9s-0.2-0.5-0.4-0.7s-0.4-0.3-0.6-0.4S128.9,228.7,128.6,228.7z"/>
		<path class="st4" d="M132.7,224.9h2v8.1h0.9v1h-2.9v-1h0.9v-7.1h-0.9V224.9z"/>
		<path class="st4" d="M140.2,233.4c-0.2,0.2-0.5,0.4-0.8,0.5s-0.6,0.2-1,0.2c-0.3,0-0.6,0-0.8-0.1s-0.5-0.2-0.6-0.4
			s-0.3-0.4-0.4-0.6s-0.1-0.4-0.1-0.7c0-0.3,0-0.5,0.1-0.7s0.2-0.4,0.3-0.5s0.3-0.3,0.4-0.4s0.3-0.2,0.5-0.2s0.4-0.1,0.6-0.1
			s0.4,0,0.6,0c0.3,0,0.5,0,0.7,0s0.4,0,0.5,0.1l0-0.5c0-0.2,0-0.4-0.1-0.6s-0.2-0.3-0.3-0.4s-0.2-0.2-0.4-0.2s-0.3-0.1-0.5-0.1
			c-0.2,0-0.4,0-0.5,0s-0.3,0.1-0.5,0.1s-0.3,0.1-0.4,0.1s-0.2,0.1-0.3,0.2l-0.4-0.8c0.1-0.1,0.3-0.2,0.5-0.3s0.4-0.1,0.5-0.2
			s0.4-0.1,0.6-0.1s0.4,0,0.6,0c0.4,0,0.7,0,0.9,0.1s0.5,0.2,0.7,0.4s0.3,0.4,0.5,0.7s0.2,0.6,0.2,1l0,3h0.7v1h-1.8V233.4z
			 M138.7,233.3c0.1,0,0.3,0,0.4-0.1s0.3-0.1,0.4-0.1s0.2-0.1,0.4-0.2s0.2-0.2,0.3-0.2l0-1.4h-1.3c-0.2,0-0.4,0-0.6,0.1
			s-0.3,0.1-0.5,0.2s-0.2,0.2-0.3,0.3s-0.1,0.3-0.1,0.5c0,0.2,0,0.3,0.1,0.4s0.1,0.2,0.2,0.3s0.2,0.1,0.4,0.2
			S138.5,233.3,138.7,233.3z"/>
		<path class="st4" d="M142.8,227.9h2.3v1h-0.7l1.4,3.9l1.5-3.9h-0.7v-1h2.3v1h-0.6l-2.7,6.8h0.8v1h-2.4v-1h0.7l0.6-1.7l-2-5.1h-0.5
			V227.9z"/>
		<path class="st4" d="M151.1,231.1c0,0.2,0,0.3,0,0.5s0.1,0.3,0.1,0.4c0.1,0.4,0.4,0.7,0.7,0.9s0.7,0.3,1.1,0.3
			c0.3,0,0.6,0,0.9-0.1s0.6-0.2,0.9-0.4l0.4,0.7c-0.4,0.3-0.8,0.5-1.2,0.6s-0.8,0.2-1.3,0.2c-0.4,0-0.8-0.1-1.1-0.2
			s-0.7-0.3-0.9-0.6s-0.4-0.6-0.6-1s-0.2-0.9-0.2-1.4c0-0.4,0.1-0.8,0.2-1.2s0.3-0.7,0.5-1s0.5-0.5,0.9-0.7s0.8-0.3,1.2-0.3
			c0.5,0,0.8,0.1,1.1,0.2s0.6,0.3,0.8,0.6s0.3,0.5,0.4,0.8s0.2,0.6,0.2,0.9c0,0.1,0,0.3,0,0.5s0,0.3,0,0.4H151.1z M152.8,228.7
			c-0.3,0-0.5,0-0.7,0.1s-0.4,0.2-0.5,0.3s-0.2,0.3-0.3,0.5s-0.1,0.4-0.2,0.7h3.1c0-0.2-0.1-0.4-0.1-0.6s-0.1-0.4-0.3-0.5
			s-0.3-0.3-0.5-0.3S153.1,228.7,152.8,228.7z"/>
		<path class="st4" d="M161.3,229.2h-1.1v-0.4c-0.1,0-0.3,0-0.4,0.1s-0.3,0.1-0.4,0.2s-0.2,0.2-0.3,0.4s-0.2,0.3-0.2,0.5v2.9h1v1h-3
			v-1h0.8l0-4.1H157v-1h1.9v0.8c0.1-0.1,0.1-0.2,0.2-0.3s0.2-0.2,0.3-0.3s0.2-0.1,0.4-0.2s0.3-0.1,0.4-0.1c0.2,0,0.4,0,0.6,0
			s0.4,0,0.5,0V229.2z"/>
	<line class="st2" x1="90" y1="216" x2="171" y2="216"/>
	<rect x="180" width="180" height="252"/>
	<rect x="189" y="9" width="162" height="234"/>
	<rect x="189" y="9" class="st2" width="162" height="234"/>
	<path class="st5" d="M207,181.2h126c-50.1-14.1-35.6-112.4-12-70.9C321,110,324.6-14.9,207,181.2z"/>
		<path class="st4" d="M256,27.2h5.8v2h-1.7V43h1.7v2H256v-2h1.8v-6.4h-10.3V43h1.8v2h-5.8v-2h1.7V29.3h-1.7v-2h5.8v2h-1.8v5.4h10.3
			v-5.4H256V27.2z"/>
		<path class="st4" d="M266.7,39.2c0,0.3,0,0.7,0.1,0.9s0.1,0.6,0.2,0.8c0.3,0.8,0.8,1.4,1.4,1.8s1.4,0.6,2.2,0.6
			c0.6,0,1.2-0.1,1.8-0.3s1.2-0.5,1.9-0.8l0.9,1.5c-0.8,0.5-1.6,1-2.4,1.2s-1.6,0.4-2.5,0.4c-0.8,0-1.6-0.1-2.3-0.4
			s-1.3-0.7-1.8-1.2s-0.9-1.2-1.2-2s-0.4-1.7-0.4-2.8c0-0.9,0.1-1.7,0.4-2.5s0.6-1.4,1.1-2s1.1-1,1.8-1.4s1.5-0.5,2.5-0.5
			c0.9,0,1.7,0.1,2.3,0.4s1.1,0.6,1.5,1.1s0.7,1,0.9,1.6s0.3,1.2,0.4,1.8c0,0.3,0.1,0.6,0.1,0.9s0,0.6,0,0.9H266.7z M270.1,34.4
			c-0.5,0-1,0.1-1.3,0.2s-0.7,0.4-1,0.6s-0.5,0.6-0.6,1s-0.3,0.8-0.4,1.3h6.3c0-0.5-0.1-0.9-0.2-1.3s-0.3-0.7-0.5-1
			s-0.5-0.5-0.9-0.7S270.6,34.4,270.1,34.4z"/>
		<path class="st4" d="M285.5,43.9c-0.5,0.4-1,0.8-1.5,1.1s-1.2,0.4-1.9,0.4c-0.6,0-1.1-0.1-1.6-0.3s-0.9-0.4-1.3-0.8
			s-0.6-0.7-0.8-1.1s-0.3-0.9-0.3-1.4c0-0.5,0.1-1,0.2-1.4s0.4-0.7,0.6-1s0.6-0.5,0.9-0.7s0.7-0.4,1.1-0.5s0.8-0.2,1.1-0.3
			s0.8-0.1,1.1-0.1c0.6,0,1,0,1.4,0.1s0.7,0.1,1,0.1l0-1c0-0.4-0.1-0.8-0.2-1.1s-0.3-0.6-0.5-0.8s-0.5-0.4-0.8-0.5s-0.7-0.2-1.1-0.2
			c-0.4,0-0.7,0-1.1,0.1s-0.7,0.1-0.9,0.2s-0.6,0.2-0.8,0.3s-0.5,0.2-0.6,0.3l-0.7-1.5c0.3-0.2,0.6-0.4,0.9-0.5s0.7-0.3,1.1-0.4
			s0.8-0.2,1.2-0.3s0.8-0.1,1.2-0.1c0.7,0,1.3,0.1,1.9,0.3s1,0.4,1.4,0.8s0.7,0.8,0.9,1.3s0.3,1.2,0.3,2l0,6.1h1.3v2h-3.5V43.9z
			 M282.6,43.5c0.3,0,0.6,0,0.9-0.1s0.6-0.2,0.8-0.3s0.5-0.3,0.7-0.4s0.4-0.3,0.6-0.5l0-2.7H283c-0.4,0-0.8,0-1.2,0.1
			s-0.6,0.2-0.9,0.4s-0.5,0.4-0.6,0.7s-0.2,0.6-0.2,0.9c0,0.3,0.1,0.6,0.2,0.8s0.3,0.4,0.5,0.6s0.5,0.3,0.8,0.4
			S282.2,43.5,282.6,43.5z"/>
		<path class="st4" d="M291.4,26.8h3.9V43h1.8v2h-5.8v-2h1.8V28.8h-1.8V26.8z"/>
		<path class="st4" d="M259.1,148l12.6-21.6h5l-12,21.2h9.1v-5.9l4.6-0.3v6.2h5.3v4h-5.3v6.2h3.5v4h-11.5v-4h3.4v-6.2h-14.7
			L259.1,148z"/>
		<path class="st4" d="M284.9,233.4c-0.2,0.2-0.5,0.4-0.8,0.5s-0.6,0.2-1,0.2c-0.3,0-0.6,0-0.8-0.1s-0.5-0.2-0.6-0.4
			s-0.3-0.4-0.4-0.6s-0.1-0.4-0.1-0.7c0-0.3,0-0.5,0.1-0.7s0.2-0.4,0.3-0.5s0.3-0.3,0.4-0.4s0.3-0.2,0.5-0.2s0.4-0.1,0.6-0.1
			s0.4,0,0.6,0c0.3,0,0.5,0,0.7,0s0.4,0,0.5,0.1l0-0.5c0-0.2,0-0.4-0.1-0.6s-0.2-0.3-0.3-0.4s-0.2-0.2-0.4-0.2s-0.3-0.1-0.5-0.1
			c-0.2,0-0.4,0-0.5,0s-0.3,0.1-0.5,0.1s-0.3,0.1-0.4,0.1s-0.2,0.1-0.3,0.2l-0.4-0.8c0.1-0.1,0.3-0.2,0.5-0.3s0.4-0.1,0.5-0.2
			s0.4-0.1,0.6-0.1s0.4,0,0.6,0c0.4,0,0.7,0,0.9,0.1s0.5,0.2,0.7,0.4s0.3,0.4,0.5,0.7s0.2,0.6,0.2,1l0,3h0.7v1h-1.8V233.4z
			 M283.4,233.3c0.1,0,0.3,0,0.4-0.1s0.3-0.1,0.4-0.1s0.2-0.1,0.4-0.2s0.2-0.2,0.3-0.2l0-1.4h-1.3c-0.2,0-0.4,0-0.6,0.1
			s-0.3,0.1-0.5,0.2s-0.2,0.2-0.3,0.3s-0.1,0.3-0.1,0.5c0,0.2,0,0.3,0.1,0.4s0.1,0.2,0.2,0.3s0.2,0.1,0.4,0.2
			S283.2,233.3,283.4,233.3z"/>
		<path class="st4" d="M291.9,233h0.9v-2.8c0-0.5-0.1-0.8-0.4-1.1s-0.6-0.4-1-0.4c-0.3,0-0.5,0.1-0.8,0.2s-0.5,0.3-0.7,0.5v3.6h0.9
			v1h-2.8v-1h0.8v-4.1h-0.8v-1h1.9v0.7h0c0.1-0.1,0.3-0.2,0.4-0.3s0.3-0.2,0.5-0.3s0.3-0.1,0.5-0.2s0.4-0.1,0.5-0.1
			c0.3,0,0.6,0,0.9,0.1s0.5,0.2,0.7,0.4s0.3,0.4,0.4,0.7s0.1,0.6,0.1,1v2.9h0.8v1h-2.8V233z"/>
		<path class="st4" d="M295.5,227.9h2.3v1h-0.7l1.4,3.9l1.5-3.9h-0.7v-1h2.3v1h-0.6l-2.7,6.8h0.8v1h-2.4v-1h0.7l0.6-1.7l-2-5.1h-0.5
			V227.9z"/>
		<path class="st4" d="M305.2,227.9h1.9v0.5c0.3-0.2,0.5-0.4,0.8-0.5s0.6-0.2,0.9-0.2c0.4,0,0.8,0.1,1.1,0.2s0.6,0.4,0.9,0.6
			s0.4,0.6,0.6,1s0.2,0.8,0.2,1.3c0,0.5-0.1,0.9-0.2,1.3s-0.4,0.7-0.6,1s-0.6,0.5-0.9,0.7s-0.8,0.2-1.2,0.2c-0.3,0-0.6,0-0.8-0.1
			s-0.5-0.1-0.7-0.2v2h0.9v1h-2.9v-1h0.8v-6.8h-0.8V227.9z M308.6,228.7c-0.3,0-0.6,0.1-0.8,0.2s-0.5,0.3-0.7,0.5v3.3
			c0.1,0.1,0.3,0.3,0.6,0.4s0.5,0.2,0.9,0.2c0.3,0,0.5,0,0.7-0.1s0.4-0.2,0.6-0.4s0.3-0.4,0.4-0.7s0.2-0.6,0.2-1
			c0-0.3,0-0.6-0.1-0.9s-0.2-0.5-0.4-0.7s-0.4-0.3-0.6-0.4S308.9,228.7,308.6,228.7z"/>
		<path class="st4" d="M312.7,224.9h2v8.1h0.9v1h-2.9v-1h0.9v-7.1h-0.9V224.9z"/>
		<path class="st4" d="M320.2,233.4c-0.2,0.2-0.5,0.4-0.8,0.5s-0.6,0.2-1,0.2c-0.3,0-0.6,0-0.8-0.1s-0.5-0.2-0.6-0.4
			s-0.3-0.4-0.4-0.6s-0.1-0.4-0.1-0.7c0-0.3,0-0.5,0.1-0.7s0.2-0.4,0.3-0.5s0.3-0.3,0.4-0.4s0.3-0.2,0.5-0.2s0.4-0.1,0.6-0.1
			s0.4,0,0.6,0c0.3,0,0.5,0,0.7,0s0.4,0,0.5,0.1l0-0.5c0-0.2,0-0.4-0.1-0.6s-0.2-0.3-0.3-0.4s-0.2-0.2-0.4-0.2s-0.3-0.1-0.5-0.1
			c-0.2,0-0.4,0-0.5,0s-0.3,0.1-0.5,0.1s-0.3,0.1-0.4,0.1s-0.2,0.1-0.3,0.2l-0.4-0.8c0.1-0.1,0.3-0.2,0.5-0.3s0.4-0.1,0.5-0.2
			s0.4-0.1,0.6-0.1s0.4,0,0.6,0c0.4,0,0.7,0,0.9,0.1s0.5,0.2,0.7,0.4s0.3,0.4,0.5,0.7s0.2,0.6,0.2,1l0,3h0.7v1h-1.8V233.4z
			 M318.7,233.3c0.1,0,0.3,0,0.4-0.1s0.3-0.1,0.4-0.1s0.2-0.1,0.4-0.2s0.2-0.2,0.3-0.2l0-1.4h-1.3c-0.2,0-0.4,0-0.6,0.1
			s-0.3,0.1-0.5,0.2s-0.2,0.2-0.3,0.3s-0.1,0.3-0.1,0.5c0,0.2,0,0.3,0.1,0.4s0.1,0.2,0.2,0.3s0.2,0.1,0.4,0.2
			S318.5,233.3,318.7,233.3z"/>
		<path class="st4" d="M322.8,227.9h2.3v1h-0.7l1.4,3.9l1.5-3.9h-0.7v-1h2.3v1h-0.6l-2.7,6.8h0.8v1h-2.4v-1h0.7l0.6-1.7l-2-5.1h-0.5
			V227.9z"/>
		<path class="st4" d="M331.1,231.1c0,0.2,0,0.3,0,0.5s0.1,0.3,0.1,0.4c0.1,0.4,0.4,0.7,0.7,0.9s0.7,0.3,1.1,0.3
			c0.3,0,0.6,0,0.9-0.1s0.6-0.2,0.9-0.4l0.4,0.7c-0.4,0.3-0.8,0.5-1.2,0.6s-0.8,0.2-1.3,0.2c-0.4,0-0.8-0.1-1.1-0.2
			s-0.7-0.3-0.9-0.6s-0.4-0.6-0.6-1s-0.2-0.9-0.2-1.4c0-0.4,0.1-0.8,0.2-1.2s0.3-0.7,0.5-1s0.5-0.5,0.9-0.7s0.8-0.3,1.2-0.3
			c0.5,0,0.8,0.1,1.1,0.2s0.6,0.3,0.8,0.6s0.3,0.5,0.4,0.8s0.2,0.6,0.2,0.9c0,0.1,0,0.3,0,0.5s0,0.3,0,0.4H331.1z M332.8,228.7
			c-0.3,0-0.5,0-0.7,0.1s-0.4,0.2-0.5,0.3s-0.2,0.3-0.3,0.5s-0.1,0.4-0.2,0.7h3.1c0-0.2-0.1-0.4-0.1-0.6s-0.1-0.4-0.3-0.5
			s-0.3-0.3-0.5-0.3S333.1,228.7,332.8,228.7z"/>
		<path class="st4" d="M341.3,229.2h-1.1v-0.4c-0.1,0-0.3,0-0.4,0.1s-0.3,0.1-0.4,0.2s-0.2,0.2-0.3,0.4s-0.2,0.3-0.2,0.5v2.9h1v1h-3
			v-1h0.8l0-4.1H337v-1h1.9v0.8c0.1-0.1,0.1-0.2,0.2-0.3s0.2-0.2,0.3-0.3s0.2-0.1,0.4-0.2s0.3-0.1,0.4-0.1c0.2,0,0.4,0,0.6,0
			s0.4,0,0.5,0V229.2z"/>
	<line class="st2" x1="270" y1="216" x2="351" y2="216"/>
	<rect y="252" width="180" height="252"/>
	<rect x="9" y="261" class="st6" width="162" height="234"/>
	<rect x="9" y="261" class="st2" width="162" height="234"/>
	<polygon class="st7" points="45,333 72,324 108,324 135,333 153,351 90,432 27,351"/>
		<polygon class="st8" points="45,333 72,324 108,324 135,333 153,351 90,432 27,351"/>
		<polyline class="st8" points="45,333 72,342 108,342 135,333"/>
		<polyline class="st8" points="72,342 54,360 90,432 126,360 108,342"/>
		<polyline class="st8" points="27,351 54,360 126,360 153,351"/>
		<path class="st4" d="M74.4,283.9c-0.5-0.9-1.2-1.6-2.1-2.1s-1.8-0.8-2.9-0.8c-0.9,0-1.7,0.2-2.5,0.6s-1.4,0.9-1.9,1.5
			s-1,1.4-1.2,2.2s-0.4,1.7-0.4,2.7c0,1.1,0.2,2.1,0.5,2.9s0.8,1.6,1.3,2.1s1.2,1,1.9,1.4s1.5,0.6,2.4,0.6c1.2,0,2.3-0.3,3.2-0.9
			s1.7-1.6,2.3-2.9l2.1,1c-0.3,0.8-0.8,1.7-1.5,2.4s-1.6,1.4-2.6,1.9s-2.2,0.7-3.5,0.7c-1.2,0-2.3-0.2-3.3-0.7s-1.9-1.1-2.7-2
			s-1.4-1.8-1.8-3s-0.6-2.4-0.6-3.6c0-1.3,0.2-2.5,0.6-3.6s1-2.1,1.8-2.9s1.7-1.5,2.7-2s2.2-0.7,3.4-0.7c1.1,0,2,0.2,2.8,0.5
			s1.5,0.7,2,1.1s1,0.9,1.4,1.4h1.2v2.1H74.4z"/>
		<path class="st4" d="M87.7,287.4h-2.2v-0.8c-0.3,0-0.5,0-0.8,0.1s-0.5,0.2-0.8,0.4s-0.4,0.5-0.6,0.8s-0.3,0.7-0.4,1.1v5.9H85v2h-6
			v-2h1.7l0-8.1H79v-2h3.9v1.7c0.1-0.3,0.3-0.5,0.5-0.7s0.4-0.4,0.6-0.6s0.5-0.3,0.7-0.4s0.5-0.1,0.8-0.1c0.4,0,0.8,0,1.1,0
			s0.7,0,1.1,0V287.4z"/>
		<path class="st4" d="M97.4,295.9c-0.5,0.4-1,0.8-1.5,1.1s-1.2,0.4-1.9,0.4c-0.6,0-1.1-0.1-1.6-0.3s-0.9-0.4-1.3-0.8
			s-0.6-0.7-0.8-1.1s-0.3-0.9-0.3-1.4c0-0.5,0.1-1,0.2-1.4s0.4-0.7,0.6-1s0.6-0.5,0.9-0.7s0.7-0.4,1.1-0.5s0.8-0.2,1.1-0.3
			s0.8-0.1,1.1-0.1c0.6,0,1,0,1.4,0.1s0.7,0.1,1,0.1l0-1c0-0.4-0.1-0.8-0.2-1.1s-0.3-0.6-0.5-0.8s-0.5-0.4-0.8-0.5s-0.7-0.2-1.1-0.2
			c-0.4,0-0.7,0-1.1,0.1s-0.7,0.1-0.9,0.2s-0.6,0.2-0.8,0.3s-0.5,0.2-0.6,0.3l-0.7-1.5c0.3-0.2,0.6-0.4,0.9-0.5s0.7-0.3,1.1-0.4
			s0.8-0.2,1.2-0.3s0.8-0.1,1.2-0.1c0.7,0,1.3,0.1,1.9,0.3s1,0.4,1.4,0.8s0.7,0.8,0.9,1.3s0.3,1.2,0.3,2l0,6.1h1.3v2h-3.5V295.9z
			 M94.4,295.5c0.3,0,0.6,0,0.9-0.1s0.6-0.2,0.8-0.3s0.5-0.3,0.7-0.4s0.4-0.3,0.6-0.5l0-2.7h-2.5c-0.4,0-0.8,0-1.2,0.1
			s-0.6,0.2-0.9,0.4s-0.5,0.4-0.6,0.7s-0.2,0.6-0.2,0.9c0,0.3,0.1,0.6,0.2,0.8s0.3,0.4,0.5,0.6s0.5,0.3,0.8,0.4
			S94.1,295.5,94.4,295.5z"/>
		<path class="st4" d="M107.4,284.9h2.8v1.8h-2.8v8.4h1.9v2h-5.9v-2h1.8v-8.4h-2v-1.8h2V283c0-0.7,0.1-1.3,0.3-1.8s0.5-1,0.8-1.3
			s0.8-0.6,1.2-0.8s1-0.3,1.6-0.3c0.4,0,0.8,0,1.1,0.1s0.6,0.1,0.9,0.2s0.5,0.1,0.7,0.2s0.4,0.2,0.5,0.2l-0.7,1.6
			c-0.3-0.1-0.6-0.2-1-0.3s-0.8-0.1-1.3-0.1c-0.6,0-1.2,0.2-1.5,0.6s-0.6,1-0.6,1.8V284.9z"/>
		<path class="st4" d="M115.6,284.9h2.8v1.8h-2.9l0,7c0,0.5,0.1,0.9,0.2,1.2s0.3,0.5,0.5,0.6s0.5,0.2,0.8,0.2c0.3,0,0.6,0,0.9-0.1
			s0.5-0.2,0.8-0.3l0.5,1.5c-0.4,0.2-0.8,0.3-1.2,0.5s-0.9,0.2-1.5,0.2c-0.5,0-1-0.1-1.4-0.2s-0.7-0.3-1-0.7s-0.5-0.7-0.6-1.2
			s-0.2-1.2-0.2-1.9l0-6.7h-1.9v-1.8h2V282l2.1-1V284.9z"/>
		<path class="st4" d="M79.1,391l12.6-21.6h5l-12,21.2h9.1v-5.9l4.6-0.3v6.2h5.3v4h-5.3v6.2h3.5v4H90.4v-4h3.4v-6.2H79.1L79.1,391z"
			/>
		<path class="st4" d="M104.9,485.4c-0.2,0.2-0.5,0.4-0.8,0.5s-0.6,0.2-1,0.2c-0.3,0-0.6,0-0.8-0.1s-0.5-0.2-0.6-0.4
			s-0.3-0.4-0.4-0.6s-0.1-0.4-0.1-0.7c0-0.3,0-0.5,0.1-0.7s0.2-0.4,0.3-0.5s0.3-0.3,0.4-0.4s0.3-0.2,0.5-0.2s0.4-0.1,0.6-0.1
			s0.4,0,0.6,0c0.3,0,0.5,0,0.7,0s0.4,0,0.5,0.1l0-0.5c0-0.2,0-0.4-0.1-0.6s-0.2-0.3-0.3-0.4s-0.2-0.2-0.4-0.2s-0.3-0.1-0.5-0.1
			c-0.2,0-0.4,0-0.5,0s-0.3,0.1-0.5,0.1s-0.3,0.1-0.4,0.1s-0.2,0.1-0.3,0.2l-0.4-0.8c0.1-0.1,0.3-0.2,0.5-0.3s0.4-0.1,0.5-0.2
			s0.4-0.1,0.6-0.1s0.4,0,0.6,0c0.4,0,0.7,0,0.9,0.1s0.5,0.2,0.7,0.4s0.3,0.4,0.5,0.7s0.2,0.6,0.2,1l0,3h0.7v1h-1.8V485.4z
			 M103.4,485.3c0.1,0,0.3,0,0.4-0.1s0.3-0.1,0.4-0.1s0.2-0.1,0.4-0.2s0.2-0.2,0.3-0.2l0-1.4h-1.3c-0.2,0-0.4,0-0.6,0.1
			s-0.3,0.1-0.5,0.2s-0.2,0.2-0.3,0.3s-0.1,0.3-0.1,0.5c0,0.2,0,0.3,0.1,0.4s0.1,0.2,0.2,0.3s0.2,0.1,0.4,0.2
			S103.2,485.3,103.4,485.3z"/>
		<path class="st4" d="M111.9,485h0.9v-2.8c0-0.5-0.1-0.8-0.4-1.1s-0.6-0.4-1-0.4c-0.3,0-0.5,0.1-0.8,0.2s-0.5,0.3-0.7,0.5v3.6h0.9
			v1h-2.8v-1h0.8v-4.1h-0.8v-1h1.9v0.7h0c0.1-0.1,0.3-0.2,0.4-0.3s0.3-0.2,0.5-0.3s0.3-0.1,0.5-0.2s0.4-0.1,0.5-0.1
			c0.3,0,0.6,0,0.9,0.1s0.5,0.2,0.7,0.4s0.3,0.4,0.4,0.7s0.1,0.6,0.1,1v2.9h0.8v1h-2.8V485z"/>
		<path class="st4" d="M115.5,479.9h2.3v1h-0.7l1.4,3.9l1.5-3.9h-0.7v-1h2.3v1h-0.6l-2.7,6.8h0.8v1h-2.4v-1h0.7l0.6-1.7l-2-5.1h-0.5
			V479.9z"/>
		<path class="st4" d="M125.2,479.9h1.9v0.5c0.3-0.2,0.5-0.4,0.8-0.5s0.6-0.2,0.9-0.2c0.4,0,0.8,0.1,1.1,0.2s0.6,0.4,0.9,0.6
			s0.4,0.6,0.6,1s0.2,0.8,0.2,1.3c0,0.5-0.1,0.9-0.2,1.3s-0.4,0.7-0.6,1s-0.6,0.5-0.9,0.7s-0.8,0.2-1.2,0.2c-0.3,0-0.6,0-0.8-0.1
			s-0.5-0.1-0.7-0.2v2h0.9v1h-2.9v-1h0.8v-6.8h-0.8V479.9z M128.6,480.7c-0.3,0-0.6,0.1-0.8,0.2s-0.5,0.3-0.7,0.5v3.3
			c0.1,0.1,0.3,0.3,0.6,0.4s0.5,0.2,0.9,0.2c0.3,0,0.5,0,0.7-0.1s0.4-0.2,0.6-0.4s0.3-0.4,0.4-0.7s0.2-0.6,0.2-1
			c0-0.3,0-0.6-0.1-0.9s-0.2-0.5-0.4-0.7s-0.4-0.3-0.6-0.4S128.9,480.7,128.6,480.7z"/>
		<path class="st4" d="M132.7,476.9h2v8.1h0.9v1h-2.9v-1h0.9v-7.1h-0.9V476.9z"/>
		<path class="st4" d="M140.2,485.4c-0.2,0.2-0.5,0.4-0.8,0.5s-0.6,0.2-1,0.2c-0.3,0-0.6,0-0.8-0.1s-0.5-0.2-0.6-0.4
			s-0.3-0.4-0.4-0.6s-0.1-0.4-0.1-0.7c0-0.3,0-0.5,0.1-0.7s0.2-0.4,0.3-0.5s0.3-0.3,0.4-0.4s0.3-0.2,0.5-0.2s0.4-0.1,0.6-0.1
			s0.4,0,0.6,0c0.3,0,0.5,0,0.7,0s0.4,0,0.5,0.1l0-0.5c0-0.2,0-0.4-0.1-0.6s-0.2-0.3-0.3-0.4s-0.2-0.2-0.4-0.2s-0.3-0.1-0.5-0.1
			c-0.2,0-0.4,0-0.5,0s-0.3,0.1-0.5,0.1s-0.3,0.1-0.4,0.1s-0.2,0.1-0.3,0.2l-0.4-0.8c0.1-0.1,0.3-0.2,0.5-0.3s0.4-0.1,0.5-0.2
			s0.4-0.1,0.6-0.1s0.4,0,0.6,0c0.4,0,0.7,0,0.9,0.1s0.5,0.2,0.7,0.4s0.3,0.4,0.5,0.7s0.2,0.6,0.2,1l0,3h0.7v1h-1.8V485.4z
			 M138.7,485.3c0.1,0,0.3,0,0.4-0.1s0.3-0.1,0.4-0.1s0.2-0.1,0.4-0.2s0.2-0.2,0.3-0.2l0-1.4h-1.3c-0.2,0-0.4,0-0.6,0.1
			s-0.3,0.1-0.5,0.2s-0.2,0.2-0.3,0.3s-0.1,0.3-0.1,0.5c0,0.2,0,0.3,0.1,0.4s0.1,0.2,0.2,0.3s0.2,0.1,0.4,0.2
			S138.5,485.3,138.7,485.3z"/>
		<path class="st4" d="M142.8,479.9h2.3v1h-0.7l1.4,3.9l1.5-3.9h-0.7v-1h2.3v1h-0.6l-2.7,6.8h0.8v1h-2.4v-1h0.7l0.6-1.7l-2-5.1h-0.5
			V479.9z"/>
		<path class="st4" d="M151.1,483.1c0,0.2,0,0.3,0,0.5s0.1,0.3,0.1,0.4c0.1,0.4,0.4,0.7,0.7,0.9s0.7,0.3,1.1,0.3
			c0.3,0,0.6,0,0.9-0.1s0.6-0.2,0.9-0.4l0.4,0.7c-0.4,0.3-0.8,0.5-1.2,0.6s-0.8,0.2-1.3,0.2c-0.4,0-0.8-0.1-1.1-0.2
			s-0.7-0.3-0.9-0.6s-0.4-0.6-0.6-1s-0.2-0.9-0.2-1.4c0-0.4,0.1-0.8,0.2-1.2s0.3-0.7,0.5-1s0.5-0.5,0.9-0.7s0.8-0.3,1.2-0.3
			c0.5,0,0.8,0.1,1.1,0.2s0.6,0.3,0.8,0.6s0.3,0.5,0.4,0.8s0.2,0.6,0.2,0.9c0,0.1,0,0.3,0,0.5s0,0.3,0,0.4H151.1z M152.8,480.7
			c-0.3,0-0.5,0-0.7,0.1s-0.4,0.2-0.5,0.3s-0.2,0.3-0.3,0.5s-0.1,0.4-0.2,0.7h3.1c0-0.2-0.1-0.4-0.1-0.6s-0.1-0.4-0.3-0.5
			s-0.3-0.3-0.5-0.3S153.1,480.7,152.8,480.7z"/>
		<path class="st4" d="M161.3,481.2h-1.1v-0.4c-0.1,0-0.3,0-0.4,0.1s-0.3,0.1-0.4,0.2s-0.2,0.2-0.3,0.4s-0.2,0.3-0.2,0.5v2.9h1v1h-3
			v-1h0.8l0-4.1H157v-1h1.9v0.8c0.1-0.1,0.1-0.2,0.2-0.3s0.2-0.2,0.3-0.3s0.2-0.1,0.4-0.2s0.3-0.1,0.4-0.1c0.2,0,0.4,0,0.6,0
			s0.4,0,0.5,0V481.2z"/>
	<line class="st2" x1="90" y1="468" x2="171" y2="468"/>
	<rect x="180" y="252" width="180" height="252"/>
	<rect x="189" y="261" width="162" height="234"/>
	<rect x="189" y="261" class="st2" width="162" height="234"/>
	<polygon class="st9" points="234,387 306,315 279,369 306,369 234,441 261,387"/>
		<path class="st4" d="M235.4,283.9c-0.5-0.9-1.2-1.6-2.1-2.1s-1.8-0.8-2.9-0.8c-0.9,0-1.7,0.2-2.5,0.6s-1.4,0.9-1.9,1.5
			s-1,1.4-1.2,2.2s-0.4,1.7-0.4,2.7c0,1.1,0.2,2.1,0.5,2.9s0.8,1.6,1.3,2.1s1.2,1,1.9,1.4s1.5,0.6,2.4,0.6c1.2,0,2.3-0.3,3.2-0.9
			s1.7-1.6,2.3-2.9l2.1,1c-0.3,0.8-0.8,1.7-1.5,2.4s-1.6,1.4-2.6,1.9s-2.2,0.7-3.5,0.7c-1.2,0-2.3-0.2-3.3-0.7s-1.9-1.1-2.7-2
			s-1.4-1.8-1.8-3s-0.6-2.4-0.6-3.6c0-1.3,0.2-2.5,0.6-3.6s1-2.1,1.8-2.9s1.7-1.5,2.7-2s2.2-0.7,3.4-0.7c1.1,0,2,0.2,2.8,0.5
			s1.5,0.7,2,1.1s1,0.9,1.4,1.4h1.2v2.1H235.4z"/>
		<path class="st4" d="M239.8,290.9c0-1,0.2-1.8,0.5-2.6s0.7-1.5,1.3-2s1.2-1,1.9-1.3s1.6-0.5,2.4-0.5c0.9,0,1.7,0.2,2.5,0.5
			s1.4,0.7,1.9,1.3s0.9,1.2,1.2,2s0.4,1.7,0.4,2.6c0,0.9-0.1,1.8-0.4,2.6s-0.7,1.5-1.2,2s-1.2,1-1.9,1.3s-1.6,0.5-2.5,0.5
			c-0.9,0-1.7-0.2-2.5-0.5s-1.4-0.8-1.9-1.3s-0.9-1.2-1.2-2S239.8,291.9,239.8,290.9z M242.1,290.9c0,0.7,0.1,1.3,0.3,1.9
			s0.5,1,0.8,1.4s0.8,0.7,1.2,0.9s0.9,0.3,1.5,0.3c0.5,0,1-0.1,1.5-0.3s0.9-0.5,1.2-0.9s0.6-0.9,0.8-1.4s0.3-1.2,0.3-1.9
			c0-0.7-0.1-1.4-0.3-2s-0.5-1-0.8-1.4s-0.7-0.7-1.2-0.9s-1-0.3-1.5-0.3c-0.5,0-1,0.1-1.5,0.3s-0.9,0.5-1.2,0.9s-0.6,0.9-0.8,1.4
			S242.1,290.2,242.1,290.9z"/>
		<path class="st4" d="M261.6,284.9h3.9V295h1.3v2h-3.5v-1.1c-0.5,0.4-1.1,0.8-1.8,1s-1.3,0.4-2.1,0.4c-0.6,0-1.2-0.1-1.7-0.3
			s-0.9-0.4-1.3-0.8s-0.6-0.8-0.8-1.4s-0.3-1.3-0.3-2v-5.8h-1.6v-2h3.9v7.6c0,0.9,0.2,1.6,0.6,2.1s1,0.7,1.9,0.7
			c0.5,0,1-0.1,1.5-0.3s1-0.4,1.5-0.7v-7.4h-1.6V284.9z"/>
		<path class="st4" d="M278.1,295h1.7v-5.5c0-0.9-0.2-1.6-0.7-2.1s-1.2-0.7-2-0.7c-0.5,0-1,0.1-1.5,0.4s-1,0.5-1.5,0.9v7.1h1.7v2
			h-5.7v-2h1.7v-8.1h-1.7v-2h3.9v1.4h0c0.3-0.2,0.5-0.4,0.8-0.6s0.6-0.4,0.9-0.5s0.7-0.3,1-0.4s0.7-0.1,1.1-0.1
			c0.6,0,1.2,0.1,1.8,0.3s1,0.5,1.3,0.8s0.7,0.8,0.8,1.4s0.3,1.3,0.3,2v5.8h1.7v2h-5.7V295z"/>
		<path class="st4" d="M289.6,284.9h2.8v1.8h-2.9l0,7c0,0.5,0.1,0.9,0.2,1.2s0.3,0.5,0.5,0.6s0.5,0.2,0.8,0.2c0.3,0,0.6,0,0.9-0.1
			s0.5-0.2,0.8-0.3l0.5,1.5c-0.4,0.2-0.8,0.3-1.2,0.5s-0.9,0.2-1.5,0.2c-0.5,0-1-0.1-1.4-0.2s-0.7-0.3-1-0.7s-0.5-0.7-0.6-1.2
			s-0.2-1.2-0.2-1.9l0-6.7h-1.9v-1.8h2V282l2.1-1V284.9z"/>
		<path class="st4" d="M297.1,291.2c0,0.3,0,0.7,0.1,0.9s0.1,0.6,0.2,0.8c0.3,0.8,0.8,1.4,1.4,1.8s1.4,0.6,2.2,0.6
			c0.6,0,1.2-0.1,1.8-0.3s1.2-0.5,1.9-0.8l0.9,1.5c-0.8,0.5-1.6,1-2.4,1.2s-1.6,0.4-2.5,0.4c-0.8,0-1.6-0.1-2.3-0.4
			s-1.3-0.7-1.8-1.2s-0.9-1.2-1.2-2s-0.4-1.7-0.4-2.8c0-0.9,0.1-1.7,0.4-2.5s0.6-1.4,1.1-2s1.1-1,1.8-1.4s1.5-0.5,2.5-0.5
			c0.9,0,1.7,0.1,2.3,0.4s1.1,0.6,1.5,1.1s0.7,1,0.9,1.6s0.3,1.2,0.4,1.8c0,0.3,0.1,0.6,0.1,0.9s0,0.6,0,0.9H297.1z M300.5,286.4
			c-0.5,0-1,0.1-1.3,0.2s-0.7,0.4-1,0.6s-0.5,0.6-0.6,1s-0.3,0.8-0.4,1.3h6.3c0-0.5-0.1-0.9-0.2-1.3s-0.3-0.7-0.5-1
			s-0.5-0.5-0.9-0.7S301.1,286.4,300.5,286.4z"/>
		<path class="st4" d="M317.6,287.4h-2.2v-0.8c-0.3,0-0.5,0-0.8,0.1s-0.5,0.2-0.8,0.4s-0.4,0.5-0.6,0.8s-0.3,0.7-0.4,1.1v5.9h2.1v2
			h-6v-2h1.7l0-8.1h-1.7v-2h3.9v1.7c0.1-0.3,0.3-0.5,0.5-0.7s0.4-0.4,0.6-0.6s0.5-0.3,0.7-0.4s0.5-0.1,0.8-0.1c0.4,0,0.8,0,1.1,0
			s0.7,0,1.1,0V287.4z"/>
		<path class="st4" d="M285.8,485.4c-0.2,0.2-0.5,0.4-0.8,0.5s-0.6,0.2-1,0.2c-0.3,0-0.6,0-0.8-0.1s-0.5-0.2-0.6-0.4
			s-0.3-0.4-0.4-0.6s-0.1-0.4-0.1-0.7c0-0.3,0-0.5,0.1-0.7s0.2-0.4,0.3-0.5s0.3-0.3,0.4-0.4s0.3-0.2,0.5-0.2s0.4-0.1,0.6-0.1
			s0.4,0,0.6,0c0.3,0,0.5,0,0.7,0s0.4,0,0.5,0.1l0-0.5c0-0.2,0-0.4-0.1-0.6s-0.2-0.3-0.3-0.4s-0.2-0.2-0.4-0.2s-0.3-0.1-0.5-0.1
			c-0.2,0-0.4,0-0.5,0s-0.3,0.1-0.5,0.1s-0.3,0.1-0.4,0.1s-0.2,0.1-0.3,0.2l-0.4-0.8c0.1-0.1,0.3-0.2,0.5-0.3s0.4-0.1,0.5-0.2
			s0.4-0.1,0.6-0.1s0.4,0,0.6,0c0.4,0,0.7,0,0.9,0.1s0.5,0.2,0.7,0.4s0.3,0.4,0.5,0.7s0.2,0.6,0.2,1l0,3h0.7v1h-1.8V485.4z
			 M284.3,485.3c0.1,0,0.3,0,0.4-0.1s0.3-0.1,0.4-0.1s0.2-0.1,0.4-0.2s0.2-0.2,0.3-0.2l0-1.4h-1.3c-0.2,0-0.4,0-0.6,0.1
			s-0.3,0.1-0.5,0.2s-0.2,0.2-0.3,0.3s-0.1,0.3-0.1,0.5c0,0.2,0,0.3,0.1,0.4s0.1,0.2,0.2,0.3s0.2,0.1,0.4,0.2
			S284.1,485.3,284.3,485.3z"/>
		<path class="st4" d="M293.4,479.9h1.4v0.9h-1.4v4.2h0.9v1h-3v-1h0.9v-4.2h-1v-0.9h1V479c0-0.4,0.1-0.7,0.2-0.9s0.2-0.5,0.4-0.7
			s0.4-0.3,0.6-0.4s0.5-0.1,0.8-0.1c0.2,0,0.4,0,0.6,0s0.3,0,0.4,0.1s0.2,0.1,0.3,0.1s0.2,0.1,0.3,0.1l-0.3,0.8
			c-0.1-0.1-0.3-0.1-0.5-0.2s-0.4-0.1-0.6-0.1c-0.3,0-0.6,0.1-0.8,0.3s-0.3,0.5-0.3,0.9V479.9z"/>
		<path class="st4" d="M295.7,479.9h2v5.1h0.9v1h-2.9v-1h0.9v-4.1h-0.9V479.9z M296.4,477.8c0-0.1,0-0.2,0.1-0.3s0.1-0.2,0.2-0.2
			s0.1-0.1,0.2-0.2s0.2-0.1,0.3-0.1c0.1,0,0.2,0,0.3,0.1s0.2,0.1,0.2,0.2s0.1,0.1,0.2,0.2s0.1,0.2,0.1,0.3c0,0.1,0,0.2-0.1,0.3
			s-0.1,0.2-0.2,0.2s-0.1,0.1-0.2,0.2s-0.2,0.1-0.3,0.1c-0.1,0-0.2,0-0.3-0.1s-0.2-0.1-0.2-0.2s-0.1-0.2-0.2-0.2
			S296.4,477.9,296.4,477.8z"/>
		<path class="st4" d="M304,481.2h-1.1v-0.4c-0.1,0-0.3,0-0.4,0.1s-0.3,0.1-0.4,0.2s-0.2,0.2-0.3,0.4s-0.2,0.3-0.2,0.5v2.9h1v1h-3
			v-1h0.8l0-4.1h-0.8v-1h1.9v0.8c0.1-0.1,0.1-0.2,0.2-0.3s0.2-0.2,0.3-0.3s0.2-0.1,0.4-0.2s0.3-0.1,0.4-0.1c0.2,0,0.4,0,0.6,0
			s0.4,0,0.5,0V481.2z"/>
		<path class="st4" d="M306.3,483.1c0,0.2,0,0.3,0,0.5s0.1,0.3,0.1,0.4c0.1,0.4,0.4,0.7,0.7,0.9s0.7,0.3,1.1,0.3
			c0.3,0,0.6,0,0.9-0.1s0.6-0.2,0.9-0.4l0.4,0.7c-0.4,0.3-0.8,0.5-1.2,0.6s-0.8,0.2-1.3,0.2c-0.4,0-0.8-0.1-1.1-0.2
			s-0.7-0.3-0.9-0.6s-0.4-0.6-0.6-1s-0.2-0.9-0.2-1.4c0-0.4,0.1-0.8,0.2-1.2s0.3-0.7,0.5-1s0.5-0.5,0.9-0.7s0.8-0.3,1.2-0.3
			c0.5,0,0.8,0.1,1.1,0.2s0.6,0.3,0.8,0.6s0.3,0.5,0.4,0.8s0.2,0.6,0.2,0.9c0,0.1,0,0.3,0,0.5s0,0.3,0,0.4H306.3z M308,480.7
			c-0.3,0-0.5,0-0.7,0.1s-0.4,0.2-0.5,0.3s-0.2,0.3-0.3,0.5s-0.1,0.4-0.2,0.7h3.1c0-0.2-0.1-0.4-0.1-0.6s-0.1-0.4-0.3-0.5
			s-0.3-0.3-0.5-0.3S308.3,480.7,308,480.7z"/>
		<path class="st4" d="M318.1,481.1c-0.1-0.1-0.2-0.2-0.3-0.3s-0.3-0.1-0.4-0.2s-0.3,0-0.4,0c-0.2,0-0.3,0-0.4,0.1s-0.2,0.1-0.3,0.2
			s-0.2,0.1-0.2,0.2s-0.1,0.2-0.1,0.3c0,0.2,0.1,0.4,0.2,0.5s0.3,0.2,0.6,0.3l1.2,0.4c0.5,0.2,0.9,0.4,1.1,0.7s0.3,0.6,0.3,1
			c0,0.3-0.1,0.5-0.2,0.7s-0.3,0.4-0.5,0.6s-0.4,0.3-0.7,0.4s-0.6,0.1-0.9,0.1c-0.5,0-0.9-0.1-1.2-0.2s-0.5-0.4-0.7-0.6h-0.6v-1h1.2
			c0,0.2,0,0.3,0.1,0.4s0.2,0.2,0.3,0.3s0.3,0.1,0.4,0.2s0.3,0.1,0.5,0.1c0.2,0,0.3,0,0.4-0.1s0.3-0.1,0.4-0.2s0.2-0.2,0.3-0.3
			s0.1-0.2,0.1-0.3c0-0.2-0.1-0.4-0.2-0.5s-0.3-0.3-0.6-0.4l-1.2-0.4c-0.5-0.2-0.8-0.4-1.1-0.6s-0.3-0.6-0.3-1c0-0.3,0-0.5,0.1-0.7
			s0.2-0.4,0.4-0.6s0.4-0.3,0.7-0.4s0.6-0.1,0.9-0.1c0.4,0,0.8,0.1,1.1,0.2s0.6,0.3,0.8,0.6h0.6v1h-1.2
			C318.3,481.4,318.2,481.3,318.1,481.1z"/>
		<path class="st4" d="M320.3,479.9h1.9v0.5c0.3-0.2,0.5-0.4,0.8-0.5s0.6-0.2,0.9-0.2c0.4,0,0.8,0.1,1.1,0.2s0.6,0.4,0.9,0.6
			s0.4,0.6,0.6,1s0.2,0.8,0.2,1.3c0,0.5-0.1,0.9-0.2,1.3s-0.4,0.7-0.6,1s-0.6,0.5-0.9,0.7s-0.8,0.2-1.2,0.2c-0.3,0-0.6,0-0.8-0.1
			s-0.5-0.1-0.7-0.2v2h0.9v1h-2.9v-1h0.8v-6.8h-0.8V479.9z M323.8,480.7c-0.3,0-0.6,0.1-0.8,0.2s-0.5,0.3-0.7,0.5v3.3
			c0.1,0.1,0.3,0.3,0.6,0.4s0.5,0.2,0.9,0.2c0.3,0,0.5,0,0.7-0.1s0.4-0.2,0.6-0.4s0.3-0.4,0.4-0.7s0.2-0.6,0.2-1
			c0-0.3,0-0.6-0.1-0.9s-0.2-0.5-0.4-0.7s-0.4-0.3-0.6-0.4S324,480.7,323.8,480.7z"/>
		<path class="st4" d="M328.9,483.1c0,0.2,0,0.3,0,0.5s0.1,0.3,0.1,0.4c0.1,0.4,0.4,0.7,0.7,0.9s0.7,0.3,1.1,0.3
			c0.3,0,0.6,0,0.9-0.1s0.6-0.2,0.9-0.4l0.4,0.7c-0.4,0.3-0.8,0.5-1.2,0.6s-0.8,0.2-1.3,0.2c-0.4,0-0.8-0.1-1.1-0.2
			s-0.7-0.3-0.9-0.6s-0.4-0.6-0.6-1s-0.2-0.9-0.2-1.4c0-0.4,0.1-0.8,0.2-1.2s0.3-0.7,0.5-1s0.5-0.5,0.9-0.7s0.8-0.3,1.2-0.3
			c0.5,0,0.8,0.1,1.1,0.2s0.6,0.3,0.8,0.6s0.3,0.5,0.4,0.8s0.2,0.6,0.2,0.9c0,0.1,0,0.3,0,0.5s0,0.3,0,0.4H328.9z M330.6,480.7
			c-0.3,0-0.5,0-0.7,0.1s-0.4,0.2-0.5,0.3s-0.2,0.3-0.3,0.5s-0.1,0.4-0.2,0.7h3.1c0-0.2-0.1-0.4-0.1-0.6s-0.1-0.4-0.3-0.5
			s-0.3-0.3-0.5-0.3S330.9,480.7,330.6,480.7z"/>
		<path class="st4" d="M334.7,476.9h2v8.1h0.9v1h-2.9v-1h0.9v-7.1h-0.9V476.9z"/>
		<path class="st4" d="M338.6,476.9h2v8.1h0.9v1h-2.9v-1h0.9v-7.1h-0.9V476.9z"/>
	<line class="st2" x1="270" y1="468" x2="351" y2="468"/>
</svg>