<?xml version="1.0" encoding="utf-8"?>
<!-- Generator: Adobe Illustrator 23.0.6, SVG Export Plug-In . SVG Version: 6.00 Build 0)  -->
<svg version="1.1" id="Layer_1" xmlns="http://www.w3.org/2000/svg" xmlns:xlink="http://www.w3.org/1999/xlink" x="0px" y="0px"
	 viewBox="0 0 369 252" style="enable-background:new 0 0 369 252;" xml:space="preserve">
<style type="text/css">
	.st0{clip-path:url(#SVGID_2_);fill-rule:evenodd;clip-rule:evenodd;}
	.st1{clip-path:url(#SVGID_2_);fill:none;stroke:#000000;stroke-width:0;stroke-miterlimit:10;}
	.st2{clip-path:url(#SVGID_2_);fill:none;stroke:#F7941D;stroke-width:2.25;stroke-miterlimit:10;}
	.st3{clip-path:url(#SVGID_2_);fill:#1D4699;}
	.st4{clip-path:url(#SVGID_2_);}
	.st5{fill:#FFFFFF;}
	.st6{clip-path:url(#SVGID_4_);fill-rule:evenodd;clip-rule:evenodd;}
	.st7{clip-path:url(#SVGID_4_);fill:none;stroke:#000000;stroke-width:0;stroke-miterlimit:10;}
	.st8{clip-path:url(#SVGID_4_);fill:none;stroke:#F7941D;stroke-width:2.25;stroke-miterlimit:10;}
	.st9{clip-path:url(#SVGID_4_);fill:#EC1E32;}
	.st10{clip-path:url(#SVGID_4_);}
</style>
<g>
	<g>
		<defs>
			<rect id="SVGID_1_" x="189" width="180" height="252"/>
		</defs>
		<clipPath id="SVGID_2_">
			<use xlink:href="#SVGID_1_"  style="overflow:visible;"/>
		</clipPath>
		<rect x="189" class="st0" width="180" height="252"/>
		<rect x="189" class="st1" width="180" height="252"/>
		<rect x="198" y="9" class="st0" width="162" height="234"/>
		<rect x="198" y="9" class="st2" width="162" height="234"/>
		<path class="st3" d="M216,181.2h126c-50.1-14.1-35.6-112.4-12-70.9C330,110,333.6-14.9,216,181.2z"/>
		<g class="st4">
			<path class="st5" d="M265,27.2h5.8v2h-1.7V43h1.7v2H265v-2h1.8v-6.4h-10.3V43h1.8v2h-5.8v-2h1.7V29.3h-1.7v-2h5.8v2h-1.8v5.4
				h10.3v-5.4H265V27.2z"/>
			<path class="st5" d="M275.7,39.2c0,0.3,0,0.7,0.1,0.9s0.1,0.6,0.2,0.8c0.3,0.8,0.8,1.4,1.4,1.8s1.4,0.6,2.2,0.6
				c0.6,0,1.2-0.1,1.8-0.3s1.2-0.5,1.9-0.8l0.9,1.5c-0.8,0.5-1.6,1-2.4,1.2s-1.6,0.4-2.5,0.4c-0.8,0-1.6-0.1-2.3-0.4
				s-1.3-0.7-1.8-1.2s-0.9-1.2-1.2-2s-0.4-1.7-0.4-2.8c0-0.9,0.1-1.7,0.4-2.5s0.6-1.4,1.1-2s1.1-1,1.8-1.4s1.5-0.5,2.5-0.5
				c0.9,0,1.7,0.1,2.3,0.4s1.1,0.6,1.5,1.1s0.7,1,0.9,1.6s0.3,1.2,0.4,1.8c0,0.3,0.1,0.6,0.1,0.9s0,0.6,0,0.9H275.7z M279.1,34.4
				c-0.5,0-1,0.1-1.3,0.2s-0.7,0.4-1,0.6s-0.5,0.6-0.6,1s-0.3,0.8-0.4,1.3h6.3c0-0.5-0.1-0.9-0.2-1.3s-0.3-0.7-0.5-1
				s-0.5-0.5-0.9-0.7S279.6,34.4,279.1,34.4z"/>
			<path class="st5" d="M294.5,43.9c-0.5,0.4-1,0.8-1.5,1.1s-1.2,0.4-1.9,0.4c-0.6,0-1.1-0.1-1.6-0.3s-0.9-0.4-1.3-0.8
				s-0.6-0.7-0.8-1.1s-0.3-0.9-0.3-1.4c0-0.5,0.1-1,0.2-1.4s0.4-0.7,0.6-1s0.6-0.5,0.9-0.7s0.7-0.4,1.1-0.5s0.8-0.2,1.1-0.3
				s0.8-0.1,1.1-0.1c0.6,0,1,0,1.4,0.1s0.7,0.1,1,0.1l0-1c0-0.4-0.1-0.8-0.2-1.1s-0.3-0.6-0.5-0.8s-0.5-0.4-0.8-0.5
				s-0.7-0.2-1.1-0.2c-0.4,0-0.7,0-1.1,0.1s-0.7,0.1-0.9,0.2s-0.6,0.2-0.8,0.3s-0.5,0.2-0.6,0.3l-0.7-1.5c0.3-0.2,0.6-0.4,0.9-0.5
				s0.7-0.3,1.1-0.4s0.8-0.2,1.2-0.3s0.8-0.1,1.2-0.1c0.7,0,1.3,0.1,1.9,0.3s1,0.4,1.4,0.8s0.7,0.8,0.9,1.3s0.3,1.2,0.3,2l0,6.1h1.3
				v2h-3.5V43.9z M291.6,43.5c0.3,0,0.6,0,0.9-0.1s0.6-0.2,0.8-0.3s0.5-0.3,0.7-0.4s0.4-0.3,0.6-0.5l0-2.7H292c-0.4,0-0.8,0-1.2,0.1
				s-0.6,0.2-0.9,0.4s-0.5,0.4-0.6,0.7s-0.2,0.6-0.2,0.9c0,0.3,0.1,0.6,0.2,0.8s0.3,0.4,0.5,0.6s0.5,0.3,0.8,0.4
				S291.2,43.5,291.6,43.5z"/>
			<path class="st5" d="M300.4,26.8h3.9V43h1.8v2h-5.8v-2h1.8V28.8h-1.8V26.8z"/>
		</g>
		<g class="st4">
			<path class="st5" d="M256.4,22.5v-1.2c-0.1,0.2-0.2,0.4-0.4,0.5s-0.3,0.3-0.5,0.4s-0.4,0.2-0.6,0.2s-0.4,0.1-0.6,0.1
				c-0.4,0-0.7-0.1-1.1-0.2s-0.6-0.3-0.9-0.6s-0.5-0.6-0.6-1s-0.2-0.8-0.2-1.2c0-0.4,0.1-0.8,0.2-1.2s0.3-0.7,0.6-1s0.6-0.5,0.9-0.7
				s0.7-0.2,1.1-0.2c0.4,0,0.7,0.1,1,0.2s0.5,0.2,0.7,0.4s0.3,0.3,0.5,0.4h0.4v0.7H256c-0.2-0.3-0.4-0.5-0.7-0.7s-0.6-0.3-1-0.3
				c-0.3,0-0.6,0.1-0.8,0.2s-0.5,0.3-0.6,0.5s-0.3,0.5-0.4,0.7s-0.1,0.6-0.1,0.9c0,0.3,0.1,0.7,0.2,1s0.2,0.5,0.4,0.7
				s0.4,0.3,0.6,0.5s0.5,0.2,0.8,0.2c0.5,0,0.9-0.1,1.2-0.4s0.5-0.6,0.7-1.1h-1.7v-0.7h2.5v2.8H256.4z"/>
			<path class="st5" d="M258.4,16.6h2.5c0.3,0,0.5,0,0.7,0.1s0.4,0.2,0.6,0.3s0.3,0.3,0.4,0.5s0.1,0.4,0.1,0.7c0,0.1,0,0.3-0.1,0.4
				s-0.1,0.3-0.2,0.4s-0.2,0.2-0.3,0.3s-0.3,0.2-0.4,0.2c0.1,0,0.1,0.1,0.2,0.1s0.1,0.1,0.2,0.2s0.1,0.2,0.2,0.3s0.1,0.2,0.1,0.3
				l0.3,1.3h0.5l0,0.7H262l-0.4-1.8c-0.1-0.3-0.2-0.6-0.4-0.7s-0.4-0.2-0.7-0.2h-0.8v2.1h0.6v0.7h-1.9v-0.7h0.6v-4.6h-0.6V16.6z
				 M259.7,17.3v1.9h1.1c0.1,0,0.3,0,0.4-0.1s0.2-0.1,0.3-0.2s0.2-0.2,0.2-0.3s0.1-0.3,0.1-0.4c0-0.3-0.1-0.5-0.3-0.7
				s-0.5-0.2-0.8-0.2H259.7z"/>
			<path class="st5" d="M264.1,16.6h4.2v1.7h-0.8v-1h-2.1v1.9h1.8v0.7h-1.8v2h2.1v-1h0.8v1.7h-4.2v-0.7h0.6v-4.6h-0.6V16.6z"/>
			<path class="st5" d="M272.6,21.8h0.5l-0.5-1.3h-2.3l-0.5,1.3h0.6v0.7h-1.9v-0.7h0.5l1.8-5.3h1.2l1.8,5.3h0.6v0.7h-1.9V21.8z
				 M270.6,19.8h1.8l-0.9-2.6L270.6,19.8z"/>
			<path class="st5" d="M276.3,21.8h0.5v-4.6h-1.4v0.9h-0.8v-1.6h5.3v1.6h-0.8v-0.9h-1.6v4.6h0.6v0.7h-1.9V21.8z"/>
			<path class="st5" d="M285.4,17.7c-0.1-0.1-0.2-0.2-0.3-0.3s-0.2-0.1-0.3-0.1s-0.2,0-0.4,0c-0.2,0-0.4,0-0.5,0.1s-0.3,0.1-0.4,0.2
				s-0.2,0.2-0.2,0.3s-0.1,0.2-0.1,0.3c0,0.2,0,0.3,0.1,0.4s0.1,0.2,0.2,0.3s0.2,0.1,0.3,0.2s0.2,0.1,0.3,0.1l0.8,0.3
				c0.2,0.1,0.4,0.2,0.6,0.3s0.3,0.2,0.5,0.3s0.2,0.3,0.3,0.5s0.1,0.4,0.1,0.6c0,0.2-0.1,0.5-0.2,0.7s-0.2,0.4-0.4,0.5
				s-0.4,0.3-0.6,0.4s-0.5,0.1-0.8,0.1c-0.3,0-0.6,0-0.8-0.1s-0.4-0.2-0.5-0.3s-0.3-0.2-0.4-0.4s-0.2-0.3-0.2-0.5h-0.3v-0.7h1
				c0,0.3,0,0.5,0.1,0.6s0.1,0.2,0.3,0.3s0.2,0.1,0.4,0.2s0.3,0.1,0.5,0.1c0.2,0,0.3,0,0.5-0.1s0.3-0.1,0.4-0.2s0.2-0.2,0.2-0.3
				s0.1-0.2,0.1-0.4c0-0.2,0-0.3-0.1-0.4s-0.2-0.2-0.3-0.3s-0.2-0.1-0.3-0.2s-0.2-0.1-0.4-0.1l-0.9-0.2c-0.2-0.1-0.4-0.1-0.5-0.2
				s-0.3-0.2-0.4-0.3s-0.2-0.3-0.3-0.4s-0.1-0.4-0.1-0.6c0-0.2,0-0.4,0.1-0.6s0.2-0.4,0.4-0.5s0.4-0.3,0.6-0.3s0.5-0.1,0.9-0.1
				c0.2,0,0.4,0,0.6,0.1s0.3,0.1,0.5,0.2s0.3,0.2,0.4,0.3s0.2,0.3,0.3,0.4h0.3v0.7h-1C285.5,18,285.5,17.8,285.4,17.7z"/>
			<path class="st5" d="M287.2,16.6h2.4c0.3,0,0.5,0,0.7,0.1s0.4,0.2,0.6,0.3s0.3,0.3,0.4,0.5s0.1,0.4,0.1,0.7c0,0.2,0,0.4-0.1,0.6
				s-0.2,0.4-0.4,0.5s-0.4,0.3-0.6,0.3s-0.5,0.1-0.8,0.1h-1.1v2.1h0.6v0.7h-1.9v-0.7h0.6v-4.6h-0.6V16.6z M288.5,17.3v1.9h1.1
				c0.1,0,0.3,0,0.4-0.1s0.2-0.1,0.3-0.2s0.2-0.2,0.2-0.3s0.1-0.3,0.1-0.4c0-0.3-0.1-0.5-0.3-0.7s-0.5-0.2-0.8-0.2H288.5z"/>
			<path class="st5" d="M292.2,16.6h4.2v1.7h-0.8v-1h-2.1v1.9h1.8v0.7h-1.8v2h2.1v-1h0.8v1.7h-4.2v-0.7h0.6v-4.6h-0.6V16.6z"/>
			<path class="st5" d="M297.2,16.6h1.9v0.7h-0.6v4.6h2c0,0,0.1,0,0.1,0s0.1,0,0.1-0.1s0.1-0.1,0.1-0.1s0-0.1,0-0.1v-0.7h0.7v1.8
				h-4.5v-0.7h0.6v-4.6h-0.6V16.6z"/>
			<path class="st5" d="M302.3,16.6h1.9v0.7h-0.6v4.6h2c0,0,0.1,0,0.1,0s0.1,0,0.1-0.1s0.1-0.1,0.1-0.1s0-0.1,0-0.1v-0.7h0.7v1.8
				h-4.5v-0.7h0.6v-4.6h-0.6V16.6z"/>
		</g>
		<g class="st4">
			<path class="st5" d="M259,158h3.4v-26l-7.2,3.9V131l9.9-5.5h1.9V158h3.5v4H259V158z"/>
			<path class="st5" d="M288.8,162.4c-2.5,0-4.6-0.5-6.4-1.4s-3.1-2.2-4.1-3.9s-1.8-3.6-2.2-5.8s-0.7-4.6-0.7-7.1
				c0-2.7,0.3-5.2,0.9-7.6s1.4-4.2,2.4-5.7s2.3-2.6,3.8-3.6s3.6-1.5,6.3-1.5c2.5,0,4.6,0.4,6.3,1.2s3.1,2,4.1,3.7s1.8,3.6,2.3,6
				s0.7,4.8,0.7,7.4c0,2.5-0.2,4.9-0.7,7.1s-1.2,4.2-2.2,5.8s-2.4,2.9-4.1,3.9S291.4,162.4,288.8,162.4z M288.8,158.3
				c1.8,0,3.3-0.4,4.4-1.1s2-1.8,2.5-3s1-2.8,1.3-4.5s0.4-3.5,0.4-5.5c0-1.9-0.1-3.6-0.3-5.4s-0.6-3.2-1.3-4.5s-1.5-2.4-2.6-3.1
				s-2.6-1.2-4.4-1.2c-1.9,0-3.3,0.4-4.4,1.2s-1.9,1.7-2.4,2.8s-0.9,2.6-1.3,4.5s-0.5,3.8-0.5,5.7c0,1.9,0.1,3.8,0.3,5.5
				s0.6,3.2,1.2,4.5s1.5,2.3,2.6,3S287,158.3,288.8,158.3z"/>
		</g>
		<g class="st4">
			<path class="st5" d="M293.9,233.4c-0.2,0.2-0.5,0.4-0.8,0.5s-0.6,0.2-1,0.2c-0.3,0-0.6,0-0.8-0.1s-0.5-0.2-0.6-0.4
				s-0.3-0.4-0.4-0.6s-0.1-0.4-0.1-0.7c0-0.3,0-0.5,0.1-0.7s0.2-0.4,0.3-0.5s0.3-0.3,0.4-0.4s0.3-0.2,0.5-0.2s0.4-0.1,0.6-0.1
				s0.4,0,0.6,0c0.3,0,0.5,0,0.7,0s0.4,0,0.5,0.1l0-0.5c0-0.2,0-0.4-0.1-0.6s-0.2-0.3-0.3-0.4s-0.2-0.2-0.4-0.2s-0.3-0.1-0.5-0.1
				c-0.2,0-0.4,0-0.5,0s-0.3,0.1-0.5,0.1s-0.3,0.1-0.4,0.1s-0.2,0.1-0.3,0.2l-0.4-0.8c0.1-0.1,0.3-0.2,0.5-0.3s0.4-0.1,0.5-0.2
				s0.4-0.1,0.6-0.1s0.4,0,0.6,0c0.4,0,0.7,0,0.9,0.1s0.5,0.2,0.7,0.4s0.3,0.4,0.5,0.7s0.2,0.6,0.2,1l0,3h0.7v1h-1.8V233.4z
				 M292.4,233.3c0.1,0,0.3,0,0.4-0.1s0.3-0.1,0.4-0.1s0.2-0.1,0.4-0.2s0.2-0.2,0.3-0.2l0-1.4h-1.3c-0.2,0-0.4,0-0.6,0.1
				s-0.3,0.1-0.5,0.2s-0.2,0.2-0.3,0.3s-0.1,0.3-0.1,0.5c0,0.2,0,0.3,0.1,0.4s0.1,0.2,0.2,0.3s0.2,0.1,0.4,0.2
				S292.2,233.3,292.4,233.3z"/>
			<path class="st5" d="M300.9,233h0.9v-2.8c0-0.5-0.1-0.8-0.4-1.1s-0.6-0.4-1-0.4c-0.3,0-0.5,0.1-0.8,0.2s-0.5,0.3-0.7,0.5v3.6h0.9
				v1h-2.8v-1h0.8v-4.1h-0.8v-1h1.9v0.7h0c0.1-0.1,0.3-0.2,0.4-0.3s0.3-0.2,0.5-0.3s0.3-0.1,0.5-0.2s0.4-0.1,0.5-0.1
				c0.3,0,0.6,0,0.9,0.1s0.5,0.2,0.7,0.4s0.3,0.4,0.4,0.7s0.1,0.6,0.1,1v2.9h0.8v1h-2.8V233z"/>
			<path class="st5" d="M304.5,227.9h2.3v1h-0.7l1.4,3.9l1.5-3.9h-0.7v-1h2.3v1h-0.6l-2.7,6.8h0.8v1h-2.4v-1h0.7l0.6-1.7l-2-5.1
				h-0.5V227.9z"/>
			<path class="st5" d="M314.2,227.9h1.9v0.5c0.3-0.2,0.5-0.4,0.8-0.5s0.6-0.2,0.9-0.2c0.4,0,0.8,0.1,1.1,0.2s0.6,0.4,0.9,0.6
				s0.4,0.6,0.6,1s0.2,0.8,0.2,1.3c0,0.5-0.1,0.9-0.2,1.3s-0.4,0.7-0.6,1s-0.6,0.5-0.9,0.7s-0.8,0.2-1.2,0.2c-0.3,0-0.6,0-0.8-0.1
				s-0.5-0.1-0.7-0.2v2h0.9v1h-2.9v-1h0.8v-6.8h-0.8V227.9z M317.6,228.7c-0.3,0-0.6,0.1-0.8,0.2s-0.5,0.3-0.7,0.5v3.3
				c0.1,0.1,0.3,0.3,0.6,0.4s0.5,0.2,0.9,0.2c0.3,0,0.5,0,0.7-0.1s0.4-0.2,0.6-0.4s0.3-0.4,0.4-0.7s0.2-0.6,0.2-1
				c0-0.3,0-0.6-0.1-0.9s-0.2-0.5-0.4-0.7s-0.4-0.3-0.6-0.4S317.9,228.7,317.6,228.7z"/>
			<path class="st5" d="M321.7,224.9h2v8.1h0.9v1h-2.9v-1h0.9v-7.1h-0.9V224.9z"/>
			<path class="st5" d="M329.2,233.4c-0.2,0.2-0.5,0.4-0.8,0.5s-0.6,0.2-1,0.2c-0.3,0-0.6,0-0.8-0.1s-0.5-0.2-0.6-0.4
				s-0.3-0.4-0.4-0.6s-0.1-0.4-0.1-0.7c0-0.3,0-0.5,0.1-0.7s0.2-0.4,0.3-0.5s0.3-0.3,0.4-0.4s0.3-0.2,0.5-0.2s0.4-0.1,0.6-0.1
				s0.4,0,0.6,0c0.3,0,0.5,0,0.7,0s0.4,0,0.5,0.1l0-0.5c0-0.2,0-0.4-0.1-0.6s-0.2-0.3-0.3-0.4s-0.2-0.2-0.4-0.2s-0.3-0.1-0.5-0.1
				c-0.2,0-0.4,0-0.5,0s-0.3,0.1-0.5,0.1s-0.3,0.1-0.4,0.1s-0.2,0.1-0.3,0.2l-0.4-0.8c0.1-0.1,0.3-0.2,0.5-0.3s0.4-0.1,0.5-0.2
				s0.4-0.1,0.6-0.1s0.4,0,0.6,0c0.4,0,0.7,0,0.9,0.1s0.5,0.2,0.7,0.4s0.3,0.4,0.5,0.7s0.2,0.6,0.2,1l0,3h0.7v1h-1.8V233.4z
				 M327.7,233.3c0.1,0,0.3,0,0.4-0.1s0.3-0.1,0.4-0.1s0.2-0.1,0.4-0.2s0.2-0.2,0.3-0.2l0-1.4h-1.3c-0.2,0-0.4,0-0.6,0.1
				s-0.3,0.1-0.5,0.2s-0.2,0.2-0.3,0.3s-0.1,0.3-0.1,0.5c0,0.2,0,0.3,0.1,0.4s0.1,0.2,0.2,0.3s0.2,0.1,0.4,0.2
				S327.5,233.3,327.7,233.3z"/>
			<path class="st5" d="M331.8,227.9h2.3v1h-0.7l1.4,3.9l1.5-3.9h-0.7v-1h2.3v1h-0.6l-2.7,6.8h0.8v1h-2.4v-1h0.7l0.6-1.7l-2-5.1
				h-0.5V227.9z"/>
			<path class="st5" d="M340.1,231.1c0,0.2,0,0.3,0,0.5s0.1,0.3,0.1,0.4c0.1,0.4,0.4,0.7,0.7,0.9s0.7,0.3,1.1,0.3
				c0.3,0,0.6,0,0.9-0.1s0.6-0.2,0.9-0.4l0.4,0.7c-0.4,0.3-0.8,0.5-1.2,0.6s-0.8,0.2-1.3,0.2c-0.4,0-0.8-0.1-1.1-0.2
				s-0.7-0.3-0.9-0.6s-0.4-0.6-0.6-1s-0.2-0.9-0.2-1.4c0-0.4,0.1-0.8,0.2-1.2s0.3-0.7,0.5-1s0.5-0.5,0.9-0.7s0.8-0.3,1.2-0.3
				c0.5,0,0.8,0.1,1.1,0.2s0.6,0.3,0.8,0.6s0.3,0.5,0.4,0.8s0.2,0.6,0.2,0.9c0,0.1,0,0.3,0,0.5s0,0.3,0,0.4H340.1z M341.8,228.7
				c-0.3,0-0.5,0-0.7,0.1s-0.4,0.2-0.5,0.3s-0.2,0.3-0.3,0.5s-0.1,0.4-0.2,0.7h3.1c0-0.2-0.1-0.4-0.1-0.6s-0.1-0.4-0.3-0.5
				s-0.3-0.3-0.5-0.3S342.1,228.7,341.8,228.7z"/>
			<path class="st5" d="M350.3,229.2h-1.1v-0.4c-0.1,0-0.3,0-0.4,0.1s-0.3,0.1-0.4,0.2s-0.2,0.2-0.3,0.4s-0.2,0.3-0.2,0.5v2.9h1v1
				h-3v-1h0.8l0-4.1H346v-1h1.9v0.8c0.1-0.1,0.1-0.2,0.2-0.3s0.2-0.2,0.3-0.3s0.2-0.1,0.4-0.2s0.3-0.1,0.4-0.1c0.2,0,0.4,0,0.6,0
				s0.4,0,0.5,0V229.2z"/>
		</g>
		<line class="st2" x1="279" y1="216" x2="360" y2="216"/>
	</g>
</g>
<g>
	<g>
		<defs>
			<rect id="SVGID_3_" width="180" height="252"/>
		</defs>
		<clipPath id="SVGID_4_">
			<use xlink:href="#SVGID_3_"  style="overflow:visible;"/>
		</clipPath>
		<rect class="st6" width="180" height="252"/>
		<rect class="st7" width="180" height="252"/>
		<rect x="9" y="9" class="st6" width="162" height="234"/>
		<rect x="9" y="9" class="st8" width="162" height="234"/>
		<path class="st9" d="M84,63.8c4.5,0.8,25.6,13.8,29.5,57.7c0,0.1,0.1,0.1,0.1,0.1c3.3-1,8-10.6,3.5-24.8c0-0.1,0.1-0.2,0.1-0.1
			c5.8,6,25.7,29.5,7.8,51v0.1c0.4,1.6,5.2,3.8,8.1-1.8c0-0.1,0.2-0.1,0.2,0c-2.6,70.9-111.4,44.8-81.1-21
			C64.9,101,89.8,116.3,84,63.8C83.9,63.8,83.9,63.8,84,63.8z"/>
		<g class="st10">
			<path class="st5" d="M65.5,27.2h6.6c0.8,0,1.6,0.1,2.3,0.3s1.4,0.5,2.1,0.9s1.2,0.8,1.7,1.4s1,1.1,1.3,1.8s0.6,1.4,0.8,2.1
				s0.3,1.5,0.3,2.3c0,0.8-0.1,1.6-0.3,2.4s-0.5,1.5-0.8,2.1s-0.8,1.3-1.3,1.8s-1.1,1-1.7,1.4s-1.3,0.7-2.1,0.9S72.9,45,72.1,45
				h-6.6v-2h1.7V29.3h-1.7V27.2z M69.5,29.3V43h2.8c0.8,0,1.6-0.2,2.3-0.5s1.4-0.8,1.9-1.5s1-1.4,1.3-2.2s0.5-1.7,0.5-2.7
				c0-1-0.2-1.8-0.5-2.7s-0.7-1.5-1.3-2.2s-1.2-1.1-1.9-1.4s-1.5-0.5-2.3-0.5H69.5z"/>
			<path class="st5" d="M84.7,39.2c0,0.3,0,0.7,0.1,0.9s0.1,0.6,0.2,0.8c0.3,0.8,0.8,1.4,1.4,1.8s1.4,0.6,2.2,0.6
				c0.6,0,1.2-0.1,1.8-0.3s1.2-0.5,1.9-0.8l0.9,1.5c-0.8,0.5-1.6,1-2.4,1.2s-1.6,0.4-2.5,0.4c-0.8,0-1.6-0.1-2.3-0.4
				s-1.3-0.7-1.8-1.2s-0.9-1.2-1.2-2s-0.4-1.7-0.4-2.8c0-0.9,0.1-1.7,0.4-2.5s0.6-1.4,1.1-2s1.1-1,1.8-1.4s1.5-0.5,2.5-0.5
				c0.9,0,1.7,0.1,2.3,0.4s1.1,0.6,1.5,1.1s0.7,1,0.9,1.6s0.3,1.2,0.4,1.8c0,0.3,0.1,0.6,0.1,0.9s0,0.6,0,0.9H84.7z M88.1,34.4
				c-0.5,0-1,0.1-1.3,0.2s-0.7,0.4-1,0.6s-0.5,0.6-0.6,1s-0.3,0.8-0.4,1.3h6.3c0-0.5-0.1-0.9-0.2-1.3s-0.3-0.7-0.5-1
				s-0.5-0.5-0.9-0.7S88.7,34.4,88.1,34.4z"/>
			<path class="st5" d="M103.6,43.9c-0.5,0.4-1,0.8-1.5,1.1s-1.2,0.4-1.9,0.4c-0.6,0-1.1-0.1-1.6-0.3s-0.9-0.4-1.3-0.8
				s-0.6-0.7-0.8-1.1s-0.3-0.9-0.3-1.4c0-0.5,0.1-1,0.2-1.4s0.4-0.7,0.6-1s0.6-0.5,0.9-0.7s0.7-0.4,1.1-0.5s0.8-0.2,1.1-0.3
				s0.8-0.1,1.1-0.1c0.6,0,1,0,1.4,0.1s0.7,0.1,1,0.1l0-1c0-0.4-0.1-0.8-0.2-1.1s-0.3-0.6-0.5-0.8s-0.5-0.4-0.8-0.5
				s-0.7-0.2-1.1-0.2c-0.4,0-0.7,0-1.1,0.1s-0.7,0.1-0.9,0.2s-0.6,0.2-0.8,0.3s-0.5,0.2-0.6,0.3l-0.7-1.5c0.3-0.2,0.6-0.4,0.9-0.5
				s0.7-0.3,1.1-0.4s0.8-0.2,1.2-0.3s0.8-0.1,1.2-0.1c0.7,0,1.3,0.1,1.9,0.3s1,0.4,1.4,0.8s0.7,0.8,0.9,1.3s0.3,1.2,0.3,2l0,6.1h1.3
				v2h-3.5V43.9z M100.6,43.5c0.3,0,0.6,0,0.9-0.1s0.6-0.2,0.8-0.3s0.5-0.3,0.7-0.4s0.4-0.3,0.6-0.5l0-2.7H101c-0.4,0-0.8,0-1.2,0.1
				S99.2,39.8,99,40s-0.5,0.4-0.6,0.7s-0.2,0.6-0.2,0.9c0,0.3,0.1,0.6,0.2,0.8s0.3,0.4,0.5,0.6s0.5,0.3,0.8,0.4
				S100.2,43.5,100.6,43.5z"/>
			<path class="st5" d="M109.5,26.8h3.9V43h1.8v2h-5.8v-2h1.8V28.8h-1.8V26.8z"/>
		</g>
		<g class="st10">
			<path class="st5" d="M67.4,22.5v-1.2c-0.1,0.2-0.2,0.4-0.4,0.5s-0.3,0.3-0.5,0.4s-0.4,0.2-0.6,0.2s-0.4,0.1-0.6,0.1
				c-0.4,0-0.7-0.1-1.1-0.2s-0.6-0.3-0.9-0.6s-0.5-0.6-0.6-1s-0.2-0.8-0.2-1.2c0-0.4,0.1-0.8,0.2-1.2s0.3-0.7,0.6-1s0.6-0.5,0.9-0.7
				s0.7-0.2,1.1-0.2c0.4,0,0.7,0.1,1,0.2s0.5,0.2,0.7,0.4s0.3,0.3,0.5,0.4h0.4v0.7H67c-0.2-0.3-0.4-0.5-0.7-0.7s-0.6-0.3-1-0.3
				c-0.3,0-0.6,0.1-0.8,0.2s-0.5,0.3-0.6,0.5s-0.3,0.5-0.4,0.7s-0.1,0.6-0.1,0.9c0,0.3,0.1,0.7,0.2,1s0.2,0.5,0.4,0.7
				s0.4,0.3,0.6,0.5s0.5,0.2,0.8,0.2c0.5,0,0.9-0.1,1.2-0.4s0.5-0.6,0.7-1.1h-1.7v-0.7h2.5v2.8H67.4z"/>
			<path class="st5" d="M69.4,16.6h2.5c0.3,0,0.5,0,0.7,0.1s0.4,0.2,0.6,0.3s0.3,0.3,0.4,0.5s0.1,0.4,0.1,0.7c0,0.1,0,0.3-0.1,0.4
				s-0.1,0.3-0.2,0.4s-0.2,0.2-0.3,0.3s-0.3,0.2-0.4,0.2c0.1,0,0.1,0.1,0.2,0.1s0.1,0.1,0.2,0.2s0.1,0.2,0.2,0.3s0.1,0.2,0.1,0.3
				l0.3,1.3h0.5l0,0.7H73l-0.4-1.8c-0.1-0.3-0.2-0.6-0.4-0.7s-0.4-0.2-0.7-0.2h-0.8v2.1h0.6v0.7h-1.9v-0.7h0.6v-4.6h-0.6V16.6z
				 M70.7,17.3v1.9h1.1c0.1,0,0.3,0,0.4-0.1s0.2-0.1,0.3-0.2s0.2-0.2,0.2-0.3s0.1-0.3,0.1-0.4c0-0.3-0.1-0.5-0.3-0.7
				s-0.5-0.2-0.8-0.2H70.7z"/>
			<path class="st5" d="M75.1,16.6h4.2v1.7h-0.8v-1h-2.1v1.9h1.8v0.7h-1.8v2h2.1v-1h0.8v1.7h-4.2v-0.7h0.6v-4.6h-0.6V16.6z"/>
			<path class="st5" d="M83.6,21.8h0.5l-0.5-1.3h-2.3l-0.5,1.3h0.6v0.7h-1.9v-0.7h0.5l1.8-5.3h1.2l1.8,5.3h0.6v0.7h-1.9V21.8z
				 M81.6,19.8h1.8l-0.9-2.6L81.6,19.8z"/>
			<path class="st5" d="M87.3,21.8h0.5v-4.6h-1.4v0.9h-0.8v-1.6H91v1.6h-0.8v-0.9h-1.6v4.6h0.6v0.7h-1.9V21.8z"/>
			<path class="st5" d="M96.4,17.7c-0.1-0.1-0.2-0.2-0.3-0.3s-0.2-0.1-0.3-0.1s-0.2,0-0.4,0c-0.2,0-0.4,0-0.5,0.1s-0.3,0.1-0.4,0.2
				s-0.2,0.2-0.2,0.3s-0.1,0.2-0.1,0.3c0,0.2,0,0.3,0.1,0.4s0.1,0.2,0.2,0.3s0.2,0.1,0.3,0.2s0.2,0.1,0.3,0.1l0.8,0.3
				c0.2,0.1,0.4,0.2,0.6,0.3s0.3,0.2,0.5,0.3s0.2,0.3,0.3,0.5s0.1,0.4,0.1,0.6c0,0.2-0.1,0.5-0.2,0.7S97,22,96.9,22.1
				s-0.4,0.3-0.6,0.4s-0.5,0.1-0.8,0.1c-0.3,0-0.6,0-0.8-0.1s-0.4-0.2-0.5-0.3s-0.3-0.2-0.4-0.4s-0.2-0.3-0.2-0.5h-0.3v-0.7h1
				c0,0.3,0,0.5,0.1,0.6s0.1,0.2,0.3,0.3s0.2,0.1,0.4,0.2s0.3,0.1,0.5,0.1c0.2,0,0.3,0,0.5-0.1s0.3-0.1,0.4-0.2s0.2-0.2,0.2-0.3
				s0.1-0.2,0.1-0.4c0-0.2,0-0.3-0.1-0.4s-0.2-0.2-0.3-0.3s-0.2-0.1-0.3-0.2s-0.2-0.1-0.4-0.1l-0.9-0.2c-0.2-0.1-0.4-0.1-0.5-0.2
				s-0.3-0.2-0.4-0.3s-0.2-0.3-0.3-0.4s-0.1-0.4-0.1-0.6c0-0.2,0-0.4,0.1-0.6s0.2-0.4,0.4-0.5s0.4-0.3,0.6-0.3s0.5-0.1,0.9-0.1
				c0.2,0,0.4,0,0.6,0.1s0.3,0.1,0.5,0.2s0.3,0.2,0.4,0.3s0.2,0.3,0.3,0.4h0.3v0.7h-1C96.5,18,96.5,17.8,96.4,17.7z"/>
			<path class="st5" d="M98.2,16.6h2.4c0.3,0,0.5,0,0.7,0.1s0.4,0.2,0.6,0.3s0.3,0.3,0.4,0.5s0.1,0.4,0.1,0.7c0,0.2,0,0.4-0.1,0.6
				s-0.2,0.4-0.4,0.5s-0.4,0.3-0.6,0.3s-0.5,0.1-0.8,0.1h-1.1v2.1h0.6v0.7h-1.9v-0.7h0.6v-4.6h-0.6V16.6z M99.5,17.3v1.9h1.1
				c0.1,0,0.3,0,0.4-0.1s0.2-0.1,0.3-0.2s0.2-0.2,0.2-0.3s0.1-0.3,0.1-0.4c0-0.3-0.1-0.5-0.3-0.7s-0.5-0.2-0.8-0.2H99.5z"/>
			<path class="st5" d="M103.2,16.6h4.2v1.7h-0.8v-1h-2.1v1.9h1.8v0.7h-1.8v2h2.1v-1h0.8v1.7h-4.2v-0.7h0.6v-4.6h-0.6V16.6z"/>
			<path class="st5" d="M108.2,16.6h1.9v0.7h-0.6v4.6h2c0,0,0.1,0,0.1,0s0.1,0,0.1-0.1s0.1-0.1,0.1-0.1s0-0.1,0-0.1v-0.7h0.7v1.8
				h-4.5v-0.7h0.6v-4.6h-0.6V16.6z"/>
			<path class="st5" d="M113.3,16.6h1.9v0.7h-0.6v4.6h2c0,0,0.1,0,0.1,0s0.1,0,0.1-0.1s0.1-0.1,0.1-0.1s0-0.1,0-0.1v-0.7h0.7v1.8
				h-4.5v-0.7h0.6v-4.6h-0.6V16.6z"/>
		</g>
		<g class="st10">
			<path class="st5" d="M70,158h3.4v-26l-7.2,3.9V131l9.9-5.5H78V158h3.5v4H70V158z"/>
			<path class="st5" d="M99.8,162.4c-2.5,0-4.6-0.5-6.4-1.4s-3.1-2.2-4.1-3.9s-1.8-3.6-2.2-5.8s-0.7-4.6-0.7-7.1
				c0-2.7,0.3-5.2,0.9-7.6s1.4-4.2,2.4-5.7s2.3-2.6,3.8-3.6s3.6-1.5,6.3-1.5c2.5,0,4.6,0.4,6.3,1.2s3.1,2,4.1,3.7s1.8,3.6,2.3,6
				s0.7,4.8,0.7,7.4c0,2.5-0.2,4.9-0.7,7.1s-1.2,4.2-2.2,5.8s-2.4,2.9-4.1,3.9S102.4,162.4,99.8,162.4z M99.8,158.3
				c1.8,0,3.3-0.4,4.4-1.1s2-1.8,2.5-3s1-2.8,1.3-4.5s0.4-3.5,0.4-5.5c0-1.9-0.1-3.6-0.3-5.4s-0.6-3.2-1.3-4.5s-1.5-2.4-2.6-3.1
				s-2.6-1.2-4.4-1.2c-1.9,0-3.3,0.4-4.4,1.2s-1.9,1.7-2.4,2.8s-0.9,2.6-1.3,4.5s-0.5,3.8-0.5,5.7c0,1.9,0.1,3.8,0.3,5.5
				s0.6,3.2,1.2,4.5s1.5,2.3,2.6,3S98,158.3,99.8,158.3z"/>
		</g>
		<g class="st10">
			<path class="st5" d="M104.9,233.4c-0.2,0.2-0.5,0.4-0.8,0.5s-0.6,0.2-1,0.2c-0.3,0-0.6,0-0.8-0.1s-0.5-0.2-0.6-0.4
				s-0.3-0.4-0.4-0.6s-0.1-0.4-0.1-0.7c0-0.3,0-0.5,0.1-0.7s0.2-0.4,0.3-0.5s0.3-0.3,0.4-0.4s0.3-0.2,0.5-0.2s0.4-0.1,0.6-0.1
				s0.4,0,0.6,0c0.3,0,0.5,0,0.7,0s0.4,0,0.5,0.1l0-0.5c0-0.2,0-0.4-0.1-0.6s-0.2-0.3-0.3-0.4s-0.2-0.2-0.4-0.2s-0.3-0.1-0.5-0.1
				c-0.2,0-0.4,0-0.5,0s-0.3,0.1-0.5,0.1s-0.3,0.1-0.4,0.1s-0.2,0.1-0.3,0.2l-0.4-0.8c0.1-0.1,0.3-0.2,0.5-0.3s0.4-0.1,0.5-0.2
				s0.4-0.1,0.6-0.1s0.4,0,0.6,0c0.4,0,0.7,0,0.9,0.1s0.5,0.2,0.7,0.4s0.3,0.4,0.5,0.7s0.2,0.6,0.2,1l0,3h0.7v1h-1.8V233.4z
				 M103.4,233.3c0.1,0,0.3,0,0.4-0.1s0.3-0.1,0.4-0.1s0.2-0.1,0.4-0.2s0.2-0.2,0.3-0.2l0-1.4h-1.3c-0.2,0-0.4,0-0.6,0.1
				s-0.3,0.1-0.5,0.2s-0.2,0.2-0.3,0.3s-0.1,0.3-0.1,0.5c0,0.2,0,0.3,0.1,0.4s0.1,0.2,0.2,0.3s0.2,0.1,0.4,0.2
				S103.2,233.3,103.4,233.3z"/>
			<path class="st5" d="M111.9,233h0.9v-2.8c0-0.5-0.1-0.8-0.4-1.1s-0.6-0.4-1-0.4c-0.3,0-0.5,0.1-0.8,0.2s-0.5,0.3-0.7,0.5v3.6h0.9
				v1h-2.8v-1h0.8v-4.1h-0.8v-1h1.9v0.7h0c0.1-0.1,0.3-0.2,0.4-0.3s0.3-0.2,0.5-0.3s0.3-0.1,0.5-0.2s0.4-0.1,0.5-0.1
				c0.3,0,0.6,0,0.9,0.1s0.5,0.2,0.7,0.4s0.3,0.4,0.4,0.7s0.1,0.6,0.1,1v2.9h0.8v1h-2.8V233z"/>
			<path class="st5" d="M115.5,227.9h2.3v1h-0.7l1.4,3.9l1.5-3.9h-0.7v-1h2.3v1h-0.6l-2.7,6.8h0.8v1h-2.4v-1h0.7l0.6-1.7l-2-5.1
				h-0.5V227.9z"/>
			<path class="st5" d="M125.2,227.9h1.9v0.5c0.3-0.2,0.5-0.4,0.8-0.5s0.6-0.2,0.9-0.2c0.4,0,0.8,0.1,1.1,0.2s0.6,0.4,0.9,0.6
				s0.4,0.6,0.6,1s0.2,0.8,0.2,1.3c0,0.5-0.1,0.9-0.2,1.3s-0.4,0.7-0.6,1s-0.6,0.5-0.9,0.7s-0.8,0.2-1.2,0.2c-0.3,0-0.6,0-0.8-0.1
				s-0.5-0.1-0.7-0.2v2h0.9v1h-2.9v-1h0.8v-6.8h-0.8V227.9z M128.6,228.7c-0.3,0-0.6,0.1-0.8,0.2s-0.5,0.3-0.7,0.5v3.3
				c0.1,0.1,0.3,0.3,0.6,0.4s0.5,0.2,0.9,0.2c0.3,0,0.5,0,0.7-0.1s0.4-0.2,0.6-0.4s0.3-0.4,0.4-0.7s0.2-0.6,0.2-1
				c0-0.3,0-0.6-0.1-0.9s-0.2-0.5-0.4-0.7s-0.4-0.3-0.6-0.4S128.9,228.7,128.6,228.7z"/>
			<path class="st5" d="M132.7,224.9h2v8.1h0.9v1h-2.9v-1h0.9v-7.1h-0.9V224.9z"/>
			<path class="st5" d="M140.2,233.4c-0.2,0.2-0.5,0.4-0.8,0.5s-0.6,0.2-1,0.2c-0.3,0-0.6,0-0.8-0.1s-0.5-0.2-0.6-0.4
				s-0.3-0.4-0.4-0.6s-0.1-0.4-0.1-0.7c0-0.3,0-0.5,0.1-0.7s0.2-0.4,0.3-0.5s0.3-0.3,0.4-0.4s0.3-0.2,0.5-0.2s0.4-0.1,0.6-0.1
				s0.4,0,0.6,0c0.3,0,0.5,0,0.7,0s0.4,0,0.5,0.1l0-0.5c0-0.2,0-0.4-0.1-0.6s-0.2-0.3-0.3-0.4s-0.2-0.2-0.4-0.2s-0.3-0.1-0.5-0.1
				c-0.2,0-0.4,0-0.5,0s-0.3,0.1-0.5,0.1s-0.3,0.1-0.4,0.1s-0.2,0.1-0.3,0.2l-0.4-0.8c0.1-0.1,0.3-0.2,0.5-0.3s0.4-0.1,0.5-0.2
				s0.4-0.1,0.6-0.1s0.4,0,0.6,0c0.4,0,0.7,0,0.9,0.1s0.5,0.2,0.7,0.4s0.3,0.4,0.5,0.7s0.2,0.6,0.2,1l0,3h0.7v1h-1.8V233.4z
				 M138.7,233.3c0.1,0,0.3,0,0.4-0.1s0.3-0.1,0.4-0.1s0.2-0.1,0.4-0.2s0.2-0.2,0.3-0.2l0-1.4h-1.3c-0.2,0-0.4,0-0.6,0.1
				s-0.3,0.1-0.5,0.2s-0.2,0.2-0.3,0.3s-0.1,0.3-0.1,0.5c0,0.2,0,0.3,0.1,0.4s0.1,0.2,0.2,0.3s0.2,0.1,0.4,0.2
				S138.5,233.3,138.7,233.3z"/>
			<path class="st5" d="M142.8,227.9h2.3v1h-0.7l1.4,3.9l1.5-3.9h-0.7v-1h2.3v1h-0.6l-2.7,6.8h0.8v1h-2.4v-1h0.7l0.6-1.7l-2-5.1
				h-0.5V227.9z"/>
			<path class="st5" d="M151.1,231.1c0,0.2,0,0.3,0,0.5s0.1,0.3,0.1,0.4c0.1,0.4,0.4,0.7,0.7,0.9s0.7,0.3,1.1,0.3
				c0.3,0,0.6,0,0.9-0.1s0.6-0.2,0.9-0.4l0.4,0.7c-0.4,0.3-0.8,0.5-1.2,0.6s-0.8,0.2-1.3,0.2c-0.4,0-0.8-0.1-1.1-0.2
				s-0.7-0.3-0.9-0.6s-0.4-0.6-0.6-1s-0.2-0.9-0.2-1.4c0-0.4,0.1-0.8,0.2-1.2s0.3-0.7,0.5-1s0.5-0.5,0.9-0.7s0.8-0.3,1.2-0.3
				c0.5,0,0.8,0.1,1.1,0.2s0.6,0.3,0.8,0.6s0.3,0.5,0.4,0.8s0.2,0.6,0.2,0.9c0,0.1,0,0.3,0,0.5s0,0.3,0,0.4H151.1z M152.8,228.7
				c-0.3,0-0.5,0-0.7,0.1s-0.4,0.2-0.5,0.3s-0.2,0.3-0.3,0.5s-0.1,0.4-0.2,0.7h3.1c0-0.2-0.1-0.4-0.1-0.6s-0.1-0.4-0.3-0.5
				s-0.3-0.3-0.5-0.3S153.1,228.7,152.8,228.7z"/>
			<path class="st5" d="M161.3,229.2h-1.1v-0.4c-0.1,0-0.3,0-0.4,0.1s-0.3,0.1-0.4,0.2s-0.2,0.2-0.3,0.4s-0.2,0.3-0.2,0.5v2.9h1v1
				h-3v-1h0.8l0-4.1H157v-1h1.9v0.8c0.1-0.1,0.1-0.2,0.2-0.3s0.2-0.2,0.3-0.3s0.2-0.1,0.4-0.2s0.3-0.1,0.4-0.1c0.2,0,0.4,0,0.6,0
				s0.4,0,0.5,0V229.2z"/>
		</g>
		<line class="st8" x1="90" y1="216" x2="171" y2="216"/>
	</g>
</g>
<g>
</g>
<g>
</g>
<g>
</g>
<g>
</g>
<g>
</g>
<g>
</g>
</svg>
