<svg xmlns="http://www.w3.org/2000/svg" 
 viewBox="0 0 371.7 371.7" style="enable-background:new 0 0 371.7 371.7;" xml:space="preserve">
<style type="text/css">
.st0{stroke:#FFF;stroke-width:0.5625;}
.st1{fill:#FFF;stroke:#000;stroke-width:2;}
.st2{stroke:#FFF;stroke-width:1.125;}
.st4{fill:#FFF;}
.st5{fill:none;stroke:#FFF;stroke-width:1.5;}
.st8{fill:#ED1B32;}
.st9{fill:none;stroke:#CE7B2D;stroke-width:1.125;}
.st11{fill:#1D439C;}
.st12{fill:none;stroke:#FFF;stroke-width:0.5625;stroke-linecap:round;stroke-linejoin:round;}
.st14{fill:#231F20;stroke:#FFF;stroke-width:0.5625;stroke-linecap:round;stroke-linejoin:round;}
.st17{fill:none;stroke:#FFF;stroke-width:1.125;}
.st18{fill:none;stroke:#FFF;stroke-width:1.125;stroke-linecap:round;stroke-linejoin:round;}
</style>
<rect x="0" y="0" width="371.7" height="371.7"/>
	<rect x="95.8" y="95.8" class="st0" width="180" height="180"/>
	<rect x="122.8" y="113.8" class="st1" width="45" height="63"/>
	<rect x="203.8" y="113.8" class="st2" width="45" height="63"/>
	<rect x="122.8" y="194.8" class="st1" width="45" height="63"/>
	<rect x="203.8" y="194.8" class="st1" width="45" height="63"/>
		<path class="st4" d="M150.9,267.5h3.7v5c-0.6,0.2-1.2,0.3-1.7,0.4s-1.2,0.1-1.8,0.1c-1.5,0-2.7-0.4-3.5-1.3s-1.2-2.2-1.2-3.8
			c0-1.6,0.5-2.9,1.4-3.8c0.9-0.9,2.2-1.4,3.8-1.4c1,0,2,0.2,3,0.6l-0.6,1.4c-0.8-0.4-1.6-0.6-2.4-0.6c-1.1,0-1.9,0.3-2.5,1
			c-0.6,0.7-0.9,1.6-0.9,2.7c0,1.2,0.3,2.1,0.8,2.8c0.6,0.6,1.4,1,2.4,1c0.5,0,1.1-0.1,1.7-0.2v-2.6h-2.1V267.5z"/>
		<path class="st4" d="M160.7,265.3c0.3,0,0.6,0,0.8,0.1l-0.2,1.5c-0.2-0.1-0.5-0.1-0.7-0.1c-0.6,0-1.2,0.2-1.6,0.6
			c-0.4,0.4-0.6,1-0.6,1.6v4h-1.6v-7.6h1.3l0.2,1.3h0.1c0.3-0.5,0.6-0.8,1-1.1C159.8,265.4,160.2,265.3,160.7,265.3z"/>
		<path class="st4" d="M166.2,273.1c-1.2,0-2.1-0.3-2.8-1c-0.7-0.7-1-1.6-1-2.8c0-1.2,0.3-2.2,0.9-2.9c0.6-0.7,1.5-1.1,2.5-1.1
			c1,0,1.8,0.3,2.4,0.9c0.6,0.6,0.9,1.4,0.9,2.5v0.9h-5c0,0.7,0.2,1.3,0.6,1.7c0.4,0.4,0.9,0.6,1.6,0.6c0.4,0,0.9,0,1.2-0.1
			c0.4-0.1,0.8-0.2,1.2-0.4v1.3c-0.4,0.2-0.8,0.3-1.2,0.4C167.1,273.1,166.7,273.1,166.2,273.1z M165.9,266.5
			c-0.5,0-0.9,0.2-1.2,0.5c-0.3,0.3-0.5,0.8-0.6,1.4h3.4c0-0.6-0.2-1.1-0.5-1.4C166.8,266.6,166.4,266.5,165.9,266.5z"/>
		<path class="st4" d="M175.7,273l-0.3-1.1h-0.1c-0.4,0.5-0.7,0.8-1.1,0.9c-0.4,0.2-0.8,0.3-1.4,0.3c-0.7,0-1.3-0.2-1.7-0.6
			c-0.4-0.4-0.6-1-0.6-1.7c0-0.8,0.3-1.4,0.9-1.8c0.6-0.4,1.5-0.6,2.6-0.6l1.3,0v-0.4c0-0.5-0.1-0.8-0.3-1.1s-0.6-0.4-1-0.4
			c-0.4,0-0.8,0.1-1.1,0.2c-0.4,0.1-0.7,0.2-1,0.4l-0.5-1.1c0.4-0.2,0.9-0.4,1.3-0.5c0.5-0.1,0.9-0.2,1.4-0.2c1,0,1.7,0.2,2.2,0.6
			c0.5,0.4,0.7,1.1,0.7,2v5.1H175.7z M173.3,271.9c0.6,0,1.1-0.2,1.4-0.5c0.4-0.3,0.5-0.8,0.5-1.4v-0.7l-1,0
			c-0.8,0-1.3,0.2-1.7,0.4c-0.3,0.2-0.5,0.6-0.5,1c0,0.3,0.1,0.6,0.3,0.8C172.6,271.8,172.9,271.9,173.3,271.9z"/>
		<path class="st4" d="M181.9,271.8c0.4,0,0.8-0.1,1.2-0.2v1.2c-0.2,0.1-0.4,0.1-0.7,0.2c-0.3,0.1-0.6,0.1-0.9,0.1
			c-1.5,0-2.3-0.8-2.3-2.4v-4.1h-1v-0.7l1.1-0.6l0.5-1.6h1v1.7h2.2v1.2h-2.2v4c0,0.4,0.1,0.7,0.3,0.9
			C181.3,271.7,181.5,271.8,181.9,271.8z"/>
		<path class="st4" d="M194.1,270.3c0,0.9-0.3,1.6-1,2.1s-1.5,0.8-2.7,0.8c-1.1,0-2.1-0.2-2.8-0.5V271c0.5,0.2,0.9,0.4,1.5,0.5
			s1,0.2,1.4,0.2c0.6,0,1.1-0.1,1.4-0.4s0.5-0.6,0.5-1c0-0.4-0.1-0.7-0.4-1c-0.3-0.3-0.9-0.6-1.8-0.9c-0.9-0.4-1.6-0.8-1.9-1.3
			c-0.4-0.5-0.6-1-0.6-1.7c0-0.8,0.3-1.5,0.9-2c0.6-0.5,1.4-0.7,2.4-0.7c1,0,1.9,0.2,2.9,0.6l-0.5,1.3c-0.9-0.4-1.7-0.6-2.4-0.6
			c-0.5,0-0.9,0.1-1.2,0.3c-0.3,0.2-0.4,0.5-0.4,0.9c0,0.3,0.1,0.5,0.2,0.7s0.3,0.4,0.5,0.5c0.3,0.2,0.7,0.4,1.4,0.6
			c0.7,0.3,1.3,0.6,1.6,0.9c0.3,0.3,0.6,0.6,0.8,0.9C194,269.4,194.1,269.8,194.1,270.3z"/>
		<path class="st4" d="M199.7,273.1c-1,0-1.7-0.3-2.2-1h-0.1c0.1,0.6,0.1,1,0.1,1.2v3.1h-1.6v-10.9h1.3c0,0.1,0.1,0.5,0.2,1h0.1
			c0.5-0.8,1.3-1.1,2.3-1.1c0.9,0,1.7,0.3,2.2,1s0.8,1.6,0.8,2.9c0,1.2-0.3,2.2-0.8,2.9C201.4,272.8,200.7,273.1,199.7,273.1z
			 M199.3,266.6c-0.6,0-1.1,0.2-1.4,0.6c-0.3,0.4-0.4,1-0.4,1.8v0.2c0,0.9,0.1,1.6,0.4,2c0.3,0.4,0.8,0.6,1.4,0.6
			c0.6,0,1-0.2,1.3-0.7c0.3-0.5,0.5-1.1,0.5-1.9c0-0.8-0.1-1.5-0.4-1.9C200.3,266.8,199.9,266.6,199.3,266.6z"/>
		<path class="st4" d="M207.9,273.1c-1.2,0-2.1-0.3-2.8-1c-0.7-0.7-1-1.6-1-2.8c0-1.2,0.3-2.2,0.9-2.9c0.6-0.7,1.5-1.1,2.5-1.1
			c1,0,1.8,0.3,2.4,0.9c0.6,0.6,0.9,1.4,0.9,2.5v0.9h-5c0,0.7,0.2,1.3,0.6,1.7c0.4,0.4,0.9,0.6,1.6,0.6c0.4,0,0.9,0,1.2-0.1
			c0.4-0.1,0.8-0.2,1.2-0.4v1.3c-0.4,0.2-0.8,0.3-1.2,0.4C208.9,273.1,208.4,273.1,207.9,273.1z M207.6,266.5
			c-0.5,0-0.9,0.2-1.2,0.5c-0.3,0.3-0.5,0.8-0.6,1.4h3.4c0-0.6-0.2-1.1-0.5-1.4C208.5,266.6,208.1,266.5,207.6,266.5z"/>
		<path class="st4" d="M214.3,273h-1.6v-10.6h1.6V273z"/>
		<path class="st4" d="M218.2,273h-1.6v-10.6h1.6V273z"/>
		<path class="st4" d="M225.6,270.8c0,0.7-0.3,1.3-0.8,1.7c-0.5,0.4-1.3,0.6-2.3,0.6c-1,0-1.8-0.2-2.4-0.5v-1.4
			c0.9,0.4,1.7,0.6,2.5,0.6c1,0,1.5-0.3,1.5-0.9c0-0.2-0.1-0.4-0.2-0.5c-0.1-0.1-0.3-0.3-0.5-0.4c-0.3-0.1-0.6-0.3-1-0.5
			c-0.9-0.3-1.5-0.7-1.8-1c-0.3-0.3-0.5-0.8-0.5-1.3c0-0.6,0.3-1.1,0.8-1.5c0.5-0.4,1.2-0.5,2.1-0.5c0.9,0,1.7,0.2,2.5,0.5
			l-0.5,1.2c-0.8-0.3-1.5-0.5-2.1-0.5c-0.8,0-1.3,0.2-1.3,0.7c0,0.2,0.1,0.4,0.3,0.6c0.2,0.2,0.7,0.4,1.4,0.7
			c0.6,0.2,1.1,0.5,1.4,0.7c0.3,0.2,0.5,0.4,0.6,0.7C225.5,270.1,225.6,270.5,225.6,270.8z"/>
		<path class="st4" d="M138.1,105.9c0,1.6-0.5,2.9-1.4,3.8c-0.9,0.9-2.2,1.3-4,1.3H130v-10h3.1c1.6,0,2.8,0.4,3.7,1.3
			C137.7,103.1,138.1,104.3,138.1,105.9z M136.4,105.9c0-2.4-1.1-3.6-3.4-3.6h-1.4v7.3h1.2C135.2,109.6,136.4,108.4,136.4,105.9z"
			/>
		<path class="st4" d="M143.4,111.1c-1.2,0-2.1-0.3-2.8-1c-0.7-0.7-1-1.6-1-2.8c0-1.2,0.3-2.2,0.9-2.9c0.6-0.7,1.5-1.1,2.5-1.1
			c1,0,1.8,0.3,2.4,0.9c0.6,0.6,0.9,1.4,0.9,2.5v0.9h-5c0,0.7,0.2,1.3,0.6,1.7c0.4,0.4,0.9,0.6,1.6,0.6c0.4,0,0.9,0,1.2-0.1
			c0.4-0.1,0.8-0.2,1.2-0.4v1.3c-0.4,0.2-0.8,0.3-1.2,0.4C144.4,111.1,143.9,111.1,143.4,111.1z M143.1,104.5
			c-0.5,0-0.9,0.2-1.2,0.5c-0.3,0.3-0.5,0.8-0.6,1.4h3.4c0-0.6-0.2-1.1-0.5-1.4C144,104.6,143.6,104.5,143.1,104.5z"/>
		<path class="st4" d="M151.2,111.1c-1.1,0-2-0.3-2.6-1c-0.6-0.7-0.9-1.6-0.9-2.9c0-1.3,0.3-2.2,0.9-2.9c0.6-0.7,1.5-1,2.7-1
			c0.8,0,1.5,0.1,2.2,0.4L153,105c-0.7-0.3-1.2-0.4-1.7-0.4c-1.3,0-2,0.9-2,2.6c0,0.8,0.2,1.5,0.5,1.9c0.3,0.4,0.8,0.6,1.4,0.6
			c0.7,0,1.4-0.2,2-0.5v1.4c-0.3,0.2-0.6,0.3-0.9,0.4C152.1,111.1,151.7,111.1,151.2,111.1z"/>
		<path class="st4" d="M156.7,107l0.9-1.1l2.3-2.4h1.9l-3,3.2l3.2,4.3H160l-2.4-3.3l-0.9,0.7v2.6h-1.6v-10.6h1.6v5.2L156.7,107
			L156.7,107z"/>
		<path class="st4" d="M210.4,105.9c0,1.6-0.5,2.9-1.4,3.8c-0.9,0.9-2.2,1.3-4,1.3h-2.8v-10h3.1c1.6,0,2.8,0.4,3.7,1.3
			C209.9,103.1,210.4,104.3,210.4,105.9z M208.7,105.9c0-2.4-1.1-3.6-3.4-3.6h-1.4v7.3h1.2C207.4,109.6,208.7,108.4,208.7,105.9z"
			/>
		<path class="st4" d="M212.3,101.4c0-0.3,0.1-0.5,0.2-0.7c0.2-0.2,0.4-0.2,0.7-0.2c0.3,0,0.5,0.1,0.7,0.2c0.2,0.2,0.2,0.4,0.2,0.7
			c0,0.3-0.1,0.5-0.2,0.6s-0.4,0.2-0.7,0.2c-0.3,0-0.5-0.1-0.7-0.2S212.3,101.7,212.3,101.4z M214,111h-1.6v-7.6h1.6V111z"/>
		<path class="st4" d="M221.3,108.8c0,0.7-0.3,1.3-0.8,1.7c-0.5,0.4-1.3,0.6-2.3,0.6c-1,0-1.8-0.2-2.4-0.5v-1.4
			c0.9,0.4,1.7,0.6,2.5,0.6c1,0,1.5-0.3,1.5-0.9c0-0.2-0.1-0.4-0.2-0.5c-0.1-0.1-0.3-0.3-0.5-0.4c-0.3-0.1-0.6-0.3-1-0.5
			c-0.9-0.3-1.5-0.7-1.8-1c-0.3-0.3-0.5-0.8-0.5-1.3c0-0.6,0.3-1.1,0.8-1.5c0.5-0.4,1.2-0.5,2.1-0.5c0.9,0,1.7,0.2,2.5,0.5
			l-0.5,1.2c-0.8-0.3-1.5-0.5-2.1-0.5c-0.8,0-1.3,0.2-1.3,0.7c0,0.2,0.1,0.4,0.3,0.6c0.2,0.2,0.7,0.4,1.4,0.7
			c0.6,0.2,1.1,0.5,1.4,0.7c0.3,0.2,0.5,0.4,0.6,0.7C221.3,108.1,221.3,108.5,221.3,108.8z"/>
		<path class="st4" d="M226.1,111.1c-1.1,0-2-0.3-2.6-1c-0.6-0.7-0.9-1.6-0.9-2.9c0-1.3,0.3-2.2,0.9-2.9s1.5-1,2.7-1
			c0.8,0,1.5,0.1,2.2,0.4l-0.5,1.3c-0.7-0.3-1.2-0.4-1.7-0.4c-1.3,0-2,0.9-2,2.6c0,0.8,0.2,1.5,0.5,1.9c0.3,0.4,0.8,0.6,1.4,0.6
			c0.7,0,1.4-0.2,2-0.5v1.4c-0.3,0.2-0.6,0.3-0.9,0.4C227,111.1,226.6,111.1,226.1,111.1z"/>
		<path class="st4" d="M234.7,111l-0.3-1.1h-0.1c-0.4,0.5-0.7,0.8-1.1,0.9c-0.4,0.2-0.8,0.3-1.4,0.3c-0.7,0-1.3-0.2-1.7-0.6
			c-0.4-0.4-0.6-1-0.6-1.7c0-0.8,0.3-1.4,0.9-1.8s1.5-0.6,2.6-0.6l1.3,0v-0.4c0-0.5-0.1-0.8-0.3-1.1c-0.2-0.2-0.6-0.4-1-0.4
			c-0.4,0-0.8,0.1-1.1,0.2c-0.4,0.1-0.7,0.2-1,0.4l-0.5-1.1c0.4-0.2,0.9-0.4,1.3-0.5c0.5-0.1,0.9-0.2,1.4-0.2c1,0,1.7,0.2,2.2,0.6
			c0.5,0.4,0.7,1.1,0.7,2v5.1H234.7z M232.3,109.9c0.6,0,1.1-0.2,1.4-0.5c0.4-0.3,0.5-0.8,0.5-1.4v-0.7l-1,0
			c-0.8,0-1.3,0.2-1.7,0.4c-0.3,0.2-0.5,0.6-0.5,1c0,0.3,0.1,0.6,0.3,0.8S231.9,109.9,232.3,109.9z"/>
		<path class="st4" d="M242,103.3c0.3,0,0.6,0,0.8,0.1l-0.2,1.5c-0.2-0.1-0.5-0.1-0.7-0.1c-0.6,0-1.2,0.2-1.6,0.6
			c-0.4,0.4-0.6,1-0.6,1.6v4h-1.6v-7.6h1.3l0.2,1.3h0.1c0.3-0.5,0.6-0.8,1-1.1C241.1,103.4,241.5,103.3,242,103.3z"/>
		<path class="st4" d="M246.7,111.1c-0.9,0-1.7-0.3-2.2-1s-0.8-1.6-0.8-2.9c0-1.2,0.3-2.2,0.8-2.9c0.5-0.7,1.3-1,2.2-1
			c1,0,1.8,0.4,2.3,1.1h0.1c-0.1-0.5-0.1-1-0.1-1.3v-2.8h1.6V111h-1.3l-0.3-1H249C248.5,110.7,247.7,111.1,246.7,111.1z
			 M247.1,109.8c0.7,0,1.1-0.2,1.4-0.6c0.3-0.4,0.5-1,0.5-1.8v-0.2c0-1-0.2-1.6-0.5-2c-0.3-0.4-0.8-0.6-1.5-0.6
			c-0.6,0-1,0.2-1.3,0.7s-0.5,1.1-0.5,2c0,0.8,0.1,1.5,0.4,1.9C246.1,109.6,246.5,109.8,247.1,109.8z"/>
		
			<rect x="162.6" y="300.9" transform="matrix(0.9659 -0.2588 0.2588 0.9659 -79.7146 59.2228)" class="st2" width="45" height="63"/>
		<rect x="162.6" y="300.9" class="st2" width="45" height="63"/>
		
			<rect x="162.6" y="300.9" transform="matrix(0.9659 0.2588 -0.2588 0.9659 92.3264 -36.5732)" class="st2" width="45" height="63"/>
		<rect x="162.6" y="300.9" transform="matrix(0.866 0.5 -0.5 0.866 190.9727 -48.0043)" class="st2" width="45" height="63"/>
		
			<rect x="309.9" y="155.1" transform="matrix(-0.2588 -0.9659 0.9659 -0.2588 238.1439 555.9191)" class="st2" width="45" height="63"/>
		
			<rect x="309.9" y="155.1" transform="matrix(4.486906e-11 -1 1 4.486906e-11 145.7654 518.9502)" class="st2" width="45" height="63"/>
		
			<rect x="309.9" y="155.1" transform="matrix(0.2588 -0.9659 0.9659 0.2588 66.1028 459.3317)" class="st2" width="45" height="63"/>
		<rect x="309.9" y="155.1" transform="matrix(0.5 -0.866 0.866 0.5 4.5851 381.1265)" class="st2" width="45" height="63"/>
		
			<rect x="16.8" y="153.6" transform="matrix(0.2588 0.9659 -0.9659 0.2588 207.8848 99.2065)" class="st2" width="45" height="63"/>
		
			<rect x="16.8" y="153.6" transform="matrix(-1.346658e-10 1 -1 -1.346658e-10 224.3618 145.7654)" class="st2" width="45" height="63"/>
		
			<rect x="16.8" y="153.6" transform="matrix(-0.2588 0.9659 -0.9659 -0.2588 228.227 195.0024)" class="st2" width="45" height="63"/>
		<rect x="16.8" y="153.6" transform="matrix(-0.5 0.866 -0.866 -0.5 219.217 243.5621)" class="st2" width="45" height="63"/>
		
			<rect x="164.1" y="7.8" transform="matrix(-0.9659 0.2588 -0.2588 -0.9659 376.998 28.9637)" class="st2" width="45" height="63"/>
		
			<rect x="164.1" y="7.8" transform="matrix(-1 -1.346458e-10 1.346458e-10 -1 373.1848 78.5964)" class="st2" width="45" height="63"/>
		
			<rect x="164.1" y="7.8" transform="matrix(-0.9659 -0.2588 0.2588 -0.9659 356.6557 125.551)" class="st2" width="45" height="63"/>
		<rect x="164.1" y="7.8" transform="matrix(-0.866 -0.5 0.5 -0.866 328.5371 166.6276)" class="st2" width="45" height="63"/>
		<rect x="122.8" y="113.8" width="45" height="63"/>
		<rect x="125.1" y="116.1" class="st5" width="40.5" height="58.5"/>
			<rect x="122.8" y="194.8" class="st6" width="45" height="63"/>
			<path class="st8" d="M143.8,210.8c1.1,0.2,6.4,3.5,7.4,14.4c0,0,0,0,0,0c0.8-0.2,2-2.7,0.9-6.2c0,0,0,0,0,0
				c1.4,1.5,6.4,7.4,1.9,12.8v0c0.1,0.4,1.3,0.9,2-0.4c0,0,0,0,0,0c-0.6,17.7-27.9,11.2-20.3-5.2
				C139.1,220.1,145.3,223.9,143.8,210.8C143.8,210.8,143.8,210.8,143.8,210.8z"/>
			<rect x="125.1" y="197.1" class="st9" width="40.5" height="58.5"/>
			<line class="st9" x1="165.6" y1="248.8" x2="145.3" y2="248.8"/>
		<rect x="203.8" y="194.8" class="st6" width="45" height="63"/>
		<path class="st11" d="M210.6,242.1h31.5c-12.5-3.5-8.9-28.1-3-17.7C239.1,224.3,240,193,210.6,242.1z"/>
			<rect x="206.1" y="197.1" class="st9" width="40.5" height="58.5"/>
			<line class="st9" x1="246.6" y1="248.8" x2="226.3" y2="248.8"/>
			<rect x="122.8" y="113.8" width="45" height="63"/>
			<ellipse class="st12" cx="145.3" cy="143.1" rx="6.8" ry="20.3"/>
			<ellipse transform="matrix(0.866 -0.5 0.5 0.866 -52.068 91.8355)" class="st12" cx="145.3" cy="143.1" rx="20.3" ry="6.8"/>
			<ellipse transform="matrix(0.5 -0.866 0.866 0.5 -51.2425 197.4014)" class="st12" cx="145.3" cy="143.1" rx="6.8" ry="20.3"/>
			<circle cx="145.3" cy="143.1" r="9"/>
			<circle class="st14" cx="133.6" cy="131.6" r="1.1"/>
			<circle class="st14" cx="161.2" cy="138.7" r="1.1"/>
			<circle class="st14" cx="141.3" cy="159" r="1.1"/>
			<path class="st4" d="M144.6,135c0.6,0.1,3.2,1.7,3.7,7.2c0,0,0,0,0,0c0.4-0.1,1-1.3,0.4-3.1c0,0,0,0,0,0c0.7,0.8,3.2,3.7,1,6.4
				v0c0,0.2,0.6,0.5,1-0.2c0,0,0,0,0,0c-0.3,8.9-13.9,5.6-10.1-2.6C142.2,139.6,145.3,141.5,144.6,135
				C144.6,135,144.6,135,144.6,135z"/>
		<rect x="125.1" y="116.1" class="st17" width="40.5" height="58.5"/>
		<path class="st18" d="M64.9,117.8c0-29.8,24.2-54,54-54"/>
		<line class="st18" x1="109.9" y1="54.8" x2="118.9" y2="63.8"/>
		<line class="st18" x1="109.9" y1="72.8" x2="118.9" y2="63.8"/>
		<path class="st4" d="M19.8,74.4h-1.9l-3.1-4.5l-1,0.8v3.7h-1.6v-10h1.6v4.8c0.4-0.5,0.9-1.1,1.3-1.6l2.7-3.2h1.9
			c-1.7,2.1-3,3.5-3.8,4.4L19.8,74.4z"/>
		<path class="st4" d="M24.3,74.5c-1.2,0-2.1-0.3-2.8-1c-0.7-0.7-1-1.6-1-2.8c0-1.2,0.3-2.2,0.9-2.9c0.6-0.7,1.5-1.1,2.5-1.1
			c1,0,1.8,0.3,2.4,0.9c0.6,0.6,0.9,1.4,0.9,2.5V71h-5c0,0.7,0.2,1.3,0.6,1.7c0.4,0.4,0.9,0.6,1.6,0.6c0.4,0,0.9,0,1.2-0.1
			c0.4-0.1,0.8-0.2,1.2-0.4V74c-0.4,0.2-0.8,0.3-1.2,0.4C25.3,74.5,24.8,74.5,24.3,74.5z M24,67.9c-0.5,0-0.9,0.2-1.2,0.5
			c-0.3,0.3-0.5,0.8-0.6,1.4h3.4c0-0.6-0.2-1.1-0.5-1.4C24.9,68.1,24.5,67.9,24,67.9z"/>
		<path class="st4" d="M32.4,74.5c-1.2,0-2.1-0.3-2.8-1c-0.7-0.7-1-1.6-1-2.8c0-1.2,0.3-2.2,0.9-2.9c0.6-0.7,1.5-1.1,2.5-1.1
			c1,0,1.8,0.3,2.4,0.9c0.6,0.6,0.9,1.4,0.9,2.5V71h-5c0,0.7,0.2,1.3,0.6,1.7c0.4,0.4,0.9,0.6,1.6,0.6c0.4,0,0.9,0,1.2-0.1
			c0.4-0.1,0.8-0.2,1.2-0.4V74c-0.4,0.2-0.8,0.3-1.2,0.4C33.3,74.5,32.9,74.5,32.4,74.5z M32.1,67.9c-0.5,0-0.9,0.2-1.2,0.5
			c-0.3,0.3-0.5,0.8-0.6,1.4h3.4c0-0.6-0.2-1.1-0.5-1.4C33,68.1,32.6,67.9,32.1,67.9z"/>
		<path class="st4" d="M41,74.5c-1,0-1.7-0.3-2.2-1h-0.1c0.1,0.6,0.1,1,0.1,1.2v3.1h-1.6V66.8h1.3c0,0.1,0.1,0.5,0.2,1h0.1
			c0.5-0.8,1.3-1.1,2.3-1.1c0.9,0,1.7,0.3,2.2,1c0.5,0.7,0.8,1.6,0.8,2.9c0,1.2-0.3,2.2-0.8,2.9C42.6,74.2,41.9,74.5,41,74.5z
			 M40.6,68c-0.6,0-1.1,0.2-1.4,0.6c-0.3,0.4-0.4,1-0.4,1.8v0.2c0,0.9,0.1,1.6,0.4,2c0.3,0.4,0.8,0.6,1.4,0.6c0.6,0,1-0.2,1.3-0.7
			c0.3-0.5,0.5-1.1,0.5-1.9c0-0.8-0.1-1.5-0.4-1.9C41.6,68.2,41.1,68,40.6,68z"/>
		<path class="st4" d="M55.7,74.4h-6.8v-1.2l2.6-2.6c0.8-0.8,1.3-1.3,1.5-1.7c0.2-0.3,0.4-0.6,0.5-0.9s0.2-0.6,0.2-0.9
			c0-0.5-0.1-0.8-0.4-1.1c-0.3-0.3-0.6-0.4-1.1-0.4c-0.4,0-0.8,0.1-1.1,0.2c-0.4,0.1-0.8,0.4-1.2,0.8L49,65.6
			c0.6-0.5,1.1-0.8,1.6-1c0.5-0.2,1.1-0.3,1.7-0.3c0.9,0,1.7,0.2,2.2,0.7s0.8,1.1,0.8,2c0,0.5-0.1,0.9-0.2,1.3
			c-0.2,0.4-0.4,0.8-0.7,1.3c-0.3,0.4-0.9,1-1.7,1.7L51,72.9V73h4.7V74.4z"/>
		<path class="st4" d="M18.8,84.2c0,1-0.3,1.8-1,2.4c-0.7,0.6-1.7,0.8-2.9,0.8h-1v3.7h-1.6v-10h2.9c1.2,0,2.2,0.3,2.8,0.8
			C18.5,82.5,18.8,83.2,18.8,84.2z M13.8,86.1h0.9c0.8,0,1.5-0.1,1.8-0.4c0.4-0.3,0.6-0.7,0.6-1.4c0-0.6-0.2-1-0.5-1.3
			c-0.4-0.3-0.9-0.4-1.6-0.4h-1.1V86.1z"/>
		<path class="st4" d="M25.4,91.2l-0.3-1.1H25c-0.4,0.5-0.7,0.8-1.1,0.9c-0.4,0.2-0.8,0.3-1.4,0.3c-0.7,0-1.3-0.2-1.7-0.6
			c-0.4-0.4-0.6-1-0.6-1.7c0-0.8,0.3-1.4,0.9-1.8c0.6-0.4,1.5-0.6,2.6-0.6l1.3,0v-0.4c0-0.5-0.1-0.8-0.3-1.1s-0.6-0.4-1-0.4
			c-0.4,0-0.8,0.1-1.1,0.2c-0.4,0.1-0.7,0.2-1,0.4l-0.5-1.1c0.4-0.2,0.9-0.4,1.3-0.5c0.5-0.1,0.9-0.2,1.4-0.2c1,0,1.7,0.2,2.2,0.6
			c0.5,0.4,0.7,1.1,0.7,2v5.1H25.4z M23,90.1c0.6,0,1.1-0.2,1.4-0.5c0.4-0.3,0.5-0.8,0.5-1.4v-0.7l-1,0c-0.8,0-1.3,0.2-1.7,0.4
			c-0.3,0.2-0.5,0.6-0.5,1c0,0.3,0.1,0.6,0.3,0.8C22.3,90,22.6,90.1,23,90.1z"/>
		<path class="st4" d="M33.8,89.1c0,0.7-0.3,1.3-0.8,1.7c-0.5,0.4-1.3,0.6-2.3,0.6c-1,0-1.8-0.2-2.4-0.5v-1.4
			c0.9,0.4,1.7,0.6,2.5,0.6c1,0,1.5-0.3,1.5-0.9c0-0.2-0.1-0.4-0.2-0.5c-0.1-0.1-0.3-0.3-0.5-0.4c-0.3-0.1-0.6-0.3-1-0.5
			c-0.9-0.3-1.5-0.7-1.8-1c-0.3-0.3-0.5-0.8-0.5-1.3c0-0.6,0.3-1.1,0.8-1.5c0.5-0.4,1.2-0.5,2.1-0.5c0.9,0,1.7,0.2,2.5,0.5
			l-0.5,1.2c-0.8-0.3-1.5-0.5-2.1-0.5c-0.8,0-1.3,0.2-1.3,0.7c0,0.2,0.1,0.4,0.3,0.6c0.2,0.2,0.7,0.4,1.4,0.7
			c0.6,0.2,1.1,0.5,1.4,0.7c0.3,0.2,0.5,0.4,0.6,0.7C33.8,88.4,33.8,88.7,33.8,89.1z"/>
		<path class="st4" d="M40.7,89.1c0,0.7-0.3,1.3-0.8,1.7c-0.5,0.4-1.3,0.6-2.3,0.6c-1,0-1.8-0.2-2.4-0.5v-1.4
			c0.9,0.4,1.7,0.6,2.5,0.6c1,0,1.5-0.3,1.5-0.9c0-0.2-0.1-0.4-0.2-0.5c-0.1-0.1-0.3-0.3-0.5-0.4c-0.3-0.1-0.6-0.3-1-0.5
			c-0.9-0.3-1.5-0.7-1.8-1c-0.3-0.3-0.5-0.8-0.5-1.3c0-0.6,0.3-1.1,0.8-1.5c0.5-0.4,1.2-0.5,2.1-0.5c0.9,0,1.7,0.2,2.5,0.5L40,85.3
			c-0.8-0.3-1.5-0.5-2.1-0.5c-0.8,0-1.3,0.2-1.3,0.7c0,0.2,0.1,0.4,0.3,0.6c0.2,0.2,0.7,0.4,1.4,0.7c0.6,0.2,1.1,0.5,1.4,0.7
			c0.3,0.2,0.5,0.4,0.6,0.7C40.6,88.4,40.7,88.7,40.7,89.1z"/>
		<path class="st4" d="M52.3,91.2h-6.8V90l2.6-2.6c0.8-0.8,1.3-1.3,1.5-1.7c0.2-0.3,0.4-0.6,0.5-0.9s0.2-0.6,0.2-0.9
			c0-0.5-0.1-0.8-0.4-1.1c-0.3-0.3-0.6-0.4-1.1-0.4c-0.4,0-0.8,0.1-1.1,0.2c-0.4,0.1-0.8,0.4-1.2,0.8l-0.9-1.1
			c0.6-0.5,1.1-0.8,1.6-1c0.5-0.2,1.1-0.3,1.7-0.3c0.9,0,1.7,0.2,2.2,0.7s0.8,1.1,0.8,2c0,0.5-0.1,0.9-0.2,1.3
			c-0.2,0.4-0.4,0.8-0.7,1.3c-0.3,0.4-0.9,1-1.7,1.7l-1.7,1.7v0.1h4.7V91.2z"/>
		<path class="st18" d="M118.9,306.8c-29.8,0-54-24.2-54-54"/>
		<line class="st18" x1="55.9" y1="261.8" x2="64.9" y2="252.8"/>
		<line class="st18" x1="73.9" y1="261.8" x2="64.9" y2="252.8"/>
		<path class="st18" d="M307.9,243.8c0,29.8-24.2,54-54,54"/>
		<line class="st18" x1="262.9" y1="306.8" x2="253.9" y2="297.8"/>
		<line class="st18" x1="262.9" y1="288.8" x2="253.9" y2="297.8"/>
		<path class="st18" d="M253.9,54.8c29.8,0,54,24.2,54,54"/>
		<line class="st18" x1="316.9" y1="99.8" x2="307.9" y2="108.8"/>
		<line class="st18" x1="298.9" y1="99.8" x2="307.9" y2="108.8"/>
		<path class="st4" d="M19.8,290.4h-1.9l-3.1-4.5l-1,0.8v3.7h-1.6v-10h1.6v4.8c0.4-0.5,0.9-1.1,1.3-1.6l2.7-3.2h1.9
			c-1.7,2.1-3,3.5-3.8,4.4L19.8,290.4z"/>
		<path class="st4" d="M24.3,290.5c-1.2,0-2.1-0.3-2.8-1c-0.7-0.7-1-1.6-1-2.8c0-1.2,0.3-2.2,0.9-2.9c0.6-0.7,1.5-1.1,2.5-1.1
			c1,0,1.8,0.3,2.4,0.9c0.6,0.6,0.9,1.4,0.9,2.5v0.9h-5c0,0.7,0.2,1.3,0.6,1.7c0.4,0.4,0.9,0.6,1.6,0.6c0.4,0,0.9,0,1.2-0.1
			c0.4-0.1,0.8-0.2,1.2-0.4v1.3c-0.4,0.2-0.8,0.3-1.2,0.4C25.3,290.5,24.8,290.5,24.3,290.5z M24,283.9c-0.5,0-0.9,0.2-1.2,0.5
			c-0.3,0.3-0.5,0.8-0.6,1.4h3.4c0-0.6-0.2-1.1-0.5-1.4C24.9,284.1,24.5,283.9,24,283.9z"/>
		<path class="st4" d="M32.4,290.5c-1.2,0-2.1-0.3-2.8-1c-0.7-0.7-1-1.6-1-2.8c0-1.2,0.3-2.2,0.9-2.9c0.6-0.7,1.5-1.1,2.5-1.1
			c1,0,1.8,0.3,2.4,0.9c0.6,0.6,0.9,1.4,0.9,2.5v0.9h-5c0,0.7,0.2,1.3,0.6,1.7c0.4,0.4,0.9,0.6,1.6,0.6c0.4,0,0.9,0,1.2-0.1
			c0.4-0.1,0.8-0.2,1.2-0.4v1.3c-0.4,0.2-0.8,0.3-1.2,0.4C33.3,290.5,32.9,290.5,32.4,290.5z M32.1,283.9c-0.5,0-0.9,0.2-1.2,0.5
			c-0.3,0.3-0.5,0.8-0.6,1.4h3.4c0-0.6-0.2-1.1-0.5-1.4C33,284.1,32.6,283.9,32.1,283.9z"/>
		<path class="st4" d="M41,290.5c-1,0-1.7-0.3-2.2-1h-0.1c0.1,0.6,0.1,1,0.1,1.2v3.1h-1.6v-10.9h1.3c0,0.1,0.1,0.5,0.2,1h0.1
			c0.5-0.8,1.3-1.1,2.3-1.1c0.9,0,1.7,0.3,2.2,1c0.5,0.7,0.8,1.6,0.8,2.9c0,1.2-0.3,2.2-0.8,2.9C42.6,290.2,41.9,290.5,41,290.5z
			 M40.6,284c-0.6,0-1.1,0.2-1.4,0.6c-0.3,0.4-0.4,1-0.4,1.8v0.2c0,0.9,0.1,1.6,0.4,2c0.3,0.4,0.8,0.6,1.4,0.6c0.6,0,1-0.2,1.3-0.7
			c0.3-0.5,0.5-1.1,0.5-1.9c0-0.8-0.1-1.5-0.4-1.9C41.6,284.2,41.1,284,40.6,284z"/>
		<path class="st4" d="M55.7,290.4h-6.8v-1.2l2.6-2.6c0.8-0.8,1.3-1.3,1.5-1.7c0.2-0.3,0.4-0.6,0.5-0.9s0.2-0.6,0.2-0.9
			c0-0.5-0.1-0.8-0.4-1.1c-0.3-0.3-0.6-0.4-1.1-0.4c-0.4,0-0.8,0.1-1.1,0.2c-0.4,0.1-0.8,0.4-1.2,0.8l-0.9-1.1
			c0.6-0.5,1.1-0.8,1.6-1c0.5-0.2,1.1-0.3,1.7-0.3c0.9,0,1.7,0.2,2.2,0.7s0.8,1.1,0.8,2c0,0.5-0.1,0.9-0.2,1.3
			c-0.2,0.4-0.4,0.8-0.7,1.3c-0.3,0.4-0.9,1-1.7,1.7l-1.7,1.7v0.1h4.7V290.4z"/>
		<path class="st4" d="M18.8,300.2c0,1-0.3,1.8-1,2.4c-0.7,0.6-1.7,0.8-2.9,0.8h-1v3.7h-1.6v-10h2.9c1.2,0,2.2,0.3,2.8,0.8
			C18.5,298.5,18.8,299.2,18.8,300.2z M13.8,302.1h0.9c0.8,0,1.5-0.1,1.8-0.4c0.4-0.3,0.6-0.7,0.6-1.4c0-0.6-0.2-1-0.5-1.3
			c-0.4-0.3-0.9-0.4-1.6-0.4h-1.1V302.1z"/>
		<path class="st4" d="M25.4,307.2l-0.3-1.1H25c-0.4,0.5-0.7,0.8-1.1,0.9c-0.4,0.2-0.8,0.3-1.4,0.3c-0.7,0-1.3-0.2-1.7-0.6
			c-0.4-0.4-0.6-1-0.6-1.7c0-0.8,0.3-1.4,0.9-1.8c0.6-0.4,1.5-0.6,2.6-0.6l1.3,0v-0.4c0-0.5-0.1-0.8-0.3-1.1s-0.6-0.4-1-0.4
			c-0.4,0-0.8,0.1-1.1,0.2c-0.4,0.1-0.7,0.2-1,0.4l-0.5-1.1c0.4-0.2,0.9-0.4,1.3-0.5c0.5-0.1,0.9-0.2,1.4-0.2c1,0,1.7,0.2,2.2,0.6
			c0.5,0.4,0.7,1.1,0.7,2v5.1H25.4z M23,306.1c0.6,0,1.1-0.2,1.4-0.5c0.4-0.3,0.5-0.8,0.5-1.4v-0.7l-1,0c-0.8,0-1.3,0.2-1.7,0.4
			c-0.3,0.2-0.5,0.6-0.5,1c0,0.3,0.1,0.6,0.3,0.8C22.3,306,22.6,306.1,23,306.1z"/>
		<path class="st4" d="M33.8,305.1c0,0.7-0.3,1.3-0.8,1.7c-0.5,0.4-1.3,0.6-2.3,0.6c-1,0-1.8-0.2-2.4-0.5v-1.4
			c0.9,0.4,1.7,0.6,2.5,0.6c1,0,1.5-0.3,1.5-0.9c0-0.2-0.1-0.4-0.2-0.5c-0.1-0.1-0.3-0.3-0.5-0.4c-0.3-0.1-0.6-0.3-1-0.5
			c-0.9-0.3-1.5-0.7-1.8-1c-0.3-0.3-0.5-0.8-0.5-1.3c0-0.6,0.3-1.1,0.8-1.5c0.5-0.4,1.2-0.5,2.1-0.5c0.9,0,1.7,0.2,2.5,0.5
			l-0.5,1.2c-0.8-0.3-1.5-0.5-2.1-0.5c-0.8,0-1.3,0.2-1.3,0.7c0,0.2,0.1,0.4,0.3,0.6c0.2,0.2,0.7,0.4,1.4,0.7
			c0.6,0.2,1.1,0.5,1.4,0.7c0.3,0.2,0.5,0.4,0.6,0.7C33.8,304.4,33.8,304.7,33.8,305.1z"/>
		<path class="st4" d="M40.7,305.1c0,0.7-0.3,1.3-0.8,1.7c-0.5,0.4-1.3,0.6-2.3,0.6c-1,0-1.8-0.2-2.4-0.5v-1.4
			c0.9,0.4,1.7,0.6,2.5,0.6c1,0,1.5-0.3,1.5-0.9c0-0.2-0.1-0.4-0.2-0.5c-0.1-0.1-0.3-0.3-0.5-0.4c-0.3-0.1-0.6-0.3-1-0.5
			c-0.9-0.3-1.5-0.7-1.8-1c-0.3-0.3-0.5-0.8-0.5-1.3c0-0.6,0.3-1.1,0.8-1.5c0.5-0.4,1.2-0.5,2.1-0.5c0.9,0,1.7,0.2,2.5,0.5
			l-0.5,1.2c-0.8-0.3-1.5-0.5-2.1-0.5c-0.8,0-1.3,0.2-1.3,0.7c0,0.2,0.1,0.4,0.3,0.6c0.2,0.2,0.7,0.4,1.4,0.7
			c0.6,0.2,1.1,0.5,1.4,0.7c0.3,0.2,0.5,0.4,0.6,0.7C40.6,304.4,40.7,304.7,40.7,305.1z"/>
		<path class="st4" d="M52.3,307.2h-6.8V306l2.6-2.6c0.8-0.8,1.3-1.3,1.5-1.7c0.2-0.3,0.4-0.6,0.5-0.9s0.2-0.6,0.2-0.9
			c0-0.5-0.1-0.8-0.4-1.1c-0.3-0.3-0.6-0.4-1.1-0.4c-0.4,0-0.8,0.1-1.1,0.2c-0.4,0.1-0.8,0.4-1.2,0.8l-0.9-1.1
			c0.6-0.5,1.1-0.8,1.6-1c0.5-0.2,1.1-0.3,1.7-0.3c0.9,0,1.7,0.2,2.2,0.7s0.8,1.1,0.8,2c0,0.5-0.1,0.9-0.2,1.3
			c-0.2,0.4-0.4,0.8-0.7,1.3c-0.3,0.4-0.9,1-1.7,1.7l-1.7,1.7v0.1h4.7V307.2z"/>
		<path class="st4" d="M325.8,290.4h-1.9l-3.1-4.5l-1,0.8v3.7h-1.6v-10h1.6v4.8c0.4-0.5,0.9-1.1,1.3-1.6l2.7-3.2h1.9
			c-1.7,2.1-3,3.5-3.8,4.4L325.8,290.4z"/>
		<path class="st4" d="M330.3,290.5c-1.2,0-2.1-0.3-2.8-1c-0.7-0.7-1-1.6-1-2.8c0-1.2,0.3-2.2,0.9-2.9c0.6-0.7,1.5-1.1,2.5-1.1
			c1,0,1.8,0.3,2.4,0.9c0.6,0.6,0.9,1.4,0.9,2.5v0.9h-5c0,0.7,0.2,1.3,0.6,1.7c0.4,0.4,0.9,0.6,1.6,0.6c0.4,0,0.9,0,1.2-0.1
			c0.4-0.1,0.8-0.2,1.2-0.4v1.3c-0.4,0.2-0.8,0.3-1.2,0.4C331.3,290.5,330.8,290.5,330.3,290.5z M330,283.9c-0.5,0-0.9,0.2-1.2,0.5
			c-0.3,0.3-0.5,0.8-0.6,1.4h3.4c0-0.6-0.2-1.1-0.5-1.4C330.9,284.1,330.5,283.9,330,283.9z"/>
		<path class="st4" d="M338.4,290.5c-1.2,0-2.1-0.3-2.8-1c-0.7-0.7-1-1.6-1-2.8c0-1.2,0.3-2.2,0.9-2.9c0.6-0.7,1.5-1.1,2.5-1.1
			c1,0,1.8,0.3,2.4,0.9c0.6,0.6,0.9,1.4,0.9,2.5v0.9h-5c0,0.7,0.2,1.3,0.6,1.7c0.4,0.4,0.9,0.6,1.6,0.6c0.4,0,0.9,0,1.2-0.1
			c0.4-0.1,0.8-0.2,1.2-0.4v1.3c-0.4,0.2-0.8,0.3-1.2,0.4C339.3,290.5,338.9,290.5,338.4,290.5z M338.1,283.9
			c-0.5,0-0.9,0.2-1.2,0.5c-0.3,0.3-0.5,0.8-0.6,1.4h3.4c0-0.6-0.2-1.1-0.5-1.4C339,284.1,338.6,283.9,338.1,283.9z"/>
		<path class="st4" d="M347,290.5c-1,0-1.7-0.3-2.2-1h-0.1c0.1,0.6,0.1,1,0.1,1.2v3.1h-1.6v-10.9h1.3c0,0.1,0.1,0.5,0.2,1h0.1
			c0.5-0.8,1.3-1.1,2.3-1.1c0.9,0,1.7,0.3,2.2,1c0.5,0.7,0.8,1.6,0.8,2.9c0,1.2-0.3,2.2-0.8,2.9C348.6,290.2,347.9,290.5,347,290.5
			z M346.6,284c-0.6,0-1.1,0.2-1.4,0.6c-0.3,0.4-0.4,1-0.4,1.8v0.2c0,0.9,0.1,1.6,0.4,2c0.3,0.4,0.8,0.6,1.4,0.6
			c0.6,0,1-0.2,1.3-0.7c0.3-0.5,0.5-1.1,0.5-1.9c0-0.8-0.1-1.5-0.4-1.9C347.6,284.2,347.1,284,346.6,284z"/>
		<path class="st4" d="M361.7,290.4h-6.8v-1.2l2.6-2.6c0.8-0.8,1.3-1.3,1.5-1.7c0.2-0.3,0.4-0.6,0.5-0.9s0.2-0.6,0.2-0.9
			c0-0.5-0.1-0.8-0.4-1.1c-0.3-0.3-0.6-0.4-1.1-0.4c-0.4,0-0.8,0.1-1.1,0.2c-0.4,0.1-0.8,0.4-1.2,0.8l-0.9-1.1
			c0.6-0.5,1.1-0.8,1.6-1c0.5-0.2,1.1-0.3,1.7-0.3c0.9,0,1.7,0.2,2.2,0.7s0.8,1.1,0.8,2c0,0.5-0.1,0.9-0.2,1.3
			c-0.2,0.4-0.4,0.8-0.7,1.3c-0.3,0.4-0.9,1-1.7,1.7l-1.7,1.7v0.1h4.7V290.4z"/>
		<path class="st4" d="M324.8,300.2c0,1-0.3,1.8-1,2.4c-0.7,0.6-1.7,0.8-2.9,0.8h-1v3.7h-1.6v-10h2.9c1.2,0,2.2,0.3,2.8,0.8
			C324.5,298.5,324.8,299.2,324.8,300.2z M319.8,302.1h0.9c0.8,0,1.5-0.1,1.8-0.4c0.4-0.3,0.6-0.7,0.6-1.4c0-0.6-0.2-1-0.5-1.3
			c-0.4-0.3-0.9-0.4-1.6-0.4h-1.1V302.1z"/>
		<path class="st4" d="M331.4,307.2l-0.3-1.1H331c-0.4,0.5-0.7,0.8-1.1,0.9c-0.4,0.2-0.8,0.3-1.4,0.3c-0.7,0-1.3-0.2-1.7-0.6
			c-0.4-0.4-0.6-1-0.6-1.7c0-0.8,0.3-1.4,0.9-1.8c0.6-0.4,1.5-0.6,2.6-0.6l1.3,0v-0.4c0-0.5-0.1-0.8-0.3-1.1s-0.6-0.4-1-0.4
			c-0.4,0-0.8,0.1-1.1,0.2c-0.4,0.1-0.7,0.2-1,0.4l-0.5-1.1c0.4-0.2,0.9-0.4,1.3-0.5c0.5-0.1,0.9-0.2,1.4-0.2c1,0,1.7,0.2,2.2,0.6
			c0.5,0.4,0.7,1.1,0.7,2v5.1H331.4z M329,306.1c0.6,0,1.1-0.2,1.4-0.5c0.4-0.3,0.5-0.8,0.5-1.4v-0.7l-1,0c-0.8,0-1.3,0.2-1.7,0.4
			c-0.3,0.2-0.5,0.6-0.5,1c0,0.3,0.1,0.6,0.3,0.8C328.3,306,328.6,306.1,329,306.1z"/>
		<path class="st4" d="M339.8,305.1c0,0.7-0.3,1.3-0.8,1.7c-0.5,0.4-1.3,0.6-2.3,0.6c-1,0-1.8-0.2-2.4-0.5v-1.4
			c0.9,0.4,1.7,0.6,2.5,0.6c1,0,1.5-0.3,1.5-0.9c0-0.2-0.1-0.4-0.2-0.5c-0.1-0.1-0.3-0.3-0.5-0.4c-0.3-0.1-0.6-0.3-1-0.5
			c-0.9-0.3-1.5-0.7-1.8-1c-0.3-0.3-0.5-0.8-0.5-1.3c0-0.6,0.3-1.1,0.8-1.5c0.5-0.4,1.2-0.5,2.1-0.5c0.9,0,1.7,0.2,2.5,0.5
			l-0.5,1.2c-0.8-0.3-1.5-0.5-2.1-0.5c-0.8,0-1.3,0.2-1.3,0.7c0,0.2,0.1,0.4,0.3,0.6c0.2,0.2,0.7,0.4,1.4,0.7
			c0.6,0.2,1.1,0.5,1.4,0.7c0.3,0.2,0.5,0.4,0.6,0.7C339.8,304.4,339.8,304.7,339.8,305.1z"/>
		<path class="st4" d="M346.7,305.1c0,0.7-0.3,1.3-0.8,1.7c-0.5,0.4-1.3,0.6-2.3,0.6c-1,0-1.8-0.2-2.4-0.5v-1.4
			c0.9,0.4,1.7,0.6,2.5,0.6c1,0,1.5-0.3,1.5-0.9c0-0.2-0.1-0.4-0.2-0.5c-0.1-0.1-0.3-0.3-0.5-0.4c-0.3-0.1-0.6-0.3-1-0.5
			c-0.9-0.3-1.5-0.7-1.8-1c-0.3-0.3-0.5-0.8-0.5-1.3c0-0.6,0.3-1.1,0.8-1.5c0.5-0.4,1.2-0.5,2.1-0.5c0.9,0,1.7,0.2,2.5,0.5
			l-0.5,1.2c-0.8-0.3-1.5-0.5-2.1-0.5c-0.8,0-1.3,0.2-1.3,0.7c0,0.2,0.1,0.4,0.3,0.6c0.2,0.2,0.7,0.4,1.4,0.7
			c0.6,0.2,1.1,0.5,1.4,0.7c0.3,0.2,0.5,0.4,0.6,0.7C346.6,304.4,346.7,304.7,346.7,305.1z"/>
		<path class="st4" d="M358.3,307.2h-6.8V306l2.6-2.6c0.8-0.8,1.3-1.3,1.5-1.7c0.2-0.3,0.4-0.6,0.5-0.9s0.2-0.6,0.2-0.9
			c0-0.5-0.1-0.8-0.4-1.1c-0.3-0.3-0.6-0.4-1.1-0.4c-0.4,0-0.8,0.1-1.1,0.2c-0.4,0.1-0.8,0.4-1.2,0.8l-0.9-1.1
			c0.6-0.5,1.1-0.8,1.6-1c0.5-0.2,1.1-0.3,1.7-0.3c0.9,0,1.7,0.2,2.2,0.7s0.8,1.1,0.8,2c0,0.5-0.1,0.9-0.2,1.3
			c-0.2,0.4-0.4,0.8-0.7,1.3c-0.3,0.4-0.9,1-1.7,1.7l-1.7,1.7v0.1h4.7V307.2z"/>
		<path class="st4" d="M325.8,74.4h-1.9l-3.1-4.5l-1,0.8v3.7h-1.6v-10h1.6v4.8c0.4-0.5,0.9-1.1,1.3-1.6l2.7-3.2h1.9
			c-1.7,2.1-3,3.5-3.8,4.4L325.8,74.4z"/>
		<path class="st4" d="M330.3,74.5c-1.2,0-2.1-0.3-2.8-1c-0.7-0.7-1-1.6-1-2.8c0-1.2,0.3-2.2,0.9-2.9c0.6-0.7,1.5-1.1,2.5-1.1
			c1,0,1.8,0.3,2.4,0.9c0.6,0.6,0.9,1.4,0.9,2.5V71h-5c0,0.7,0.2,1.3,0.6,1.7c0.4,0.4,0.9,0.6,1.6,0.6c0.4,0,0.9,0,1.2-0.1
			c0.4-0.1,0.8-0.2,1.2-0.4V74c-0.4,0.2-0.8,0.3-1.2,0.4C331.3,74.5,330.8,74.5,330.3,74.5z M330,67.9c-0.5,0-0.9,0.2-1.2,0.5
			c-0.3,0.3-0.5,0.8-0.6,1.4h3.4c0-0.6-0.2-1.1-0.5-1.4C330.9,68.1,330.5,67.9,330,67.9z"/>
		<path class="st4" d="M338.4,74.5c-1.2,0-2.1-0.3-2.8-1c-0.7-0.7-1-1.6-1-2.8c0-1.2,0.3-2.2,0.9-2.9c0.6-0.7,1.5-1.1,2.5-1.1
			c1,0,1.8,0.3,2.4,0.9c0.6,0.6,0.9,1.4,0.9,2.5V71h-5c0,0.7,0.2,1.3,0.6,1.7c0.4,0.4,0.9,0.6,1.6,0.6c0.4,0,0.9,0,1.2-0.1
			c0.4-0.1,0.8-0.2,1.2-0.4V74c-0.4,0.2-0.8,0.3-1.2,0.4C339.3,74.5,338.9,74.5,338.4,74.5z M338.1,67.9c-0.5,0-0.9,0.2-1.2,0.5
			c-0.3,0.3-0.5,0.8-0.6,1.4h3.4c0-0.6-0.2-1.1-0.5-1.4C339,68.1,338.6,67.9,338.1,67.9z"/>
		<path class="st4" d="M347,74.5c-1,0-1.7-0.3-2.2-1h-0.1c0.1,0.6,0.1,1,0.1,1.2v3.1h-1.6V66.8h1.3c0,0.1,0.1,0.5,0.2,1h0.1
			c0.5-0.8,1.3-1.1,2.3-1.1c0.9,0,1.7,0.3,2.2,1c0.5,0.7,0.8,1.6,0.8,2.9c0,1.2-0.3,2.2-0.8,2.9C348.6,74.2,347.9,74.5,347,74.5z
			 M346.6,68c-0.6,0-1.1,0.2-1.4,0.6c-0.3,0.4-0.4,1-0.4,1.8v0.2c0,0.9,0.1,1.6,0.4,2c0.3,0.4,0.8,0.6,1.4,0.6c0.6,0,1-0.2,1.3-0.7
			c0.3-0.5,0.5-1.1,0.5-1.9c0-0.8-0.1-1.5-0.4-1.9C347.6,68.2,347.1,68,346.6,68z"/>
		<path class="st4" d="M361.7,74.4h-6.8v-1.2l2.6-2.6c0.8-0.8,1.3-1.3,1.5-1.7c0.2-0.3,0.4-0.6,0.5-0.9s0.2-0.6,0.2-0.9
			c0-0.5-0.1-0.8-0.4-1.1c-0.3-0.3-0.6-0.4-1.1-0.4c-0.4,0-0.8,0.1-1.1,0.2c-0.4,0.1-0.8,0.4-1.2,0.8l-0.9-1.1
			c0.6-0.5,1.1-0.8,1.6-1c0.5-0.2,1.1-0.3,1.7-0.3c0.9,0,1.7,0.2,2.2,0.7s0.8,1.1,0.8,2c0,0.5-0.1,0.9-0.2,1.3
			c-0.2,0.4-0.4,0.8-0.7,1.3c-0.3,0.4-0.9,1-1.7,1.7l-1.7,1.7V73h4.7V74.4z"/>
		<path class="st4" d="M324.8,84.2c0,1-0.3,1.8-1,2.4c-0.7,0.6-1.7,0.8-2.9,0.8h-1v3.7h-1.6v-10h2.9c1.2,0,2.2,0.3,2.8,0.8
			C324.5,82.5,324.8,83.2,324.8,84.2z M319.8,86.1h0.9c0.8,0,1.5-0.1,1.8-0.4c0.4-0.3,0.6-0.7,0.6-1.4c0-0.6-0.2-1-0.5-1.3
			c-0.4-0.3-0.9-0.4-1.6-0.4h-1.1V86.1z"/>
		<path class="st4" d="M331.4,91.2l-0.3-1.1H331c-0.4,0.5-0.7,0.8-1.1,0.9c-0.4,0.2-0.8,0.3-1.4,0.3c-0.7,0-1.3-0.2-1.7-0.6
			c-0.4-0.4-0.6-1-0.6-1.7c0-0.8,0.3-1.4,0.9-1.8c0.6-0.4,1.5-0.6,2.6-0.6l1.3,0v-0.4c0-0.5-0.1-0.8-0.3-1.1s-0.6-0.4-1-0.4
			c-0.4,0-0.8,0.1-1.1,0.2c-0.4,0.1-0.7,0.2-1,0.4l-0.5-1.1c0.4-0.2,0.9-0.4,1.3-0.5c0.5-0.1,0.9-0.2,1.4-0.2c1,0,1.7,0.2,2.2,0.6
			c0.5,0.4,0.7,1.1,0.7,2v5.1H331.4z M329,90.1c0.6,0,1.1-0.2,1.4-0.5c0.4-0.3,0.5-0.8,0.5-1.4v-0.7l-1,0c-0.8,0-1.3,0.2-1.7,0.4
			c-0.3,0.2-0.5,0.6-0.5,1c0,0.3,0.1,0.6,0.3,0.8C328.3,90,328.6,90.1,329,90.1z"/>
		<path class="st4" d="M339.8,89.1c0,0.7-0.3,1.3-0.8,1.7c-0.5,0.4-1.3,0.6-2.3,0.6c-1,0-1.8-0.2-2.4-0.5v-1.4
			c0.9,0.4,1.7,0.6,2.5,0.6c1,0,1.5-0.3,1.5-0.9c0-0.2-0.1-0.4-0.2-0.5c-0.1-0.1-0.3-0.3-0.5-0.4c-0.3-0.1-0.6-0.3-1-0.5
			c-0.9-0.3-1.5-0.7-1.8-1c-0.3-0.3-0.5-0.8-0.5-1.3c0-0.6,0.3-1.1,0.8-1.5c0.5-0.4,1.2-0.5,2.1-0.5c0.9,0,1.7,0.2,2.5,0.5
			l-0.5,1.2c-0.8-0.3-1.5-0.5-2.1-0.5c-0.8,0-1.3,0.2-1.3,0.7c0,0.2,0.1,0.4,0.3,0.6c0.2,0.2,0.7,0.4,1.4,0.7
			c0.6,0.2,1.1,0.5,1.4,0.7c0.3,0.2,0.5,0.4,0.6,0.7C339.8,88.4,339.8,88.7,339.8,89.1z"/>
		<path class="st4" d="M346.7,89.1c0,0.7-0.3,1.3-0.8,1.7c-0.5,0.4-1.3,0.6-2.3,0.6c-1,0-1.8-0.2-2.4-0.5v-1.4
			c0.9,0.4,1.7,0.6,2.5,0.6c1,0,1.5-0.3,1.5-0.9c0-0.2-0.1-0.4-0.2-0.5c-0.1-0.1-0.3-0.3-0.5-0.4c-0.3-0.1-0.6-0.3-1-0.5
			c-0.9-0.3-1.5-0.7-1.8-1c-0.3-0.3-0.5-0.8-0.5-1.3c0-0.6,0.3-1.1,0.8-1.5c0.5-0.4,1.2-0.5,2.1-0.5c0.9,0,1.7,0.2,2.5,0.5
			l-0.5,1.2c-0.8-0.3-1.5-0.5-2.1-0.5c-0.8,0-1.3,0.2-1.3,0.7c0,0.2,0.1,0.4,0.3,0.6c0.2,0.2,0.7,0.4,1.4,0.7
			c0.6,0.2,1.1,0.5,1.4,0.7c0.3,0.2,0.5,0.4,0.6,0.7C346.6,88.4,346.7,88.7,346.7,89.1z"/>
		<path class="st4" d="M358.3,91.2h-6.8V90l2.6-2.6c0.8-0.8,1.3-1.3,1.5-1.7c0.2-0.3,0.4-0.6,0.5-0.9s0.2-0.6,0.2-0.9
			c0-0.5-0.1-0.8-0.4-1.1c-0.3-0.3-0.6-0.4-1.1-0.4c-0.4,0-0.8,0.1-1.1,0.2c-0.4,0.1-0.8,0.4-1.2,0.8l-0.9-1.1
			c0.6-0.5,1.1-0.8,1.6-1c0.5-0.2,1.1-0.3,1.7-0.3c0.9,0,1.7,0.2,2.2,0.7s0.8,1.1,0.8,2c0,0.5-0.1,0.9-0.2,1.3
			c-0.2,0.4-0.4,0.8-0.7,1.3c-0.3,0.4-0.9,1-1.7,1.7l-1.7,1.7v0.1h4.7V91.2z"/>
</svg>