<svg xmlns="http://www.w3.org/2000/svg" viewBox="0 0 324 288">
<style type="text/css">
.st1{fill:none;stroke:#000;stroke-width:0;}
.st2{fill:none;stroke:#FFF;stroke-width:2.25;}
.st3{fill:#EC1E32;}
.st4{fill:#FFF;}
</style>
<rect width="180" height="252"/>
<rect x="9" y="9" width="162" height="234"/>
<rect x="9" y="9" class="st2" width="162" height="234"/>
<path class="st3" d="M84,63.8c4.5,0.8,25.6,13.8,29.5,57.7c0,0.1,0.1,0.1,0.1,0.1c3.3-1,8-10.6,3.5-24.8c0-0.1,0.1-0.2,0.1-0.1
	c5.8,6,25.7,29.5,7.8,51v0.1c0.4,1.6,5.2,3.8,8.1-1.8c0-0.1,0.2-0.1,0.2,0c-2.6,70.9-111.4,44.8-81.1-21
	C64.9,101,89.8,116.3,84,63.8C83.9,63.8,83.9,63.8,84,63.8z"/>
	<path class="st4" d="M65.5,27.2h6.6c0.8,0,1.6,0.1,2.3,0.3s1.4,0.5,2.1,0.9s1.2,0.8,1.7,1.4s1,1.1,1.3,1.8s0.6,1.4,0.8,2.1
		s0.3,1.5,0.3,2.3c0,0.8-0.1,1.6-0.3,2.4s-0.5,1.5-0.8,2.1s-0.8,1.3-1.3,1.8s-1.1,1-1.7,1.4s-1.3,0.7-2.1,0.9S72.9,45,72.1,45h-6.6
		v-2h1.7V29.3h-1.7V27.2z M69.5,29.3V43h2.8c0.8,0,1.6-0.2,2.3-0.5s1.4-0.8,1.9-1.5s1-1.4,1.3-2.2s0.5-1.7,0.5-2.7
		c0-1-0.2-1.8-0.5-2.7s-0.7-1.5-1.3-2.2s-1.2-1.1-1.9-1.4s-1.5-0.5-2.3-0.5H69.5z"/>
	<path class="st4" d="M84.7,39.2c0,0.3,0,0.7,0.1,0.9s0.1,0.6,0.2,0.8c0.3,0.8,0.8,1.4,1.4,1.8s1.4,0.6,2.2,0.6
		c0.6,0,1.2-0.1,1.8-0.3s1.2-0.5,1.9-0.8l0.9,1.5c-0.8,0.5-1.6,1-2.4,1.2s-1.6,0.4-2.5,0.4c-0.8,0-1.6-0.1-2.3-0.4
		s-1.3-0.7-1.8-1.2s-0.9-1.2-1.2-2s-0.4-1.7-0.4-2.8c0-0.9,0.1-1.7,0.4-2.5s0.6-1.4,1.1-2s1.1-1,1.8-1.4s1.5-0.5,2.5-0.5
		c0.9,0,1.7,0.1,2.3,0.4s1.1,0.6,1.5,1.1s0.7,1,0.9,1.6s0.3,1.2,0.4,1.8c0,0.3,0.1,0.6,0.1,0.9s0,0.6,0,0.9H84.7z M88.1,34.4
		c-0.5,0-1,0.1-1.3,0.2s-0.7,0.4-1,0.6s-0.5,0.6-0.6,1s-0.3,0.8-0.4,1.3h6.3c0-0.5-0.1-0.9-0.2-1.3s-0.3-0.7-0.5-1
		s-0.5-0.5-0.9-0.7S88.7,34.4,88.1,34.4z"/>
	<path class="st4" d="M103.6,43.9c-0.5,0.4-1,0.8-1.5,1.1s-1.2,0.4-1.9,0.4c-0.6,0-1.1-0.1-1.6-0.3s-0.9-0.4-1.3-0.8
		s-0.6-0.7-0.8-1.1s-0.3-0.9-0.3-1.4c0-0.5,0.1-1,0.2-1.4s0.4-0.7,0.6-1s0.6-0.5,0.9-0.7s0.7-0.4,1.1-0.5s0.8-0.2,1.1-0.3
		s0.8-0.1,1.1-0.1c0.6,0,1,0,1.4,0.1s0.7,0.1,1,0.1l0-1c0-0.4-0.1-0.8-0.2-1.1s-0.3-0.6-0.5-0.8s-0.5-0.4-0.8-0.5s-0.7-0.2-1.1-0.2
		c-0.4,0-0.7,0-1.1,0.1s-0.7,0.1-0.9,0.2s-0.6,0.2-0.8,0.3s-0.5,0.2-0.6,0.3l-0.7-1.5c0.3-0.2,0.6-0.4,0.9-0.5s0.7-0.3,1.1-0.4
		s0.8-0.2,1.2-0.3s0.8-0.1,1.2-0.1c0.7,0,1.3,0.1,1.9,0.3s1,0.4,1.4,0.8s0.7,0.8,0.9,1.3s0.3,1.2,0.3,2l0,6.1h1.3v2h-3.5V43.9z
		 M100.6,43.5c0.3,0,0.6,0,0.9-0.1s0.6-0.2,0.8-0.3s0.5-0.3,0.7-0.4s0.4-0.3,0.6-0.5l0-2.7H101c-0.4,0-0.8,0-1.2,0.1
		S99.2,39.8,99,40s-0.5,0.4-0.6,0.7s-0.2,0.6-0.2,0.9c0,0.3,0.1,0.6,0.2,0.8s0.3,0.4,0.5,0.6s0.5,0.3,0.8,0.4
		S100.2,43.5,100.6,43.5z"/>
	<path class="st4" d="M109.5,26.8h3.9V43h1.8v2h-5.8v-2h1.8V28.8h-1.8V26.8z"/>
	<path class="st4" d="M95.3,135.8c0-0.6-0.1-1.3-0.4-2s-0.7-1.3-1.2-1.9s-1.2-1.1-2-1.5s-1.8-0.6-2.9-0.6c-0.9,0-1.8,0.2-2.5,0.5
		s-1.5,0.9-2.3,1.8s-1.2,1.8-1.2,2.9h-4.5c0.1-1.4,0.4-2.6,1-3.7s1.4-2.1,2.3-2.9s2-1.5,3.2-2s2.5-0.7,3.9-0.7
		c1.7,0,3.2,0.3,4.5,0.8s2.5,1.3,3.5,2.2s1.7,2,2.2,3.1s0.8,2.4,0.8,3.6c0,0.8-0.1,1.5-0.3,2.3s-0.5,1.5-0.9,2.1s-0.9,1.3-1.5,1.9
		s-1.4,1.1-2.3,1.5c0.7,0.3,1.4,0.7,2.1,1.2s1.2,1.1,1.7,1.8s0.9,1.5,1.1,2.4s0.4,1.9,0.4,2.9c0,1.5-0.3,2.9-0.9,4.3
		s-1.4,2.4-2.4,3.4s-2.2,1.7-3.6,2.2s-2.8,0.8-4.4,0.8c-1.4,0-2.9-0.3-4.3-0.8s-2.6-1.2-3.6-2.2s-1.7-1.9-2.2-2.9s-0.8-2-0.8-3h4.5
		c0.5,1.5,1.3,2.6,2.4,3.4s2.6,1.2,4.4,1.2c0.8,0,1.6-0.2,2.4-0.5s1.5-0.8,2.1-1.4s1.1-1.3,1.4-2.1s0.5-1.7,0.5-2.6
		c0-1-0.2-1.9-0.5-2.7s-0.8-1.5-1.5-2s-1.3-1-2.1-1.3s-1.7-0.5-2.6-0.5h-2v-3.5h1.6c1,0,2-0.2,2.8-0.5s1.5-0.7,2.1-1.3
		s1-1.2,1.3-1.9S95.3,136.6,95.3,135.8z"/>
	<path class="st4" d="M87,233.4c-0.2,0.2-0.5,0.4-0.8,0.5s-0.6,0.2-1,0.2c-0.3,0-0.6,0-0.8-0.1s-0.5-0.2-0.6-0.4s-0.3-0.4-0.4-0.6
		s-0.1-0.4-0.1-0.7c0-0.3,0-0.5,0.1-0.7s0.2-0.4,0.3-0.5s0.3-0.3,0.4-0.4s0.3-0.2,0.5-0.2s0.4-0.1,0.6-0.1s0.4,0,0.6,0
		c0.3,0,0.5,0,0.7,0s0.4,0,0.5,0.1l0-0.5c0-0.2,0-0.4-0.1-0.6s-0.2-0.3-0.3-0.4s-0.2-0.2-0.4-0.2s-0.3-0.1-0.5-0.1
		c-0.2,0-0.4,0-0.5,0s-0.3,0.1-0.5,0.1s-0.3,0.1-0.4,0.1s-0.2,0.1-0.3,0.2l-0.4-0.8c0.1-0.1,0.3-0.2,0.5-0.3s0.4-0.1,0.5-0.2
		s0.4-0.1,0.6-0.1s0.4,0,0.6,0c0.4,0,0.7,0,0.9,0.1s0.5,0.2,0.7,0.4s0.3,0.4,0.5,0.7s0.2,0.6,0.2,1l0,3h0.7v1H87V233.4z
		 M85.5,233.3c0.1,0,0.3,0,0.4-0.1s0.3-0.1,0.4-0.1s0.2-0.1,0.4-0.2s0.2-0.2,0.3-0.2l0-1.4h-1.3c-0.2,0-0.4,0-0.6,0.1
		s-0.3,0.1-0.5,0.2s-0.2,0.2-0.3,0.3s-0.1,0.3-0.1,0.5c0,0.2,0,0.3,0.1,0.4s0.1,0.2,0.2,0.3s0.2,0.1,0.4,0.2S85.3,233.3,85.5,233.3
		z"/>
	<path class="st4" d="M89.9,224.9h2v8.1h0.9v1h-2.9v-1h0.9v-7.1h-0.9V224.9z"/>
	<path class="st4" d="M93.8,224.9h2v8.1h0.9v1h-2.9v-1h0.9v-7.1h-0.9V224.9z"/>
	<path class="st4" d="M100.3,231c0-0.5,0.1-0.9,0.2-1.3s0.4-0.7,0.6-1s0.6-0.5,1-0.7s0.8-0.2,1.2-0.2c0.4,0,0.9,0.1,1.2,0.2
		s0.7,0.4,1,0.6s0.5,0.6,0.6,1s0.2,0.8,0.2,1.3c0,0.5-0.1,0.9-0.2,1.3s-0.4,0.7-0.6,1s-0.6,0.5-1,0.7s-0.8,0.2-1.2,0.2
		c-0.5,0-0.9-0.1-1.2-0.2s-0.7-0.4-1-0.7s-0.5-0.6-0.6-1S100.3,231.4,100.3,231z M101.5,231c0,0.3,0,0.7,0.1,0.9s0.2,0.5,0.4,0.7
		s0.4,0.3,0.6,0.5s0.5,0.2,0.7,0.2c0.3,0,0.5-0.1,0.8-0.2s0.4-0.3,0.6-0.5s0.3-0.4,0.4-0.7s0.1-0.6,0.1-0.9c0-0.4,0-0.7-0.1-1
		s-0.2-0.5-0.4-0.7s-0.4-0.3-0.6-0.4s-0.5-0.1-0.8-0.1c-0.3,0-0.5,0-0.7,0.1s-0.4,0.2-0.6,0.4s-0.3,0.4-0.4,0.7
		S101.5,230.6,101.5,231z"/>
	<path class="st4" d="M107.4,227.9h1.9v0.5c0.3-0.2,0.5-0.4,0.8-0.5s0.6-0.2,0.9-0.2c0.4,0,0.8,0.1,1.1,0.2s0.6,0.4,0.9,0.6
		s0.4,0.6,0.6,1s0.2,0.8,0.2,1.3c0,0.5-0.1,0.9-0.2,1.3s-0.4,0.7-0.6,1s-0.6,0.5-0.9,0.7s-0.8,0.2-1.2,0.2c-0.3,0-0.6,0-0.8-0.1
		s-0.5-0.1-0.7-0.2v2h0.9v1h-2.9v-1h0.8v-6.8h-0.8V227.9z M110.8,228.7c-0.3,0-0.6,0.1-0.8,0.2s-0.5,0.3-0.7,0.5v3.3
		c0.1,0.1,0.3,0.3,0.6,0.4s0.5,0.2,0.9,0.2c0.3,0,0.5,0,0.7-0.1s0.4-0.2,0.6-0.4s0.3-0.4,0.4-0.7s0.2-0.6,0.2-1
		c0-0.3,0-0.6-0.1-0.9s-0.2-0.5-0.4-0.7s-0.4-0.3-0.6-0.4S111,228.7,110.8,228.7z"/>
	<path class="st4" d="M114.7,227.9h1.9v0.5c0.3-0.2,0.5-0.4,0.8-0.5s0.6-0.2,0.9-0.2c0.4,0,0.8,0.1,1.1,0.2s0.6,0.4,0.9,0.6
		s0.4,0.6,0.6,1s0.2,0.8,0.2,1.3c0,0.5-0.1,0.9-0.2,1.3s-0.4,0.7-0.6,1s-0.6,0.5-0.9,0.7s-0.8,0.2-1.2,0.2c-0.3,0-0.6,0-0.8-0.1
		s-0.5-0.1-0.7-0.2v2h0.9v1h-2.9v-1h0.8v-6.8h-0.8V227.9z M118.1,228.7c-0.3,0-0.6,0.1-0.8,0.2s-0.5,0.3-0.7,0.5v3.3
		c0.1,0.1,0.3,0.3,0.6,0.4s0.5,0.2,0.9,0.2c0.3,0,0.5,0,0.7-0.1s0.4-0.2,0.6-0.4s0.3-0.4,0.4-0.7s0.2-0.6,0.2-1
		c0-0.3,0-0.6-0.1-0.9s-0.2-0.5-0.4-0.7s-0.4-0.3-0.6-0.4S118.4,228.7,118.1,228.7z"/>
	<path class="st4" d="M122.2,231c0-0.5,0.1-0.9,0.2-1.3s0.4-0.7,0.6-1s0.6-0.5,1-0.7s0.8-0.2,1.2-0.2c0.4,0,0.9,0.1,1.2,0.2
		s0.7,0.4,1,0.6s0.5,0.6,0.6,1s0.2,0.8,0.2,1.3c0,0.5-0.1,0.9-0.2,1.3s-0.4,0.7-0.6,1s-0.6,0.5-1,0.7s-0.8,0.2-1.2,0.2
		c-0.5,0-0.9-0.1-1.2-0.2s-0.7-0.4-1-0.7s-0.5-0.6-0.6-1S122.2,231.4,122.2,231z M123.3,231c0,0.3,0,0.7,0.1,0.9s0.2,0.5,0.4,0.7
		s0.4,0.3,0.6,0.5s0.5,0.2,0.7,0.2c0.3,0,0.5-0.1,0.8-0.2s0.4-0.3,0.6-0.5s0.3-0.4,0.4-0.7s0.1-0.6,0.1-0.9c0-0.4,0-0.7-0.1-1
		s-0.2-0.5-0.4-0.7s-0.4-0.3-0.6-0.4s-0.5-0.1-0.8-0.1c-0.3,0-0.5,0-0.7,0.1s-0.4,0.2-0.6,0.4s-0.3,0.4-0.4,0.7
		S123.3,230.6,123.3,231z"/>
	<path class="st4" d="M133.4,233h0.9v-2.8c0-0.5-0.1-0.8-0.4-1.1s-0.6-0.4-1-0.4c-0.3,0-0.5,0.1-0.8,0.2s-0.5,0.3-0.7,0.5v3.6h0.9
		v1h-2.8v-1h0.8v-4.1h-0.8v-1h1.9v0.7h0c0.1-0.1,0.3-0.2,0.4-0.3s0.3-0.2,0.5-0.3s0.3-0.1,0.5-0.2s0.4-0.1,0.5-0.1
		c0.3,0,0.6,0,0.9,0.1s0.5,0.2,0.7,0.4s0.3,0.4,0.4,0.7s0.1,0.6,0.1,1v2.9h0.8v1h-2.8V233z"/>
	<path class="st4" d="M138.4,231.1c0,0.2,0,0.3,0,0.5s0.1,0.3,0.1,0.4c0.1,0.4,0.4,0.7,0.7,0.9s0.7,0.3,1.1,0.3
		c0.3,0,0.6,0,0.9-0.1s0.6-0.2,0.9-0.4l0.4,0.7c-0.4,0.3-0.8,0.5-1.2,0.6s-0.8,0.2-1.3,0.2c-0.4,0-0.8-0.1-1.1-0.2
		s-0.7-0.3-0.9-0.6s-0.4-0.6-0.6-1s-0.2-0.9-0.2-1.4c0-0.4,0.1-0.8,0.2-1.2s0.3-0.7,0.5-1s0.5-0.5,0.9-0.7s0.8-0.3,1.2-0.3
		c0.5,0,0.8,0.1,1.1,0.2s0.6,0.3,0.8,0.6s0.3,0.5,0.4,0.8s0.2,0.6,0.2,0.9c0,0.1,0,0.3,0,0.5s0,0.3,0,0.4H138.4z M140.2,228.7
		c-0.3,0-0.5,0-0.7,0.1s-0.4,0.2-0.5,0.3s-0.2,0.3-0.3,0.5s-0.1,0.4-0.2,0.7h3.1c0-0.2-0.1-0.4-0.1-0.6s-0.1-0.4-0.3-0.5
		s-0.3-0.3-0.5-0.3S140.4,228.7,140.2,228.7z"/>
	<path class="st4" d="M148.3,233h0.9v-2.8c0-0.5-0.1-0.8-0.4-1.1s-0.6-0.4-1-0.4c-0.3,0-0.5,0.1-0.8,0.2s-0.5,0.3-0.7,0.5v3.6h0.9
		v1h-2.8v-1h0.8v-4.1h-0.8v-1h1.9v0.7h0c0.1-0.1,0.3-0.2,0.4-0.3s0.3-0.2,0.5-0.3s0.3-0.1,0.5-0.2s0.4-0.1,0.5-0.1
		c0.3,0,0.6,0,0.9,0.1s0.5,0.2,0.7,0.4s0.3,0.4,0.4,0.7s0.1,0.6,0.1,1v2.9h0.8v1h-2.8V233z"/>
	<path class="st4" d="M154.1,227.9h1.4v0.9H154l0,3.5c0,0.2,0,0.4,0.1,0.6s0.1,0.3,0.3,0.3s0.3,0.1,0.4,0.1c0.2,0,0.3,0,0.4,0
		s0.3-0.1,0.4-0.1l0.3,0.7c-0.2,0.1-0.4,0.2-0.6,0.2s-0.5,0.1-0.7,0.1c-0.3,0-0.5,0-0.7-0.1s-0.4-0.2-0.5-0.3s-0.2-0.4-0.3-0.6
		s-0.1-0.6-0.1-1l0-3.3h-1v-0.9h1v-1.5l1.1-0.5V227.9z"/>
	<path class="st4" d="M160.2,229.1c-0.1-0.1-0.2-0.2-0.3-0.3s-0.3-0.1-0.4-0.2s-0.3,0-0.4,0c-0.2,0-0.3,0-0.4,0.1s-0.2,0.1-0.3,0.2
		s-0.2,0.1-0.2,0.2s-0.1,0.2-0.1,0.3c0,0.2,0.1,0.4,0.2,0.5s0.3,0.2,0.6,0.3l1.2,0.4c0.5,0.2,0.9,0.4,1.1,0.7s0.3,0.6,0.3,1
		c0,0.3-0.1,0.5-0.2,0.7s-0.3,0.4-0.5,0.6s-0.4,0.3-0.7,0.4s-0.6,0.1-0.9,0.1c-0.5,0-0.9-0.1-1.2-0.2s-0.5-0.4-0.7-0.6h-0.6v-1h1.2
		c0,0.2,0,0.3,0.1,0.4s0.2,0.2,0.3,0.3s0.3,0.1,0.4,0.2s0.3,0.1,0.5,0.1c0.2,0,0.3,0,0.4-0.1s0.3-0.1,0.4-0.2s0.2-0.2,0.3-0.3
		s0.1-0.2,0.1-0.3c0-0.2-0.1-0.4-0.2-0.5s-0.3-0.3-0.6-0.4l-1.2-0.4c-0.5-0.2-0.8-0.4-1.1-0.6s-0.3-0.6-0.3-1c0-0.3,0-0.5,0.1-0.7
		s0.2-0.4,0.4-0.6s0.4-0.3,0.7-0.4s0.6-0.1,0.9-0.1c0.4,0,0.8,0.1,1.1,0.2s0.6,0.3,0.8,0.6h0.6v1h-1.2
		C160.3,229.4,160.2,229.3,160.2,229.1z"/>
<line class="st2" x1="90" y1="216" x2="171" y2="216"/>
<rect x="144" y="36" width="180" height="252"/>
<rect x="153" y="45" width="162" height="234"/>
<rect x="153" y="45" class="st2" width="162" height="234"/>
<path class="st3" d="M228,99.8c4.5,0.8,25.6,13.8,29.5,57.7c0,0.1,0.1,0.1,0.1,0.1c3.3-1,8-10.6,3.5-24.8c0-0.1,0.1-0.2,0.1-0.1
	c5.8,6,25.7,29.5,7.8,51v0.1c0.4,1.6,5.2,3.8,8.1-1.8c0-0.1,0.2-0.1,0.2,0c-2.6,70.9-111.4,44.8-81.1-21
	C208.9,137,233.8,152.3,228,99.8C227.9,99.8,227.9,99.8,228,99.8z"/>
	<path class="st4" d="M209.5,63.2h6.6c0.8,0,1.6,0.1,2.3,0.3s1.4,0.5,2.1,0.9s1.2,0.8,1.7,1.4s1,1.1,1.3,1.8s0.6,1.4,0.8,2.1
		s0.3,1.5,0.3,2.3c0,0.8-0.1,1.6-0.3,2.4s-0.5,1.5-0.8,2.1s-0.8,1.3-1.3,1.8s-1.1,1-1.7,1.4s-1.3,0.7-2.1,0.9s-1.5,0.3-2.3,0.3
		h-6.6v-2h1.7V65.3h-1.7V63.2z M213.5,65.3V79h2.8c0.8,0,1.6-0.2,2.3-0.5s1.4-0.8,1.9-1.5s1-1.4,1.3-2.2s0.5-1.7,0.5-2.7
		c0-1-0.2-1.8-0.5-2.7s-0.7-1.5-1.3-2.2s-1.2-1.1-1.9-1.4s-1.5-0.5-2.3-0.5H213.5z"/>
	<path class="st4" d="M228.7,75.2c0,0.3,0,0.7,0.1,0.9s0.1,0.6,0.2,0.8c0.3,0.8,0.8,1.4,1.4,1.8s1.4,0.6,2.2,0.6
		c0.6,0,1.2-0.1,1.8-0.3s1.2-0.5,1.9-0.8l0.9,1.5c-0.8,0.5-1.6,1-2.4,1.2s-1.6,0.4-2.5,0.4c-0.8,0-1.6-0.1-2.3-0.4
		s-1.3-0.7-1.8-1.2s-0.9-1.2-1.2-2s-0.4-1.7-0.4-2.8c0-0.9,0.1-1.7,0.4-2.5s0.6-1.4,1.1-2s1.1-1,1.8-1.4s1.5-0.5,2.5-0.5
		c0.9,0,1.7,0.1,2.3,0.4s1.1,0.6,1.5,1.1s0.7,1,0.9,1.6s0.3,1.2,0.4,1.8c0,0.3,0.1,0.6,0.1,0.9s0,0.6,0,0.9H228.7z M232.1,70.4
		c-0.5,0-1,0.1-1.3,0.2s-0.7,0.4-1,0.6s-0.5,0.6-0.6,1s-0.3,0.8-0.4,1.3h6.3c0-0.5-0.1-0.9-0.2-1.3s-0.3-0.7-0.5-1
		s-0.5-0.5-0.9-0.7S232.7,70.4,232.1,70.4z"/>
	<path class="st4" d="M247.6,79.9c-0.5,0.4-1,0.8-1.5,1.1s-1.2,0.4-1.9,0.4c-0.6,0-1.1-0.1-1.6-0.3s-0.9-0.4-1.3-0.8
		s-0.6-0.7-0.8-1.1s-0.3-0.9-0.3-1.4c0-0.5,0.1-1,0.2-1.4s0.4-0.7,0.6-1s0.6-0.5,0.9-0.7s0.7-0.4,1.1-0.5s0.8-0.2,1.1-0.3
		s0.8-0.1,1.1-0.1c0.6,0,1,0,1.4,0.1s0.7,0.1,1,0.1l0-1c0-0.4-0.1-0.8-0.2-1.1s-0.3-0.6-0.5-0.8s-0.5-0.4-0.8-0.5s-0.7-0.2-1.1-0.2
		c-0.4,0-0.7,0-1.1,0.1s-0.7,0.1-0.9,0.2s-0.6,0.2-0.8,0.3s-0.5,0.2-0.6,0.3l-0.7-1.5c0.3-0.2,0.6-0.4,0.9-0.5s0.7-0.3,1.1-0.4
		s0.8-0.2,1.2-0.3s0.8-0.1,1.2-0.1c0.7,0,1.3,0.1,1.9,0.3s1,0.4,1.4,0.8s0.7,0.8,0.9,1.3s0.3,1.2,0.3,2l0,6.1h1.3v2h-3.5V79.9z
		 M244.6,79.5c0.3,0,0.6,0,0.9-0.1s0.6-0.2,0.8-0.3s0.5-0.3,0.7-0.4s0.4-0.3,0.6-0.5l0-2.7H245c-0.4,0-0.8,0-1.2,0.1
		s-0.6,0.2-0.9,0.4s-0.5,0.4-0.6,0.7s-0.2,0.6-0.2,0.9c0,0.3,0.1,0.6,0.2,0.8s0.3,0.4,0.5,0.6s0.5,0.3,0.8,0.4
		S244.2,79.5,244.6,79.5z"/>
	<path class="st4" d="M253.5,62.8h3.9V79h1.8v2h-5.8v-2h1.8V64.8h-1.8V62.8z"/>
	<path class="st4" d="M239.8,162.5l-8,13.3c1-0.4,1.8-0.6,2.6-0.7s1.5-0.1,2.1-0.1c1.4,0,2.8,0.3,4.2,0.8s2.5,1.3,3.6,2.3
		s1.9,2.1,2.5,3.5s0.9,2.8,0.9,4.5c0,2-0.3,3.8-1,5.3s-1.6,2.9-2.7,3.9s-2.5,1.9-4,2.4s-3.1,0.8-4.8,0.8c-1.6,0-3.1-0.3-4.6-0.9
		s-2.8-1.4-3.9-2.4s-2.1-2.3-2.7-3.8s-1-3.1-1-4.9c0-1.4,0.3-2.7,0.8-4.1s1.2-2.8,2-4.2l8.7-15.8H239.8z M234.6,178.8
		c-1.1,0-2.1,0.2-2.9,0.5s-1.5,0.8-2.2,1.5s-1.3,1.4-1.7,2.4s-0.6,2.1-0.6,3.4c0,1.2,0.2,2.3,0.6,3.3s1,1.8,1.7,2.4
		s1.6,1.2,2.5,1.5s2,0.5,3.2,0.5c1.1,0,2.1-0.2,3-0.6s1.8-0.9,2.6-1.6s1.3-1.5,1.8-2.5s0.7-2,0.7-3.2c0-1.3-0.2-2.4-0.7-3.4
		s-1.1-1.8-1.9-2.4s-1.7-1.1-2.8-1.5S235.8,178.8,234.6,178.8z"/>
	<path class="st4" d="M250.2,269.4c-0.2,0.2-0.5,0.4-0.8,0.5s-0.6,0.2-1,0.2c-0.3,0-0.6,0-0.8-0.1s-0.5-0.2-0.6-0.4
		s-0.3-0.4-0.4-0.6s-0.1-0.4-0.1-0.7c0-0.3,0-0.5,0.1-0.7s0.2-0.4,0.3-0.5s0.3-0.3,0.4-0.4s0.3-0.2,0.5-0.2s0.4-0.1,0.6-0.1
		s0.4,0,0.6,0c0.3,0,0.5,0,0.7,0s0.4,0,0.5,0.1l0-0.5c0-0.2,0-0.4-0.1-0.6s-0.2-0.3-0.3-0.4s-0.2-0.2-0.4-0.2s-0.3-0.1-0.5-0.1
		c-0.2,0-0.4,0-0.5,0s-0.3,0.1-0.5,0.1s-0.3,0.1-0.4,0.1s-0.2,0.1-0.3,0.2l-0.4-0.8c0.1-0.1,0.3-0.2,0.5-0.3s0.4-0.1,0.5-0.2
		s0.4-0.1,0.6-0.1s0.4,0,0.6,0c0.4,0,0.7,0,0.9,0.1s0.5,0.2,0.7,0.4s0.3,0.4,0.5,0.7s0.2,0.6,0.2,1l0,3h0.7v1h-1.8V269.4z
		 M248.7,269.3c0.1,0,0.3,0,0.4-0.1s0.3-0.1,0.4-0.1s0.2-0.1,0.4-0.2s0.2-0.2,0.3-0.2l0-1.4h-1.3c-0.2,0-0.4,0-0.6,0.1
		s-0.3,0.1-0.5,0.2s-0.2,0.2-0.3,0.3s-0.1,0.3-0.1,0.5c0,0.2,0,0.3,0.1,0.4s0.1,0.2,0.2,0.3s0.2,0.1,0.4,0.2
		S248.5,269.3,248.7,269.3z"/>
	<path class="st4" d="M253.1,260.9h2v8.1h0.9v1h-2.9v-1h0.9v-7.1h-0.9V260.9z"/>
	<path class="st4" d="M257,260.9h2v8.1h0.9v1H257v-1h0.9v-7.1H257V260.9z"/>
	<path class="st4" d="M263.3,263.9h1.9v0.5c0.3-0.2,0.5-0.4,0.8-0.5s0.6-0.2,0.9-0.2c0.4,0,0.8,0.1,1.1,0.2s0.6,0.4,0.9,0.6
		s0.4,0.6,0.6,1s0.2,0.8,0.2,1.3c0,0.5-0.1,0.9-0.2,1.3s-0.4,0.7-0.6,1s-0.6,0.5-0.9,0.7s-0.8,0.2-1.2,0.2c-0.3,0-0.6,0-0.8-0.1
		s-0.5-0.1-0.7-0.2v2h0.9v1h-2.9v-1h0.8v-6.8h-0.8V263.9z M266.8,264.7c-0.3,0-0.6,0.1-0.8,0.2s-0.5,0.3-0.7,0.5v3.3
		c0.1,0.1,0.3,0.3,0.6,0.4s0.5,0.2,0.9,0.2c0.3,0,0.5,0,0.7-0.1s0.4-0.2,0.6-0.4s0.3-0.4,0.4-0.7s0.2-0.6,0.2-1
		c0-0.3,0-0.6-0.1-0.9s-0.2-0.5-0.4-0.7s-0.4-0.3-0.6-0.4S267,264.7,266.8,264.7z"/>
	<path class="st4" d="M270.9,260.9h2v8.1h0.9v1h-2.9v-1h0.9v-7.1h-0.9V260.9z"/>
	<path class="st4" d="M278.4,269.4c-0.2,0.2-0.5,0.4-0.8,0.5s-0.6,0.2-1,0.2c-0.3,0-0.6,0-0.8-0.1s-0.5-0.2-0.6-0.4
		s-0.3-0.4-0.4-0.6s-0.1-0.4-0.1-0.7c0-0.3,0-0.5,0.1-0.7s0.2-0.4,0.3-0.5s0.3-0.3,0.4-0.4s0.3-0.2,0.5-0.2s0.4-0.1,0.6-0.1
		s0.4,0,0.6,0c0.3,0,0.5,0,0.7,0s0.4,0,0.5,0.1l0-0.5c0-0.2,0-0.4-0.1-0.6s-0.2-0.3-0.3-0.4s-0.2-0.2-0.4-0.2s-0.3-0.1-0.5-0.1
		c-0.2,0-0.4,0-0.5,0s-0.3,0.1-0.5,0.1s-0.3,0.1-0.4,0.1s-0.2,0.1-0.3,0.2l-0.4-0.8c0.1-0.1,0.3-0.2,0.5-0.3s0.4-0.1,0.5-0.2
		s0.4-0.1,0.6-0.1s0.4,0,0.6,0c0.4,0,0.7,0,0.9,0.1s0.5,0.2,0.7,0.4s0.3,0.4,0.5,0.7s0.2,0.6,0.2,1l0,3h0.7v1h-1.8V269.4z
		 M276.9,269.3c0.1,0,0.3,0,0.4-0.1s0.3-0.1,0.4-0.1s0.2-0.1,0.4-0.2s0.2-0.2,0.3-0.2l0-1.4h-1.3c-0.2,0-0.4,0-0.6,0.1
		s-0.3,0.1-0.5,0.2s-0.2,0.2-0.3,0.3s-0.1,0.3-0.1,0.5c0,0.2,0,0.3,0.1,0.4s0.1,0.2,0.2,0.3s0.2,0.1,0.4,0.2
		S276.7,269.3,276.9,269.3z"/>
	<path class="st4" d="M281,263.9h2.3v1h-0.7l1.4,3.9l1.5-3.9h-0.7v-1h2.3v1h-0.6l-2.7,6.8h0.8v1h-2.4v-1h0.7l0.6-1.7l-2-5.1H281
		V263.9z"/>
	<path class="st4" d="M289.3,267.1c0,0.2,0,0.3,0,0.5s0.1,0.3,0.1,0.4c0.1,0.4,0.4,0.7,0.7,0.9s0.7,0.3,1.1,0.3
		c0.3,0,0.6,0,0.9-0.1s0.6-0.2,0.9-0.4l0.4,0.7c-0.4,0.3-0.8,0.5-1.2,0.6s-0.8,0.2-1.3,0.2c-0.4,0-0.8-0.1-1.1-0.2
		s-0.7-0.3-0.9-0.6s-0.4-0.6-0.6-1s-0.2-0.9-0.2-1.4c0-0.4,0.1-0.8,0.2-1.2s0.3-0.7,0.5-1s0.5-0.5,0.9-0.7s0.8-0.3,1.2-0.3
		c0.5,0,0.8,0.1,1.1,0.2s0.6,0.3,0.8,0.6s0.3,0.5,0.4,0.8s0.2,0.6,0.2,0.9c0,0.1,0,0.3,0,0.5s0,0.3,0,0.4H289.3z M291,264.7
		c-0.3,0-0.5,0-0.7,0.1s-0.4,0.2-0.5,0.3s-0.2,0.3-0.3,0.5s-0.1,0.4-0.2,0.7h3.1c0-0.2-0.1-0.4-0.1-0.6s-0.1-0.4-0.3-0.5
		s-0.3-0.3-0.5-0.3S291.3,264.7,291,264.7z"/>
	<path class="st4" d="M299.5,265.2h-1.1v-0.4c-0.1,0-0.3,0-0.4,0.1s-0.3,0.1-0.4,0.2s-0.2,0.2-0.3,0.4s-0.2,0.3-0.2,0.5v2.9h1v1h-3
		v-1h0.8l0-4.1h-0.8v-1h1.9v0.8c0.1-0.1,0.1-0.2,0.2-0.3s0.2-0.2,0.3-0.3s0.2-0.1,0.4-0.2s0.3-0.1,0.4-0.1c0.2,0,0.4,0,0.6,0
		s0.4,0,0.5,0V265.2z"/>
	<path class="st4" d="M304.2,265.1c-0.1-0.1-0.2-0.2-0.3-0.3s-0.3-0.1-0.4-0.2s-0.3,0-0.4,0c-0.2,0-0.3,0-0.4,0.1s-0.2,0.1-0.3,0.2
		s-0.2,0.1-0.2,0.2s-0.1,0.2-0.1,0.3c0,0.2,0.1,0.4,0.2,0.5s0.3,0.2,0.6,0.3l1.2,0.4c0.5,0.2,0.9,0.4,1.1,0.7s0.3,0.6,0.3,1
		c0,0.3-0.1,0.5-0.2,0.7s-0.3,0.4-0.5,0.6s-0.4,0.3-0.7,0.4s-0.6,0.1-0.9,0.1c-0.5,0-0.9-0.1-1.2-0.2s-0.5-0.4-0.7-0.6h-0.6v-1h1.2
		c0,0.2,0,0.3,0.1,0.4s0.2,0.2,0.3,0.3s0.3,0.1,0.4,0.2s0.3,0.1,0.5,0.1c0.2,0,0.3,0,0.4-0.1s0.3-0.1,0.4-0.2s0.2-0.2,0.3-0.3
		s0.1-0.2,0.1-0.3c0-0.2-0.1-0.4-0.2-0.5s-0.3-0.3-0.6-0.4l-1.2-0.4c-0.5-0.2-0.8-0.4-1.1-0.6s-0.3-0.6-0.3-1c0-0.3,0-0.5,0.1-0.7
		s0.2-0.4,0.4-0.6s0.4-0.3,0.7-0.4s0.6-0.1,0.9-0.1c0.4,0,0.8,0.1,1.1,0.2s0.6,0.3,0.8,0.6h0.6v1h-1.2
		C304.3,265.4,304.2,265.3,304.2,265.1z"/>
<line class="st2" x1="234" y1="252" x2="315" y2="252"/>
</svg>