<?xml version="1.0" encoding="utf-8"?>
<!-- Generator: Adobe Illustrator 23.0.6, SVG Export Plug-In . SVG Version: 6.00 Build 0)  -->
<svg version="1.1" id="Layer_1" xmlns="http://www.w3.org/2000/svg" xmlns:xlink="http://www.w3.org/1999/xlink" x="0px" y="0px"
	 viewBox="0 0 405 270" style="enable-background:new 0 0 405 270;" xml:space="preserve">
<style type="text/css">
	.st0{clip-path:url(#SVGID_4_);fill-rule:evenodd;clip-rule:evenodd;fill:#00652E;}
	.st1{clip-path:url(#SVGID_4_);fill:none;stroke:#FFFFFF;stroke-width:2.25;stroke-miterlimit:10;}
	.st2{clip-path:url(#SVGID_4_);}
	.st3{fill:#FFFFFF;}
	.st4{clip-path:url(#SVGID_4_);fill:none;stroke:#FFFFFF;stroke-width:2;stroke-linecap:square;stroke-miterlimit:10;}
	.st5{opacity:0;clip-path:url(#SVGID_6_);}
	
		.st6{clip-path:url(#SVGID_8_);fill:none;stroke:#FFFFFF;stroke-width:1.5;stroke-linecap:round;stroke-linejoin:round;stroke-miterlimit:10;}
	.st7{clip-path:url(#SVGID_9_);fill:#FFFFFF;}
	.st8{clip-path:url(#SVGID_11_);fill-rule:evenodd;clip-rule:evenodd;fill:#150958;}
	.st9{clip-path:url(#SVGID_11_);fill:none;stroke:#FFFFFF;stroke-width:2.25;stroke-miterlimit:10;}
	.st10{clip-path:url(#SVGID_11_);}
	.st11{clip-path:url(#SVGID_11_);fill:none;stroke:#FFFFFF;stroke-width:2;stroke-linecap:square;stroke-miterlimit:10;}
	.st12{opacity:0;clip-path:url(#SVGID_13_);}
	
		.st13{clip-path:url(#SVGID_15_);fill:none;stroke:#FFFFFF;stroke-width:1.5;stroke-linecap:round;stroke-linejoin:round;stroke-miterlimit:10;}
	
		.st14{clip-path:url(#SVGID_17_);fill:none;stroke:#FFFFFF;stroke-width:1.75;stroke-linecap:round;stroke-linejoin:round;stroke-miterlimit:10;}
	.st15{clip-path:url(#SVGID_18_);fill:#FFFFFF;}
</style>
<g>
	<defs>
		<rect id="SVGID_2_" x="207" width="198" height="270"/>
	</defs>
	<clipPath id="SVGID_4_">
		<use xlink:href="#SVGID_2_"  style="overflow:visible;"/>
	</clipPath>
	<rect x="216" y="9" class="st0" width="180" height="252"/>
	<line class="st1" x1="225" y1="36" x2="306" y2="36"/>
	<line class="st1" x1="225" y1="63" x2="252" y2="63"/>
	<line class="st1" x1="225" y1="90" x2="252" y2="90"/>
	<line class="st1" x1="225" y1="117" x2="252" y2="117"/>
	<line class="st1" x1="225" y1="144" x2="252" y2="144"/>
	<line class="st1" x1="225" y1="171" x2="252" y2="171"/>
	<line class="st1" x1="225" y1="198" x2="252" y2="198"/>
	<line class="st1" x1="225" y1="225" x2="252" y2="225"/>
	<line class="st1" x1="252" y1="252" x2="252" y2="225"/>
	<line class="st1" x1="279" y1="225" x2="279" y2="252"/>
	<line class="st1" x1="306" y1="225" x2="306" y2="252"/>
	<line class="st1" x1="333" y1="225" x2="333" y2="252"/>
	<line class="st1" x1="360" y1="252" x2="360" y2="225"/>
	<line class="st1" x1="387" y1="225" x2="360" y2="225"/>
	<line class="st1" x1="360" y1="198" x2="387" y2="198"/>
	<line class="st1" x1="360" y1="171" x2="387" y2="171"/>
	<line class="st1" x1="360" y1="144" x2="387" y2="144"/>
	<line class="st1" x1="360" y1="117" x2="387" y2="117"/>
	<line class="st1" x1="360" y1="90" x2="387" y2="90"/>
	<line class="st1" x1="360" y1="63" x2="387" y2="63"/>
	<line class="st1" x1="360" y1="36" x2="387" y2="36"/>
	<g class="st2">
		<path class="st3" d="M368.3,106.5h0.9v-4.6l-1.4,0.8v-2l2.4-1.4l0.8,0v7.3h0.9v1.6h-3.8V106.5z"/>
		<path class="st3" d="M373.7,106.5h0.6c0.2-0.5,0.4-0.9,0.6-1.4s0.4-0.9,0.6-1.4s0.4-0.9,0.6-1.4s0.4-0.9,0.6-1.3h-2.5v1h-1.7v-2.8
			h6.5v1.3c-0.5,0.9-0.9,1.9-1.4,2.9s-0.9,2-1.4,3h0.6v1.6h-3.2V106.5z"/>
	</g>
	<g class="st2">
		<path class="st3" d="M368.4,133.5h0.9v-4.6l-1.4,0.8v-2l2.4-1.4l0.8,0v7.3h0.9v1.6h-3.8V133.5z"/>
		<path class="st3" d="M377.8,126.2l-1.8,3.2c0.1,0,0.2,0,0.3,0s0.2,0,0.3,0c0.3,0.1,0.6,0.2,0.9,0.3s0.5,0.4,0.8,0.6
			s0.4,0.5,0.5,0.8s0.2,0.6,0.2,1c0,0.4-0.1,0.8-0.2,1.2s-0.4,0.7-0.7,0.9s-0.6,0.5-1,0.6s-0.8,0.2-1.2,0.2c-0.4,0-0.8-0.1-1.2-0.2
			s-0.7-0.4-1-0.6s-0.5-0.6-0.7-0.9s-0.2-0.7-0.2-1.1c0-0.2,0-0.4,0.1-0.6s0.1-0.4,0.2-0.5s0.1-0.3,0.2-0.5s0.2-0.3,0.3-0.5l2.2-4
			H377.8z M375.9,131.1c-0.2,0-0.5,0-0.6,0.1s-0.4,0.2-0.5,0.4c-0.1,0.1-0.1,0.2-0.1,0.3s0,0.2,0,0.4s0,0.3,0.1,0.4s0.1,0.3,0.2,0.4
			s0.2,0.2,0.4,0.3s0.4,0.1,0.6,0.1c0.2,0,0.3,0,0.5-0.1s0.3-0.1,0.4-0.2s0.2-0.2,0.3-0.4s0.1-0.3,0.1-0.5c0-0.2,0-0.3-0.1-0.5
			s-0.2-0.3-0.3-0.4s-0.3-0.2-0.4-0.2S376.1,131.1,375.9,131.1z"/>
	</g>
	<g class="st2">
		<path class="st3" d="M368.3,160.5h0.9v-4.6l-1.4,0.8v-2l2.4-1.4l0.8,0v7.3h0.9v1.6h-3.8V160.5z"/>
		<path class="st3" d="M374.9,156.7c0.2-0.1,0.4-0.1,0.6-0.2s0.5-0.1,0.7-0.1c0.4,0,0.8,0.1,1.1,0.2s0.7,0.3,0.9,0.5
			s0.5,0.5,0.6,0.9s0.2,0.8,0.2,1.2c0,0.5-0.1,0.9-0.3,1.3s-0.4,0.7-0.7,0.9s-0.6,0.4-1,0.6s-0.7,0.2-1.1,0.2c-0.4,0-0.7,0-1.1-0.1
			s-0.6-0.2-0.9-0.4s-0.5-0.4-0.7-0.7s-0.3-0.6-0.4-1l1.8-0.5c0,0.2,0.1,0.3,0.1,0.5s0.2,0.3,0.3,0.4s0.2,0.2,0.4,0.2
			s0.3,0.1,0.5,0.1c0.2,0,0.4,0,0.5-0.1s0.3-0.2,0.4-0.3s0.2-0.3,0.3-0.4s0.1-0.3,0.1-0.5c0-0.2,0-0.3-0.1-0.5s-0.2-0.3-0.3-0.4
			s-0.3-0.2-0.4-0.3s-0.3-0.1-0.5-0.1c-0.3,0-0.5,0-0.7,0.1s-0.4,0.1-0.6,0.2l-1.6-0.3v-4.7h5.6v1.8h-3.9V156.7z"/>
	</g>
	<g class="st2">
		<path class="st3" d="M368.2,187.5h0.9v-4.6l-1.4,0.8v-2l2.4-1.4l0.8,0v7.3h0.9v1.6h-3.8V187.5z"/>
		<path class="st3" d="M372.3,185.2l3.2-5h2l-3.1,5h1.9v-1.7l1.8,0v1.7h1.2v1.5h-1.2v0.8h1.1v1.6h-3.8v-1.6h0.8v-0.8h-3.9V185.2z"/>
	</g>
	<g class="st2">
		<path class="st3" d="M368.6,214.5h0.9v-4.6l-1.4,0.8v-2l2.4-1.4l0.8,0v7.3h0.9v1.6h-3.8V214.5z"/>
		<path class="st3" d="M377,209.8c0-0.1,0-0.2-0.1-0.4s-0.1-0.2-0.2-0.3s-0.2-0.2-0.4-0.2s-0.3-0.1-0.5-0.1c-0.1,0-0.3,0-0.4,0.1
			s-0.2,0.1-0.3,0.2s-0.2,0.2-0.2,0.3s-0.1,0.3-0.1,0.5l-1.8,0c0-0.4,0.1-0.7,0.2-1.1s0.3-0.6,0.6-0.9s0.6-0.5,0.9-0.6
			s0.8-0.2,1.2-0.2c0.4,0,0.8,0.1,1.2,0.2s0.7,0.3,0.9,0.6s0.5,0.5,0.6,0.8s0.2,0.6,0.2,1c0,0.4-0.1,0.7-0.2,1s-0.4,0.6-0.6,0.8
			c0.1,0.1,0.3,0.2,0.4,0.3s0.2,0.3,0.3,0.4s0.2,0.4,0.2,0.6s0.1,0.4,0.1,0.6c0,0.4-0.1,0.7-0.2,1.1s-0.4,0.6-0.6,0.9
			s-0.6,0.5-1,0.6s-0.8,0.2-1.2,0.2c-0.4,0-0.8-0.1-1.1-0.2s-0.7-0.3-0.9-0.5s-0.5-0.5-0.6-0.8s-0.3-0.6-0.3-0.8s0-0.4,0-0.6h1.8
			c0,0.4,0.1,0.7,0.4,0.9s0.5,0.3,0.9,0.3c0.2,0,0.3,0,0.5-0.1s0.3-0.1,0.4-0.2s0.2-0.2,0.3-0.3s0.1-0.3,0.1-0.4
			c0-0.2,0-0.3-0.1-0.4s-0.1-0.3-0.2-0.3s-0.2-0.2-0.4-0.2s-0.3-0.1-0.5-0.1H375v-1.6h0.8c0.2,0,0.3,0,0.5-0.1s0.2-0.1,0.3-0.2
			s0.2-0.2,0.2-0.3S377,209.9,377,209.8z"/>
	</g>
	<g class="st2">
		<path class="st3" d="M235,158.2l3.2-5h2l-3.1,5h1.9v-1.7l1.8,0v1.7h1.2v1.5h-1.2v0.8h1.1v1.6H238v-1.6h0.8v-0.8H235V158.2z"/>
	</g>
	<g class="st2">
		<path class="st3" d="M239.6,128.8c0-0.1,0-0.2-0.1-0.4s-0.1-0.2-0.2-0.3s-0.2-0.2-0.4-0.2s-0.3-0.1-0.5-0.1c-0.1,0-0.3,0-0.4,0.1
			s-0.2,0.1-0.3,0.2s-0.2,0.2-0.2,0.3s-0.1,0.3-0.1,0.5l-1.8,0c0-0.4,0.1-0.7,0.2-1.1s0.3-0.6,0.6-0.9s0.6-0.5,0.9-0.6
			s0.8-0.2,1.2-0.2c0.4,0,0.8,0.1,1.2,0.2s0.7,0.3,0.9,0.6s0.5,0.5,0.6,0.8s0.2,0.6,0.2,1c0,0.4-0.1,0.7-0.2,1s-0.4,0.6-0.6,0.8
			c0.1,0.1,0.3,0.2,0.4,0.3s0.2,0.3,0.3,0.4s0.2,0.4,0.2,0.6s0.1,0.4,0.1,0.6c0,0.4-0.1,0.7-0.2,1.1s-0.4,0.6-0.6,0.9
			s-0.6,0.5-1,0.6s-0.8,0.2-1.2,0.2c-0.4,0-0.8-0.1-1.1-0.2s-0.7-0.3-0.9-0.5s-0.5-0.5-0.6-0.8s-0.3-0.6-0.3-0.8s0-0.4,0-0.6h1.8
			c0,0.4,0.1,0.7,0.4,0.9s0.5,0.3,0.9,0.3c0.2,0,0.3,0,0.5-0.1s0.3-0.1,0.4-0.2s0.2-0.2,0.3-0.3s0.1-0.3,0.1-0.4
			c0-0.2,0-0.3-0.1-0.4s-0.1-0.3-0.2-0.3s-0.2-0.2-0.4-0.2s-0.3-0.1-0.5-0.1h-0.8v-1.6h0.8c0.2,0,0.3,0,0.5-0.1s0.2-0.1,0.3-0.2
			s0.2-0.2,0.2-0.3S239.6,128.9,239.6,128.8z"/>
	</g>
	<g class="st2">
		<path class="st3" d="M235.8,106.6l3.1-3.3c0.3-0.3,0.5-0.5,0.6-0.8s0.2-0.5,0.2-0.8c0-0.1,0-0.2-0.1-0.3s-0.1-0.2-0.2-0.3
			s-0.2-0.2-0.3-0.2s-0.3-0.1-0.4-0.1c-0.2,0-0.4,0-0.5,0.1s-0.3,0.1-0.4,0.2s-0.2,0.2-0.2,0.4s-0.1,0.3-0.1,0.4h-1.8
			c0-0.5,0.1-0.9,0.2-1.2s0.4-0.7,0.6-0.9s0.6-0.4,0.9-0.6s0.7-0.2,1.2-0.2c0.4,0,0.8,0.1,1.1,0.2s0.7,0.3,0.9,0.5s0.5,0.5,0.6,0.8
			s0.2,0.7,0.2,1.1c0,0.3-0.1,0.7-0.2,1s-0.3,0.6-0.6,0.8l-2.5,2.7h3.3v1.8h-5.8V106.6z"/>
	</g>
	<g class="st2">
		<path class="st3" d="M236.8,79.5h0.9v-4.6l-1.4,0.8v-2l2.4-1.4l0.8,0v7.3h0.9v1.6h-3.8V79.5z"/>
	</g>
	<g class="st2">
		<path class="st3" d="M238.7,54.2c-0.6,0-1.2-0.1-1.6-0.3s-0.8-0.5-1.1-1s-0.5-0.9-0.6-1.4s-0.2-1.1-0.2-1.8c0-0.6,0.1-1.2,0.2-1.8
			s0.3-1,0.6-1.5s0.6-0.7,1.1-1s1-0.4,1.6-0.4c0.6,0,1.2,0.1,1.6,0.4s0.8,0.6,1.1,1s0.5,0.9,0.6,1.4s0.2,1.1,0.2,1.8
			c0,0.6-0.1,1.2-0.2,1.8s-0.3,1-0.6,1.4s-0.6,0.7-1.1,1S239.3,54.2,238.7,54.2z M238.7,52.4c0.3,0,0.6-0.1,0.8-0.2s0.4-0.3,0.5-0.6
			s0.2-0.5,0.2-0.9s0-0.7,0-1.1c0-0.4,0-0.7,0-1.1s-0.1-0.6-0.2-0.9s-0.3-0.4-0.5-0.6s-0.5-0.2-0.8-0.2c-0.3,0-0.6,0.1-0.8,0.2
			s-0.4,0.3-0.5,0.6s-0.2,0.5-0.2,0.9s0,0.7,0,1.1c0,0.4,0,0.8,0,1.1s0.1,0.6,0.2,0.9s0.3,0.4,0.5,0.6S238.3,52.4,238.7,52.4z"/>
	</g>
	<g class="st2">
		<path class="st3" d="M368.3,241.5h0.9v-4.6l-1.4,0.8v-2l2.4-1.4l0.8,0v7.3h0.9v1.6h-3.8V241.5z"/>
		<path class="st3" d="M373.2,241.6l3.1-3.3c0.3-0.3,0.5-0.5,0.6-0.8s0.2-0.5,0.2-0.8c0-0.1,0-0.2-0.1-0.3s-0.1-0.2-0.2-0.3
			s-0.2-0.2-0.3-0.2s-0.3-0.1-0.4-0.1c-0.2,0-0.4,0-0.5,0.1s-0.3,0.1-0.4,0.2s-0.2,0.2-0.2,0.4s-0.1,0.3-0.1,0.4h-1.8
			c0-0.5,0.1-0.9,0.2-1.2s0.4-0.7,0.6-0.9s0.6-0.4,0.9-0.6s0.7-0.2,1.2-0.2c0.4,0,0.8,0.1,1.1,0.2s0.7,0.3,0.9,0.5s0.5,0.5,0.6,0.8
			s0.2,0.7,0.2,1.1c0,0.3-0.1,0.7-0.2,1s-0.3,0.6-0.6,0.8l-2.5,2.7h3.3v1.8h-5.8V241.6z"/>
	</g>
	<g class="st2">
		<path class="st3" d="M342.4,241.5h0.9v-4.6l-1.4,0.8v-2l2.4-1.4l0.8,0v7.3h0.9v1.6h-3.8V241.5z"/>
		<path class="st3" d="M347.2,241.5h0.9v-4.6l-1.4,0.8v-2l2.4-1.4l0.8,0v7.3h0.9v1.6h-3.8V241.5z"/>
	</g>
	<g class="st2">
		<path class="st3" d="M290.9,243.1l1.8-3.2c-0.1,0-0.2,0-0.3,0s-0.2,0-0.3,0c-0.3-0.1-0.6-0.2-0.9-0.3s-0.5-0.4-0.8-0.6
			s-0.4-0.5-0.5-0.8s-0.2-0.6-0.2-1c0-0.4,0.1-0.8,0.2-1.2s0.4-0.7,0.7-0.9s0.6-0.5,1-0.6s0.8-0.2,1.2-0.2c0.4,0,0.8,0.1,1.2,0.2
			s0.7,0.4,1,0.6s0.5,0.6,0.7,0.9s0.2,0.7,0.2,1.1c0,0.2,0,0.4-0.1,0.6s-0.1,0.4-0.2,0.5s-0.1,0.3-0.2,0.5s-0.2,0.3-0.3,0.5l-2.2,4
			H290.9z M292.9,238.3c0.2,0,0.4,0,0.6-0.1s0.3-0.2,0.5-0.4c0.1-0.1,0.1-0.2,0.1-0.3s0.1-0.2,0.1-0.4c0-0.1,0-0.3-0.1-0.4
			s-0.1-0.3-0.2-0.4s-0.2-0.2-0.4-0.3s-0.4-0.1-0.6-0.1c-0.2,0-0.3,0-0.5,0.1s-0.3,0.1-0.4,0.2s-0.2,0.2-0.3,0.4s-0.1,0.3-0.1,0.5
			c0,0.2,0,0.3,0.1,0.5s0.2,0.3,0.3,0.4s0.3,0.2,0.4,0.2S292.7,238.3,292.9,238.3z"/>
	</g>
	<g class="st2">
		<path class="st3" d="M265.8,234.1c0.4,0,0.8,0.1,1.1,0.2s0.7,0.3,0.9,0.6s0.5,0.5,0.6,0.8s0.2,0.7,0.2,1c0,0.3-0.1,0.7-0.2,1
			s-0.4,0.6-0.6,0.8c0.3,0.2,0.6,0.5,0.8,0.9s0.3,0.7,0.3,1.1c0,0.4-0.1,0.7-0.2,1.1s-0.4,0.6-0.7,0.9s-0.6,0.5-1,0.6
			s-0.8,0.2-1.2,0.2c-0.3,0-0.6,0-0.8-0.1s-0.5-0.2-0.7-0.3s-0.4-0.3-0.6-0.5s-0.3-0.4-0.5-0.6s-0.2-0.4-0.3-0.7s-0.1-0.5-0.1-0.7
			c0-0.4,0.1-0.8,0.3-1.1s0.5-0.6,0.8-0.9c-0.3-0.2-0.5-0.5-0.6-0.8s-0.2-0.6-0.2-0.9c0-0.4,0.1-0.7,0.2-1s0.4-0.6,0.6-0.8
			s0.6-0.4,0.9-0.6S265.4,234.1,265.8,234.1z M264.4,240.4c0,0.2,0,0.3,0.1,0.5s0.2,0.3,0.3,0.4s0.3,0.2,0.4,0.3s0.3,0.1,0.5,0.1
			c0.2,0,0.4,0,0.5-0.1s0.3-0.2,0.4-0.3s0.2-0.2,0.3-0.4s0.1-0.3,0.1-0.5c0-0.2,0-0.3-0.1-0.4s-0.2-0.3-0.3-0.4s-0.3-0.2-0.4-0.3
			s-0.3-0.1-0.5-0.1c-0.2,0-0.4,0-0.5,0.1s-0.3,0.1-0.4,0.3s-0.2,0.2-0.3,0.4S264.4,240.2,264.4,240.4z M264.6,236.8
			c0,0.1,0,0.3,0.1,0.4s0.1,0.2,0.2,0.3s0.2,0.2,0.4,0.2s0.3,0.1,0.5,0.1s0.3,0,0.5-0.1s0.3-0.1,0.4-0.2s0.2-0.2,0.3-0.3
			s0.1-0.2,0.1-0.4c0-0.1,0-0.3-0.1-0.4s-0.1-0.2-0.3-0.3s-0.2-0.2-0.4-0.2s-0.3-0.1-0.5-0.1s-0.3,0-0.5,0.1s-0.3,0.1-0.4,0.2
			s-0.2,0.2-0.2,0.3S264.6,236.6,264.6,236.8z"/>
	</g>
	<g class="st2">
		<path class="st3" d="M236.4,241.5h0.6c0.2-0.5,0.4-0.9,0.6-1.4s0.4-0.9,0.6-1.4s0.4-0.9,0.6-1.4s0.4-0.9,0.6-1.3H237v1h-1.7v-2.8
			h6.5v1.3c-0.5,0.9-0.9,1.9-1.4,2.9s-0.9,2-1.4,3h0.6v1.6h-3.2V241.5z"/>
	</g>
	<g class="st2">
		<path class="st3" d="M240.5,207.2l-1.8,3.2c0.1,0,0.2,0,0.3,0s0.2,0,0.3,0c0.3,0.1,0.6,0.2,0.9,0.3s0.5,0.4,0.8,0.6
			s0.4,0.5,0.5,0.8s0.2,0.6,0.2,1c0,0.4-0.1,0.8-0.2,1.2s-0.4,0.7-0.7,0.9s-0.6,0.5-1,0.6s-0.8,0.2-1.2,0.2c-0.4,0-0.8-0.1-1.2-0.2
			s-0.7-0.4-1-0.6s-0.5-0.6-0.7-0.9s-0.2-0.7-0.2-1.1c0-0.2,0-0.4,0.1-0.6s0.1-0.4,0.2-0.5s0.1-0.3,0.2-0.5s0.2-0.3,0.3-0.5l2.2-4
			H240.5z M238.5,212.1c-0.2,0-0.5,0-0.6,0.1s-0.4,0.2-0.5,0.4c-0.1,0.1-0.1,0.2-0.1,0.3s0,0.2,0,0.4s0,0.3,0.1,0.4s0.1,0.3,0.2,0.4
			s0.2,0.2,0.4,0.3s0.4,0.1,0.6,0.1c0.2,0,0.3,0,0.5-0.1s0.3-0.1,0.4-0.2s0.2-0.2,0.3-0.4s0.1-0.3,0.1-0.5c0-0.2,0-0.3-0.1-0.5
			s-0.2-0.3-0.3-0.4s-0.3-0.2-0.4-0.2S238.7,212.1,238.5,212.1z"/>
	</g>
	<g class="st2">
		<path class="st3" d="M237.5,183.7c0.2-0.1,0.4-0.1,0.6-0.2s0.5-0.1,0.7-0.1c0.4,0,0.8,0.1,1.1,0.2s0.7,0.3,0.9,0.5
			s0.5,0.5,0.6,0.9s0.2,0.8,0.2,1.2c0,0.5-0.1,0.9-0.3,1.3s-0.4,0.7-0.7,0.9s-0.6,0.4-1,0.6s-0.7,0.2-1.1,0.2c-0.4,0-0.7,0-1.1-0.1
			s-0.6-0.2-0.9-0.4s-0.5-0.4-0.7-0.7s-0.3-0.6-0.4-1l1.8-0.5c0,0.2,0.1,0.3,0.1,0.5s0.2,0.3,0.3,0.4s0.2,0.2,0.4,0.2
			s0.3,0.1,0.5,0.1c0.2,0,0.4,0,0.5-0.1s0.3-0.2,0.4-0.3s0.2-0.3,0.3-0.4s0.1-0.3,0.1-0.5c0-0.2,0-0.3-0.1-0.5s-0.2-0.3-0.3-0.4
			s-0.3-0.2-0.4-0.3s-0.3-0.1-0.5-0.1c-0.3,0-0.5,0-0.7,0.1s-0.4,0.1-0.6,0.2l-1.6-0.3v-4.7h5.6v1.8h-3.9V183.7z"/>
	</g>
	<g class="st2">
		<path class="st3" d="M368.3,79.5h0.9v-4.6l-1.4,0.8v-2l2.4-1.4l0.8,0v7.3h0.9v1.6h-3.8V79.5z"/>
		<path class="st3" d="M376.2,72.1c0.4,0,0.8,0.1,1.1,0.2s0.7,0.3,0.9,0.6s0.5,0.5,0.6,0.8s0.2,0.7,0.2,1c0,0.3-0.1,0.7-0.2,1
			s-0.4,0.6-0.6,0.8c0.3,0.2,0.6,0.5,0.8,0.9s0.3,0.7,0.3,1.1c0,0.4-0.1,0.7-0.2,1.1s-0.4,0.6-0.7,0.9s-0.6,0.5-1,0.6
			s-0.8,0.2-1.2,0.2c-0.3,0-0.6,0-0.8-0.1s-0.5-0.2-0.7-0.3s-0.4-0.3-0.6-0.5s-0.3-0.4-0.5-0.6s-0.2-0.4-0.3-0.7s-0.1-0.5-0.1-0.7
			c0-0.4,0.1-0.8,0.3-1.1s0.5-0.6,0.8-0.9c-0.3-0.2-0.5-0.5-0.6-0.8s-0.2-0.6-0.2-0.9c0-0.4,0.1-0.7,0.2-1s0.4-0.6,0.6-0.8
			s0.6-0.4,0.9-0.6S375.8,72.1,376.2,72.1z M374.8,78.4c0,0.2,0,0.3,0.1,0.5s0.2,0.3,0.3,0.4s0.3,0.2,0.4,0.3s0.3,0.1,0.5,0.1
			c0.2,0,0.4,0,0.5-0.1s0.3-0.2,0.4-0.3s0.2-0.2,0.3-0.4s0.1-0.3,0.1-0.5c0-0.2,0-0.3-0.1-0.4s-0.2-0.3-0.3-0.4s-0.3-0.2-0.4-0.3
			s-0.3-0.1-0.5-0.1c-0.2,0-0.4,0-0.5,0.1s-0.3,0.1-0.4,0.3s-0.2,0.2-0.3,0.4S374.8,78.2,374.8,78.4z M375,74.8c0,0.1,0,0.3,0.1,0.4
			s0.1,0.2,0.2,0.3s0.2,0.2,0.4,0.2s0.3,0.1,0.5,0.1s0.3,0,0.5-0.1s0.3-0.1,0.4-0.2s0.2-0.2,0.3-0.3s0.1-0.2,0.1-0.4
			c0-0.1,0-0.3-0.1-0.4s-0.1-0.2-0.3-0.3s-0.2-0.2-0.4-0.2s-0.3-0.1-0.5-0.1s-0.3,0-0.5,0.1s-0.3,0.1-0.4,0.2s-0.2,0.2-0.2,0.3
			S375,74.6,375,74.8z"/>
	</g>
	<g class="st2">
		<path class="st3" d="M368.4,52.5h0.9v-4.6l-1.4,0.8v-2l2.4-1.4l0.8,0v7.3h0.9v1.6h-3.8V52.5z"/>
		<path class="st3" d="M374.3,54.1l1.8-3.2c-0.1,0-0.2,0-0.3,0s-0.2,0-0.3,0c-0.3-0.1-0.6-0.2-0.9-0.3s-0.5-0.4-0.8-0.6
			s-0.4-0.5-0.5-0.8s-0.2-0.6-0.2-1c0-0.4,0.1-0.8,0.2-1.2s0.4-0.7,0.7-0.9s0.6-0.5,1-0.6s0.8-0.2,1.2-0.2c0.4,0,0.8,0.1,1.2,0.2
			s0.7,0.4,1,0.6s0.5,0.6,0.7,0.9s0.2,0.7,0.2,1.1c0,0.2,0,0.4-0.1,0.6s-0.1,0.4-0.2,0.5s-0.1,0.3-0.2,0.5s-0.2,0.3-0.3,0.5l-2.2,4
			H374.3z M376.3,49.3c0.2,0,0.4,0,0.6-0.1s0.3-0.2,0.5-0.4c0.1-0.1,0.1-0.2,0.1-0.3s0.1-0.2,0.1-0.4c0-0.1,0-0.3-0.1-0.4
			s-0.1-0.3-0.2-0.4s-0.2-0.2-0.4-0.3s-0.4-0.1-0.6-0.1c-0.2,0-0.3,0-0.5,0.1s-0.3,0.1-0.4,0.2s-0.2,0.2-0.3,0.4s-0.1,0.3-0.1,0.5
			c0,0.2,0,0.3,0.1,0.5s0.2,0.3,0.3,0.4s0.3,0.2,0.4,0.2S376.1,49.3,376.3,49.3z"/>
	</g>
	<g class="st2">
		<path class="st3" d="M314,241.5h0.9v-4.6l-1.4,0.8v-2l2.4-1.4l0.8,0v7.3h0.9v1.6H314V241.5z"/>
		<path class="st3" d="M322.1,243.2c-0.6,0-1.2-0.1-1.6-0.3s-0.8-0.5-1.1-1s-0.5-0.9-0.6-1.4s-0.2-1.1-0.2-1.8
			c0-0.6,0.1-1.2,0.2-1.8s0.3-1,0.6-1.5s0.6-0.7,1.1-1s1-0.4,1.6-0.4c0.6,0,1.2,0.1,1.6,0.4s0.8,0.6,1.1,1s0.5,0.9,0.6,1.4
			s0.2,1.1,0.2,1.8c0,0.6-0.1,1.2-0.2,1.8s-0.3,1-0.6,1.4s-0.6,0.7-1.1,1S322.7,243.2,322.1,243.2z M322.1,241.4
			c0.3,0,0.6-0.1,0.8-0.2s0.4-0.3,0.5-0.6s0.2-0.5,0.2-0.9s0-0.7,0-1.1c0-0.4,0-0.7,0-1.1s-0.1-0.6-0.2-0.9s-0.3-0.4-0.5-0.6
			s-0.5-0.2-0.8-0.2c-0.3,0-0.6,0.1-0.8,0.2s-0.4,0.3-0.5,0.6s-0.2,0.5-0.2,0.9s0,0.7,0,1.1c0,0.4,0,0.8,0,1.1s0.1,0.6,0.2,0.9
			s0.3,0.4,0.5,0.6S321.7,241.4,322.1,241.4z"/>
	</g>
	<line class="st4" x1="360" y1="234" x2="360" y2="225"/>
	<line class="st4" x1="369" y1="225" x2="360" y2="225"/>
	<line class="st4" x1="243" y1="225" x2="252" y2="225"/>
	<line class="st4" x1="252" y1="234" x2="252" y2="225"/>
	<g class="st2">
		<defs>
			<rect id="SVGID_5_" x="207" width="198" height="270"/>
		</defs>
		<clipPath id="SVGID_6_">
			<use xlink:href="#SVGID_5_"  style="overflow:visible;"/>
		</clipPath>
		<g class="st5">
			<g>
				<defs>
					<rect id="SVGID_7_" x="224.3" y="17.3" width="163.5" height="235.5"/>
				</defs>
				<clipPath id="SVGID_8_">
					<use xlink:href="#SVGID_7_"  style="overflow:visible;"/>
				</clipPath>
				<rect x="360" y="225" class="st6" width="27" height="27"/>
				<rect x="225" y="225" class="st6" width="27" height="27"/>
				<rect x="225" y="18" class="st6" width="162" height="234"/>
				<rect x="252" y="18" class="st6" width="108" height="207"/>
			</g>
		</g>
	</g>
	<g class="st2">
		<path class="st3" d="M240.4,31.8v-3.6c-0.3,0.6-0.7,1.2-1.1,1.6s-0.9,0.8-1.5,1.1s-1.1,0.5-1.8,0.7s-1.3,0.2-1.9,0.2
			c-1.2,0-2.2-0.2-3.2-0.6s-1.9-1-2.7-1.8s-1.4-1.8-1.8-3s-0.6-2.4-0.6-3.6c0-1.3,0.2-2.5,0.6-3.6s1-2.1,1.8-2.9s1.7-1.5,2.7-2
			s2.2-0.7,3.4-0.7c1.1,0,2.1,0.2,2.9,0.5s1.5,0.7,2.1,1.2s1,0.9,1.4,1.3h1.1v2.1h-2.5c-0.5-0.9-1.2-1.6-2.1-2.1s-1.8-0.8-2.9-0.8
			c-0.9,0-1.7,0.2-2.5,0.6s-1.4,0.9-1.9,1.5s-1,1.4-1.2,2.2s-0.4,1.7-0.4,2.7c0,1,0.2,2,0.5,2.9s0.7,1.6,1.3,2.2s1.1,1,1.9,1.4
			s1.6,0.5,2.5,0.5c1.5,0,2.7-0.4,3.7-1.1s1.6-1.9,2-3.4h-5v-2h7.5v8.5H240.4z"/>
		<path class="st3" d="M248,25.9c0,0.3,0,0.7,0.1,0.9s0.1,0.6,0.2,0.8c0.3,0.8,0.8,1.4,1.4,1.8s1.4,0.6,2.2,0.6
			c0.6,0,1.2-0.1,1.8-0.3s1.2-0.5,1.9-0.8l0.9,1.5c-0.8,0.5-1.6,1-2.4,1.2s-1.6,0.4-2.5,0.4c-0.8,0-1.6-0.1-2.3-0.4
			s-1.3-0.7-1.8-1.2s-0.9-1.2-1.2-2s-0.4-1.7-0.4-2.8c0-0.9,0.1-1.7,0.4-2.5s0.6-1.4,1.1-2s1.1-1,1.8-1.4s1.5-0.5,2.5-0.5
			c0.9,0,1.7,0.1,2.3,0.4s1.1,0.6,1.5,1.1s0.7,1,0.9,1.6s0.3,1.2,0.4,1.8c0,0.3,0.1,0.6,0.1,0.9s0,0.6,0,0.9H248z M251.4,21.1
			c-0.5,0-1,0.1-1.3,0.2s-0.7,0.4-1,0.6s-0.5,0.6-0.6,1s-0.3,0.8-0.4,1.3h6.3c0-0.5-0.1-0.9-0.2-1.3s-0.3-0.7-0.5-1
			s-0.5-0.5-0.9-0.7S251.9,21.1,251.4,21.1z"/>
		<path class="st3" d="M259.7,19.6h3.9V21h0c0.3-0.2,0.5-0.4,0.8-0.6s0.6-0.4,0.9-0.5s0.7-0.3,1-0.4s0.7-0.1,1.1-0.1
			c0.9,0,1.6,0.2,2.3,0.5s1.1,0.8,1.5,1.5c0.3-0.3,0.6-0.5,0.9-0.8s0.7-0.5,1-0.6s0.7-0.3,1.1-0.4s0.8-0.2,1.2-0.2
			c0.7,0,1.2,0.1,1.8,0.3s1,0.5,1.3,0.8s0.6,0.8,0.8,1.4s0.3,1.3,0.3,2v5.8h1.7v2h-5.7v-2h1.7v-5.5c0-0.9-0.2-1.6-0.7-2.1
			s-1.1-0.7-2-0.7c-0.5,0-1.1,0.1-1.6,0.4s-1,0.6-1.4,0.9v7.1h1.7v2h-5.7v-2h1.7v-5.5c0-0.9-0.2-1.6-0.7-2.1s-1.2-0.7-2-0.7
			c-0.5,0-1,0.1-1.5,0.4s-1,0.5-1.5,0.9v7.1h1.7v2h-5.7v-2h1.7v-8.1h-1.7V19.6z"/>
		<path class="st3" d="M290.5,22c-0.2-0.2-0.3-0.4-0.6-0.6s-0.5-0.3-0.8-0.3s-0.6-0.1-0.9-0.1c-0.3,0-0.6,0-0.9,0.1
			s-0.5,0.2-0.7,0.3s-0.3,0.3-0.4,0.5s-0.2,0.4-0.2,0.6c0,0.4,0.1,0.7,0.4,1s0.7,0.5,1.2,0.7L290,25c1,0.3,1.7,0.8,2.2,1.4
			s0.7,1.3,0.7,2.1c0,0.5-0.1,1-0.3,1.5s-0.5,0.8-0.9,1.1s-0.9,0.6-1.4,0.7s-1.2,0.3-1.9,0.3c-0.9,0-1.7-0.2-2.3-0.5
			s-1.1-0.7-1.4-1.2h-1.2v-2h2.4c0,0.3,0.1,0.6,0.2,0.9s0.3,0.4,0.6,0.6s0.5,0.3,0.8,0.3s0.6,0.1,0.9,0.1c0.3,0,0.6,0,0.9-0.1
			s0.5-0.2,0.7-0.3s0.4-0.3,0.5-0.5s0.2-0.4,0.2-0.7c0-0.4-0.1-0.7-0.4-1s-0.7-0.5-1.3-0.7l-2.3-0.9c-0.9-0.3-1.6-0.8-2.1-1.3
			s-0.7-1.2-0.7-2c0-0.5,0.1-1,0.3-1.4s0.5-0.8,0.8-1.1s0.8-0.6,1.3-0.7s1.1-0.3,1.8-0.3c0.9,0,1.6,0.1,2.2,0.4s1.1,0.7,1.6,1.2h1.1
			v2h-2.4C290.7,22.5,290.6,22.2,290.5,22z"/>
	</g>
	<g class="st2">
		<path class="st3" d="M367,25.6l3.1-3.3c0.3-0.3,0.5-0.5,0.6-0.8s0.2-0.5,0.2-0.8c0-0.1,0-0.2-0.1-0.3s-0.1-0.2-0.2-0.3
			s-0.2-0.2-0.3-0.2s-0.3-0.1-0.4-0.1c-0.2,0-0.4,0-0.5,0.1s-0.3,0.1-0.4,0.2s-0.2,0.2-0.2,0.4s-0.1,0.3-0.1,0.4h-1.8
			c0-0.5,0.1-0.9,0.2-1.2s0.4-0.7,0.6-0.9s0.6-0.4,0.9-0.6s0.7-0.2,1.2-0.2c0.4,0,0.8,0.1,1.1,0.2s0.7,0.3,0.9,0.5s0.5,0.5,0.6,0.8
			s0.2,0.7,0.2,1.1c0,0.3-0.1,0.7-0.2,1s-0.3,0.6-0.6,0.8l-2.5,2.7h3.3v1.8H367V25.6z"/>
		<path class="st3" d="M377.1,27.2c-0.6,0-1.2-0.1-1.6-0.3s-0.8-0.5-1.1-1s-0.5-0.9-0.6-1.4s-0.2-1.1-0.2-1.8c0-0.6,0.1-1.2,0.2-1.8
			s0.3-1,0.6-1.5s0.6-0.7,1.1-1s1-0.4,1.6-0.4c0.6,0,1.2,0.1,1.6,0.4s0.8,0.6,1.1,1s0.5,0.9,0.6,1.4s0.2,1.1,0.2,1.8
			c0,0.6-0.1,1.2-0.2,1.8s-0.3,1-0.6,1.4s-0.6,0.7-1.1,1S377.7,27.2,377.1,27.2z M377.1,25.4c0.3,0,0.6-0.1,0.8-0.2s0.4-0.3,0.5-0.6
			s0.2-0.5,0.2-0.9s0-0.7,0-1.1c0-0.4,0-0.7,0-1.1s-0.1-0.6-0.2-0.9s-0.3-0.4-0.5-0.6s-0.5-0.2-0.8-0.2c-0.3,0-0.6,0.1-0.8,0.2
			s-0.4,0.3-0.5,0.6s-0.2,0.5-0.2,0.9s0,0.7,0,1.1c0,0.4,0,0.8,0,1.1s0.1,0.6,0.2,0.9s0.3,0.4,0.5,0.6S376.7,25.4,377.1,25.4z"/>
	</g>
	<polygon class="st1" points="283.5,108 297,103.5 315,103.5 328.5,108 337.5,117 306,157.5 274.5,117 	"/>
	<polyline class="st1" points="283.5,108 297,112.5 315,112.5 328.5,108 	"/>
	<polyline class="st1" points="297,112.5 288,121.5 306,157.5 324,121.5 315,112.5 	"/>
	<polyline class="st1" points="274.5,117 288,121.5 324,121.5 337.5,117 	"/>
</g>
<g>
	<defs>
		<rect id="SVGID_3_" x="207" y="36" width="54" height="27"/>
	</defs>
	<clipPath id="SVGID_9_">
		<use xlink:href="#SVGID_3_"  style="overflow:visible;"/>
	</clipPath>
	<path class="st7" d="M207,49.5c0,7.5,6,13.5,13.5,13.5h27c7.5,0,13.5-6,13.5-13.5S255,36,247.5,36h-27C213,36,207,42,207,49.5
		L207,49.5 M225,56.3V54v-9v-2.3h20.3c3.7,0,6.8,3,6.8,6.8c0,3.7-3,6.8-6.8,6.8H225z"/>
</g>
<g>
	<defs>
		<rect id="SVGID_10_" width="198" height="270"/>
	</defs>
	<clipPath id="SVGID_11_">
		<use xlink:href="#SVGID_10_"  style="overflow:visible;"/>
	</clipPath>
	<rect x="9" y="9" class="st8" width="180" height="252"/>
	<line class="st9" x1="18" y1="36" x2="99" y2="36"/>
	<line class="st9" x1="18" y1="63" x2="45" y2="63"/>
	<line class="st9" x1="18" y1="90" x2="45" y2="90"/>
	<line class="st9" x1="18" y1="117" x2="45" y2="117"/>
	<line class="st9" x1="18" y1="144" x2="45" y2="144"/>
	<line class="st9" x1="18" y1="171" x2="45" y2="171"/>
	<line class="st9" x1="18" y1="198" x2="45" y2="198"/>
	<line class="st9" x1="18" y1="225" x2="45" y2="225"/>
	<line class="st9" x1="45" y1="252" x2="45" y2="225"/>
	<line class="st9" x1="72" y1="225" x2="72" y2="252"/>
	<line class="st9" x1="99" y1="225" x2="99" y2="252"/>
	<line class="st9" x1="126" y1="225" x2="126" y2="252"/>
	<line class="st9" x1="153" y1="252" x2="153" y2="225"/>
	<line class="st9" x1="180" y1="225" x2="153" y2="225"/>
	<line class="st9" x1="153" y1="198" x2="180" y2="198"/>
	<line class="st9" x1="153" y1="171" x2="180" y2="171"/>
	<line class="st9" x1="153" y1="144" x2="180" y2="144"/>
	<line class="st9" x1="153" y1="117" x2="180" y2="117"/>
	<line class="st9" x1="153" y1="90" x2="180" y2="90"/>
	<line class="st9" x1="153" y1="63" x2="180" y2="63"/>
	<line class="st9" x1="153" y1="36" x2="180" y2="36"/>
	<g class="st10">
		<path class="st3" d="M161.3,106.5h0.9v-4.6l-1.4,0.8v-2l2.4-1.4l0.8,0v7.3h0.9v1.6h-3.8V106.5z"/>
		<path class="st3" d="M166.7,106.5h0.6c0.2-0.5,0.4-0.9,0.6-1.4s0.4-0.9,0.6-1.4s0.4-0.9,0.6-1.4s0.4-0.9,0.6-1.3h-2.5v1h-1.7v-2.8
			h6.5v1.3c-0.5,0.9-0.9,1.9-1.4,2.9s-0.9,2-1.4,3h0.6v1.6h-3.2V106.5z"/>
	</g>
	<g class="st10">
		<path class="st3" d="M161.4,133.5h0.9v-4.6l-1.4,0.8v-2l2.4-1.4l0.8,0v7.3h0.9v1.6h-3.8V133.5z"/>
		<path class="st3" d="M170.8,126.2l-1.8,3.2c0.1,0,0.2,0,0.3,0s0.2,0,0.3,0c0.3,0.1,0.6,0.2,0.9,0.3s0.5,0.4,0.8,0.6
			s0.4,0.5,0.5,0.8s0.2,0.6,0.2,1c0,0.4-0.1,0.8-0.2,1.2s-0.4,0.7-0.7,0.9s-0.6,0.5-1,0.6s-0.8,0.2-1.2,0.2c-0.4,0-0.8-0.1-1.2-0.2
			s-0.7-0.4-1-0.6s-0.5-0.6-0.7-0.9s-0.2-0.7-0.2-1.1c0-0.2,0-0.4,0.1-0.6s0.1-0.4,0.2-0.5s0.1-0.3,0.2-0.5s0.2-0.3,0.3-0.5l2.2-4
			H170.8z M168.9,131.1c-0.2,0-0.5,0-0.6,0.1s-0.4,0.2-0.5,0.4c-0.1,0.1-0.1,0.2-0.1,0.3s0,0.2,0,0.4s0,0.3,0.1,0.4s0.1,0.3,0.2,0.4
			s0.2,0.2,0.4,0.3s0.4,0.1,0.6,0.1c0.2,0,0.3,0,0.5-0.1s0.3-0.1,0.4-0.2s0.2-0.2,0.3-0.4s0.1-0.3,0.1-0.5c0-0.2,0-0.3-0.1-0.5
			s-0.2-0.3-0.3-0.4s-0.3-0.2-0.4-0.2S169.1,131.1,168.9,131.1z"/>
	</g>
	<g class="st10">
		<path class="st3" d="M161.3,160.5h0.9v-4.6l-1.4,0.8v-2l2.4-1.4l0.8,0v7.3h0.9v1.6h-3.8V160.5z"/>
		<path class="st3" d="M167.9,156.7c0.2-0.1,0.4-0.1,0.6-0.2s0.5-0.1,0.7-0.1c0.4,0,0.8,0.1,1.1,0.2s0.7,0.3,0.9,0.5
			s0.5,0.5,0.6,0.9s0.2,0.8,0.2,1.2c0,0.5-0.1,0.9-0.3,1.3s-0.4,0.7-0.7,0.9s-0.6,0.4-1,0.6s-0.7,0.2-1.1,0.2c-0.4,0-0.7,0-1.1-0.1
			s-0.6-0.2-0.9-0.4s-0.5-0.4-0.7-0.7s-0.3-0.6-0.4-1l1.8-0.5c0,0.2,0.1,0.3,0.1,0.5s0.2,0.3,0.3,0.4s0.2,0.2,0.4,0.2
			s0.3,0.1,0.5,0.1c0.2,0,0.4,0,0.5-0.1s0.3-0.2,0.4-0.3s0.2-0.3,0.3-0.4s0.1-0.3,0.1-0.5c0-0.2,0-0.3-0.1-0.5s-0.2-0.3-0.3-0.4
			s-0.3-0.2-0.4-0.3s-0.3-0.1-0.5-0.1c-0.3,0-0.5,0-0.7,0.1s-0.4,0.1-0.6,0.2l-1.6-0.3v-4.7h5.6v1.8h-3.9V156.7z"/>
	</g>
	<g class="st10">
		<path class="st3" d="M161.2,187.5h0.9v-4.6l-1.4,0.8v-2l2.4-1.4l0.8,0v7.3h0.9v1.6h-3.8V187.5z"/>
		<path class="st3" d="M165.3,185.2l3.2-5h2l-3.1,5h1.9v-1.7l1.8,0v1.7h1.2v1.5h-1.2v0.8h1.1v1.6h-3.8v-1.6h0.8v-0.8h-3.9V185.2z"/>
	</g>
	<g class="st10">
		<path class="st3" d="M161.6,214.5h0.9v-4.6l-1.4,0.8v-2l2.4-1.4l0.8,0v7.3h0.9v1.6h-3.8V214.5z"/>
		<path class="st3" d="M170,209.8c0-0.1,0-0.2-0.1-0.4s-0.1-0.2-0.2-0.3s-0.2-0.2-0.4-0.2s-0.3-0.1-0.5-0.1c-0.1,0-0.3,0-0.4,0.1
			s-0.2,0.1-0.3,0.2s-0.2,0.2-0.2,0.3s-0.1,0.3-0.1,0.5l-1.8,0c0-0.4,0.1-0.7,0.2-1.1s0.3-0.6,0.6-0.9s0.6-0.5,0.9-0.6
			s0.8-0.2,1.2-0.2c0.4,0,0.8,0.1,1.2,0.2s0.7,0.3,0.9,0.6s0.5,0.5,0.6,0.8s0.2,0.6,0.2,1c0,0.4-0.1,0.7-0.2,1s-0.4,0.6-0.6,0.8
			c0.1,0.1,0.3,0.2,0.4,0.3s0.2,0.3,0.3,0.4s0.2,0.4,0.2,0.6s0.1,0.4,0.1,0.6c0,0.4-0.1,0.7-0.2,1.1s-0.4,0.6-0.6,0.9
			s-0.6,0.5-1,0.6s-0.8,0.2-1.2,0.2c-0.4,0-0.8-0.1-1.1-0.2s-0.7-0.3-0.9-0.5s-0.5-0.5-0.6-0.8s-0.3-0.6-0.3-0.8s0-0.4,0-0.6h1.8
			c0,0.4,0.1,0.7,0.4,0.9s0.5,0.3,0.9,0.3c0.2,0,0.3,0,0.5-0.1s0.3-0.1,0.4-0.2s0.2-0.2,0.3-0.3s0.1-0.3,0.1-0.4
			c0-0.2,0-0.3-0.1-0.4s-0.1-0.3-0.2-0.3s-0.2-0.2-0.4-0.2s-0.3-0.1-0.5-0.1H168v-1.6h0.8c0.2,0,0.3,0,0.5-0.1s0.2-0.1,0.3-0.2
			s0.2-0.2,0.2-0.3S170,209.9,170,209.8z"/>
	</g>
	<g class="st10">
		<path class="st3" d="M28,158.2l3.2-5h2l-3.1,5h1.9v-1.7l1.8,0v1.7h1.2v1.5h-1.2v0.8h1.1v1.6H31v-1.6h0.8v-0.8H28V158.2z"/>
	</g>
	<g class="st10">
		<path class="st3" d="M32.6,128.8c0-0.1,0-0.2-0.1-0.4s-0.1-0.2-0.2-0.3s-0.2-0.2-0.4-0.2s-0.3-0.1-0.5-0.1c-0.1,0-0.3,0-0.4,0.1
			s-0.2,0.1-0.3,0.2s-0.2,0.2-0.2,0.3s-0.1,0.3-0.1,0.5l-1.8,0c0-0.4,0.1-0.7,0.2-1.1s0.3-0.6,0.6-0.9s0.6-0.5,0.9-0.6
			s0.8-0.2,1.2-0.2c0.4,0,0.8,0.1,1.2,0.2s0.7,0.3,0.9,0.6s0.5,0.5,0.6,0.8s0.2,0.6,0.2,1c0,0.4-0.1,0.7-0.2,1s-0.4,0.6-0.6,0.8
			c0.1,0.1,0.3,0.2,0.4,0.3s0.2,0.3,0.3,0.4s0.2,0.4,0.2,0.6s0.1,0.4,0.1,0.6c0,0.4-0.1,0.7-0.2,1.1s-0.4,0.6-0.6,0.9
			s-0.6,0.5-1,0.6s-0.8,0.2-1.2,0.2c-0.4,0-0.8-0.1-1.1-0.2s-0.7-0.3-0.9-0.5s-0.5-0.5-0.6-0.8s-0.3-0.6-0.3-0.8s0-0.4,0-0.6h1.8
			c0,0.4,0.1,0.7,0.4,0.9s0.5,0.3,0.9,0.3c0.2,0,0.3,0,0.5-0.1s0.3-0.1,0.4-0.2s0.2-0.2,0.3-0.3s0.1-0.3,0.1-0.4
			c0-0.2,0-0.3-0.1-0.4s-0.1-0.3-0.2-0.3s-0.2-0.2-0.4-0.2s-0.3-0.1-0.5-0.1h-0.8v-1.6h0.8c0.2,0,0.3,0,0.5-0.1s0.2-0.1,0.3-0.2
			s0.2-0.2,0.2-0.3S32.6,128.9,32.6,128.8z"/>
	</g>
	<g class="st10">
		<path class="st3" d="M28.8,106.6l3.1-3.3c0.3-0.3,0.5-0.5,0.6-0.8s0.2-0.5,0.2-0.8c0-0.1,0-0.2-0.1-0.3s-0.1-0.2-0.2-0.3
			s-0.2-0.2-0.3-0.2s-0.3-0.1-0.4-0.1c-0.2,0-0.4,0-0.5,0.1s-0.3,0.1-0.4,0.2s-0.2,0.2-0.2,0.4s-0.1,0.3-0.1,0.4h-1.8
			c0-0.5,0.1-0.9,0.2-1.2s0.4-0.7,0.6-0.9s0.6-0.4,0.9-0.6s0.7-0.2,1.2-0.2c0.4,0,0.8,0.1,1.1,0.2s0.7,0.3,0.9,0.5s0.5,0.5,0.6,0.8
			s0.2,0.7,0.2,1.1c0,0.3-0.1,0.7-0.2,1s-0.3,0.6-0.6,0.8l-2.5,2.7h3.3v1.8h-5.8V106.6z"/>
	</g>
	<g class="st10">
		<path class="st3" d="M29.8,79.5h0.9v-4.6l-1.4,0.8v-2l2.4-1.4l0.8,0v7.3h0.9v1.6h-3.8V79.5z"/>
	</g>
	<g class="st10">
		<path class="st3" d="M31.7,54.2c-0.6,0-1.2-0.1-1.6-0.3s-0.8-0.5-1.1-1s-0.5-0.9-0.6-1.4s-0.2-1.1-0.2-1.8c0-0.6,0.1-1.2,0.2-1.8
			s0.3-1,0.6-1.5s0.6-0.7,1.1-1s1-0.4,1.6-0.4c0.6,0,1.2,0.1,1.6,0.4s0.8,0.6,1.1,1s0.5,0.9,0.6,1.4s0.2,1.1,0.2,1.8
			c0,0.6-0.1,1.2-0.2,1.8s-0.3,1-0.6,1.4s-0.6,0.7-1.1,1S32.3,54.2,31.7,54.2z M31.7,52.4c0.3,0,0.6-0.1,0.8-0.2s0.4-0.3,0.5-0.6
			s0.2-0.5,0.2-0.9s0-0.7,0-1.1c0-0.4,0-0.7,0-1.1s-0.1-0.6-0.2-0.9s-0.3-0.4-0.5-0.6s-0.5-0.2-0.8-0.2c-0.3,0-0.6,0.1-0.8,0.2
			s-0.4,0.3-0.5,0.6s-0.2,0.5-0.2,0.9s0,0.7,0,1.1c0,0.4,0,0.8,0,1.1s0.1,0.6,0.2,0.9s0.3,0.4,0.5,0.6S31.3,52.4,31.7,52.4z"/>
	</g>
	<g class="st10">
		<path class="st3" d="M161.3,241.5h0.9v-4.6l-1.4,0.8v-2l2.4-1.4l0.8,0v7.3h0.9v1.6h-3.8V241.5z"/>
		<path class="st3" d="M166.2,241.6l3.1-3.3c0.3-0.3,0.5-0.5,0.6-0.8s0.2-0.5,0.2-0.8c0-0.1,0-0.2-0.1-0.3s-0.1-0.2-0.2-0.3
			s-0.2-0.2-0.3-0.2s-0.3-0.1-0.4-0.1c-0.2,0-0.4,0-0.5,0.1s-0.3,0.1-0.4,0.2s-0.2,0.2-0.2,0.4s-0.1,0.3-0.1,0.4h-1.8
			c0-0.5,0.1-0.9,0.2-1.2s0.4-0.7,0.6-0.9s0.6-0.4,0.9-0.6s0.7-0.2,1.2-0.2c0.4,0,0.8,0.1,1.1,0.2s0.7,0.3,0.9,0.5s0.5,0.5,0.6,0.8
			s0.2,0.7,0.2,1.1c0,0.3-0.1,0.7-0.2,1s-0.3,0.6-0.6,0.8l-2.5,2.7h3.3v1.8h-5.8V241.6z"/>
	</g>
	<g class="st10">
		<path class="st3" d="M135.4,241.5h0.9v-4.6l-1.4,0.8v-2l2.4-1.4l0.8,0v7.3h0.9v1.6h-3.8V241.5z"/>
		<path class="st3" d="M140.2,241.5h0.9v-4.6l-1.4,0.8v-2l2.4-1.4l0.8,0v7.3h0.9v1.6h-3.8V241.5z"/>
	</g>
	<g class="st10">
		<path class="st3" d="M83.9,243.1l1.8-3.2c-0.1,0-0.2,0-0.3,0s-0.2,0-0.3,0c-0.3-0.1-0.6-0.2-0.9-0.3s-0.5-0.4-0.8-0.6
			s-0.4-0.5-0.5-0.8s-0.2-0.6-0.2-1c0-0.4,0.1-0.8,0.2-1.2s0.4-0.7,0.7-0.9s0.6-0.5,1-0.6s0.8-0.2,1.2-0.2c0.4,0,0.8,0.1,1.2,0.2
			s0.7,0.4,1,0.6s0.5,0.6,0.7,0.9s0.2,0.7,0.2,1.1c0,0.2,0,0.4-0.1,0.6s-0.1,0.4-0.2,0.5s-0.1,0.3-0.2,0.5s-0.2,0.3-0.3,0.5l-2.2,4
			H83.9z M85.9,238.3c0.2,0,0.4,0,0.6-0.1s0.3-0.2,0.5-0.4c0.1-0.1,0.1-0.2,0.1-0.3s0.1-0.2,0.1-0.4c0-0.1,0-0.3-0.1-0.4
			s-0.1-0.3-0.2-0.4s-0.2-0.2-0.4-0.3s-0.4-0.1-0.6-0.1c-0.2,0-0.3,0-0.5,0.1s-0.3,0.1-0.4,0.2s-0.2,0.2-0.3,0.4s-0.1,0.3-0.1,0.5
			c0,0.2,0,0.3,0.1,0.5s0.2,0.3,0.3,0.4s0.3,0.2,0.4,0.2S85.7,238.3,85.9,238.3z"/>
	</g>
	<g class="st10">
		<path class="st3" d="M58.8,234.1c0.4,0,0.8,0.1,1.1,0.2s0.7,0.3,0.9,0.6s0.5,0.5,0.6,0.8s0.2,0.7,0.2,1c0,0.3-0.1,0.7-0.2,1
			s-0.4,0.6-0.6,0.8c0.3,0.2,0.6,0.5,0.8,0.9s0.3,0.7,0.3,1.1c0,0.4-0.1,0.7-0.2,1.1s-0.4,0.6-0.7,0.9s-0.6,0.5-1,0.6
			s-0.8,0.2-1.2,0.2c-0.3,0-0.6,0-0.8-0.1s-0.5-0.2-0.7-0.3s-0.4-0.3-0.6-0.5s-0.3-0.4-0.5-0.6s-0.2-0.4-0.3-0.7s-0.1-0.5-0.1-0.7
			c0-0.4,0.1-0.8,0.3-1.1s0.5-0.6,0.8-0.9c-0.3-0.2-0.5-0.5-0.6-0.8s-0.2-0.6-0.2-0.9c0-0.4,0.1-0.7,0.2-1s0.4-0.6,0.6-0.8
			s0.6-0.4,0.9-0.6S58.4,234.1,58.8,234.1z M57.4,240.4c0,0.2,0,0.3,0.1,0.5s0.2,0.3,0.3,0.4s0.3,0.2,0.4,0.3s0.3,0.1,0.5,0.1
			c0.2,0,0.4,0,0.5-0.1s0.3-0.2,0.4-0.3s0.2-0.2,0.3-0.4s0.1-0.3,0.1-0.5c0-0.2,0-0.3-0.1-0.4s-0.2-0.3-0.3-0.4s-0.3-0.2-0.4-0.3
			s-0.3-0.1-0.5-0.1c-0.2,0-0.4,0-0.5,0.1s-0.3,0.1-0.4,0.3s-0.2,0.2-0.3,0.4S57.4,240.2,57.4,240.4z M57.6,236.8
			c0,0.1,0,0.3,0.1,0.4s0.1,0.2,0.2,0.3s0.2,0.2,0.4,0.2s0.3,0.1,0.5,0.1s0.3,0,0.5-0.1s0.3-0.1,0.4-0.2s0.2-0.2,0.3-0.3
			s0.1-0.2,0.1-0.4c0-0.1,0-0.3-0.1-0.4s-0.1-0.2-0.3-0.3s-0.2-0.2-0.4-0.2s-0.3-0.1-0.5-0.1s-0.3,0-0.5,0.1s-0.3,0.1-0.4,0.2
			s-0.2,0.2-0.2,0.3S57.6,236.6,57.6,236.8z"/>
	</g>
	<g class="st10">
		<path class="st3" d="M29.4,241.5H30c0.2-0.5,0.4-0.9,0.6-1.4s0.4-0.9,0.6-1.4s0.4-0.9,0.6-1.4s0.4-0.9,0.6-1.3H30v1h-1.7v-2.8h6.5
			v1.3c-0.5,0.9-0.9,1.9-1.4,2.9s-0.9,2-1.4,3h0.6v1.6h-3.2V241.5z"/>
	</g>
	<g class="st10">
		<path class="st3" d="M33.5,207.2l-1.8,3.2c0.1,0,0.2,0,0.3,0s0.2,0,0.3,0c0.3,0.1,0.6,0.2,0.9,0.3s0.5,0.4,0.8,0.6
			s0.4,0.5,0.5,0.8s0.2,0.6,0.2,1c0,0.4-0.1,0.8-0.2,1.2s-0.4,0.7-0.7,0.9s-0.6,0.5-1,0.6s-0.8,0.2-1.2,0.2c-0.4,0-0.8-0.1-1.2-0.2
			s-0.7-0.4-1-0.6s-0.5-0.6-0.7-0.9s-0.2-0.7-0.2-1.1c0-0.2,0-0.4,0.1-0.6s0.1-0.4,0.2-0.5s0.1-0.3,0.2-0.5s0.2-0.3,0.3-0.5l2.2-4
			H33.5z M31.5,212.1c-0.2,0-0.5,0-0.6,0.1s-0.4,0.2-0.5,0.4c-0.1,0.1-0.1,0.2-0.1,0.3s0,0.2,0,0.4s0,0.3,0.1,0.4s0.1,0.3,0.2,0.4
			s0.2,0.2,0.4,0.3s0.4,0.1,0.6,0.1c0.2,0,0.3,0,0.5-0.1s0.3-0.1,0.4-0.2s0.2-0.2,0.3-0.4s0.1-0.3,0.1-0.5c0-0.2,0-0.3-0.1-0.5
			s-0.2-0.3-0.3-0.4s-0.3-0.2-0.4-0.2S31.7,212.1,31.5,212.1z"/>
	</g>
	<g class="st10">
		<path class="st3" d="M30.5,183.7c0.2-0.1,0.4-0.1,0.6-0.2s0.5-0.1,0.7-0.1c0.4,0,0.8,0.1,1.1,0.2s0.7,0.3,0.9,0.5s0.5,0.5,0.6,0.9
			s0.2,0.8,0.2,1.2c0,0.5-0.1,0.9-0.3,1.3s-0.4,0.7-0.7,0.9s-0.6,0.4-1,0.6s-0.7,0.2-1.1,0.2c-0.4,0-0.7,0-1.1-0.1s-0.6-0.2-0.9-0.4
			s-0.5-0.4-0.7-0.7s-0.3-0.6-0.4-1l1.8-0.5c0,0.2,0.1,0.3,0.1,0.5s0.2,0.3,0.3,0.4s0.2,0.2,0.4,0.2s0.3,0.1,0.5,0.1
			c0.2,0,0.4,0,0.5-0.1s0.3-0.2,0.4-0.3s0.2-0.3,0.3-0.4s0.1-0.3,0.1-0.5c0-0.2,0-0.3-0.1-0.5s-0.2-0.3-0.3-0.4s-0.3-0.2-0.4-0.3
			s-0.3-0.1-0.5-0.1c-0.3,0-0.5,0-0.7,0.1s-0.4,0.1-0.6,0.2l-1.6-0.3v-4.7h5.6v1.8h-3.9V183.7z"/>
	</g>
	<g class="st10">
		<path class="st3" d="M161.3,79.5h0.9v-4.6l-1.4,0.8v-2l2.4-1.4l0.8,0v7.3h0.9v1.6h-3.8V79.5z"/>
		<path class="st3" d="M169.2,72.1c0.4,0,0.8,0.1,1.1,0.2s0.7,0.3,0.9,0.6s0.5,0.5,0.6,0.8s0.2,0.7,0.2,1c0,0.3-0.1,0.7-0.2,1
			s-0.4,0.6-0.6,0.8c0.3,0.2,0.6,0.5,0.8,0.9s0.3,0.7,0.3,1.1c0,0.4-0.1,0.7-0.2,1.1s-0.4,0.6-0.7,0.9s-0.6,0.5-1,0.6
			s-0.8,0.2-1.2,0.2c-0.3,0-0.6,0-0.8-0.1s-0.5-0.2-0.7-0.3s-0.4-0.3-0.6-0.5s-0.3-0.4-0.5-0.6s-0.2-0.4-0.3-0.7s-0.1-0.5-0.1-0.7
			c0-0.4,0.1-0.8,0.3-1.1s0.5-0.6,0.8-0.9c-0.3-0.2-0.5-0.5-0.6-0.8s-0.2-0.6-0.2-0.9c0-0.4,0.1-0.7,0.2-1s0.4-0.6,0.6-0.8
			s0.6-0.4,0.9-0.6S168.8,72.1,169.2,72.1z M167.8,78.4c0,0.2,0,0.3,0.1,0.5s0.2,0.3,0.3,0.4s0.3,0.2,0.4,0.3s0.3,0.1,0.5,0.1
			c0.2,0,0.4,0,0.5-0.1s0.3-0.2,0.4-0.3s0.2-0.2,0.3-0.4s0.1-0.3,0.1-0.5c0-0.2,0-0.3-0.1-0.4s-0.2-0.3-0.3-0.4s-0.3-0.2-0.4-0.3
			s-0.3-0.1-0.5-0.1c-0.2,0-0.4,0-0.5,0.1s-0.3,0.1-0.4,0.3s-0.2,0.2-0.3,0.4S167.8,78.2,167.8,78.4z M168,74.8c0,0.1,0,0.3,0.1,0.4
			s0.1,0.2,0.2,0.3s0.2,0.2,0.4,0.2s0.3,0.1,0.5,0.1s0.3,0,0.5-0.1s0.3-0.1,0.4-0.2s0.2-0.2,0.3-0.3s0.1-0.2,0.1-0.4
			c0-0.1,0-0.3-0.1-0.4s-0.1-0.2-0.3-0.3s-0.2-0.2-0.4-0.2s-0.3-0.1-0.5-0.1s-0.3,0-0.5,0.1s-0.3,0.1-0.4,0.2s-0.2,0.2-0.2,0.3
			S168,74.6,168,74.8z"/>
	</g>
	<g class="st10">
		<path class="st3" d="M161.4,52.5h0.9v-4.6l-1.4,0.8v-2l2.4-1.4l0.8,0v7.3h0.9v1.6h-3.8V52.5z"/>
		<path class="st3" d="M167.3,54.1l1.8-3.2c-0.1,0-0.2,0-0.3,0s-0.2,0-0.3,0c-0.3-0.1-0.6-0.2-0.9-0.3s-0.5-0.4-0.8-0.6
			s-0.4-0.5-0.5-0.8s-0.2-0.6-0.2-1c0-0.4,0.1-0.8,0.2-1.2s0.4-0.7,0.7-0.9s0.6-0.5,1-0.6s0.8-0.2,1.2-0.2c0.4,0,0.8,0.1,1.2,0.2
			s0.7,0.4,1,0.6s0.5,0.6,0.7,0.9s0.2,0.7,0.2,1.1c0,0.2,0,0.4-0.1,0.6s-0.1,0.4-0.2,0.5s-0.1,0.3-0.2,0.5s-0.2,0.3-0.3,0.5l-2.2,4
			H167.3z M169.3,49.3c0.2,0,0.4,0,0.6-0.1s0.3-0.2,0.5-0.4c0.1-0.1,0.1-0.2,0.1-0.3s0.1-0.2,0.1-0.4c0-0.1,0-0.3-0.1-0.4
			s-0.1-0.3-0.2-0.4s-0.2-0.2-0.4-0.3s-0.4-0.1-0.6-0.1c-0.2,0-0.3,0-0.5,0.1s-0.3,0.1-0.4,0.2s-0.2,0.2-0.3,0.4s-0.1,0.3-0.1,0.5
			c0,0.2,0,0.3,0.1,0.5s0.2,0.3,0.3,0.4s0.3,0.2,0.4,0.2S169.1,49.3,169.3,49.3z"/>
	</g>
	<g class="st10">
		<path class="st3" d="M107,241.5h0.9v-4.6l-1.4,0.8v-2l2.4-1.4l0.8,0v7.3h0.9v1.6H107V241.5z"/>
		<path class="st3" d="M115.1,243.2c-0.6,0-1.2-0.1-1.6-0.3s-0.8-0.5-1.1-1s-0.5-0.9-0.6-1.4s-0.2-1.1-0.2-1.8
			c0-0.6,0.1-1.2,0.2-1.8s0.3-1,0.6-1.5s0.6-0.7,1.1-1s1-0.4,1.6-0.4c0.6,0,1.2,0.1,1.6,0.4s0.8,0.6,1.1,1s0.5,0.9,0.6,1.4
			s0.2,1.1,0.2,1.8c0,0.6-0.1,1.2-0.2,1.8s-0.3,1-0.6,1.4s-0.6,0.7-1.1,1S115.7,243.2,115.1,243.2z M115.1,241.4
			c0.3,0,0.6-0.1,0.8-0.2s0.4-0.3,0.5-0.6s0.2-0.5,0.2-0.9s0-0.7,0-1.1c0-0.4,0-0.7,0-1.1s-0.1-0.6-0.2-0.9s-0.3-0.4-0.5-0.6
			s-0.5-0.2-0.8-0.2c-0.3,0-0.6,0.1-0.8,0.2s-0.4,0.3-0.5,0.6s-0.2,0.5-0.2,0.9s0,0.7,0,1.1c0,0.4,0,0.8,0,1.1s0.1,0.6,0.2,0.9
			s0.3,0.4,0.5,0.6S114.7,241.4,115.1,241.4z"/>
	</g>
	<line class="st11" x1="153" y1="234" x2="153" y2="225"/>
	<line class="st11" x1="162" y1="225" x2="153" y2="225"/>
	<line class="st11" x1="36" y1="225" x2="45" y2="225"/>
	<line class="st11" x1="45" y1="234" x2="45" y2="225"/>
	<g class="st10">
		<defs>
			<rect id="SVGID_12_" width="198" height="270"/>
		</defs>
		<clipPath id="SVGID_13_">
			<use xlink:href="#SVGID_12_"  style="overflow:visible;"/>
		</clipPath>
		<g class="st12">
			<g>
				<defs>
					<rect id="SVGID_14_" x="17.3" y="17.3" width="163.5" height="235.5"/>
				</defs>
				<clipPath id="SVGID_15_">
					<use xlink:href="#SVGID_14_"  style="overflow:visible;"/>
				</clipPath>
				<rect x="153" y="225" class="st13" width="27" height="27"/>
				<rect x="18" y="225" class="st13" width="27" height="27"/>
				<rect x="18" y="18" class="st13" width="162" height="234"/>
				<rect x="45" y="18" class="st13" width="108" height="207"/>
			</g>
		</g>
	</g>
	<g class="st10">
		<path class="st3" d="M19.7,14h5.8v2h-1.8v13.7h6.1c0.1,0,0.3,0,0.4-0.1s0.2-0.1,0.3-0.2s0.2-0.2,0.2-0.3s0.1-0.2,0.1-0.4v-2.2h2.2
			v5.3H19.7v-2h1.7V16h-1.7V14z"/>
		<path class="st3" d="M34.3,19.6h4v10.1h1.8v2h-5.8v-2H36v-8.1h-1.8V19.6z M35.6,15.3c0-0.2,0-0.4,0.1-0.6s0.2-0.3,0.3-0.5
			s0.3-0.2,0.5-0.3s0.4-0.1,0.6-0.1c0.2,0,0.4,0,0.6,0.1s0.3,0.2,0.5,0.3s0.2,0.3,0.3,0.5s0.1,0.4,0.1,0.6c0,0.2,0,0.4-0.1,0.6
			s-0.2,0.4-0.3,0.5s-0.3,0.3-0.5,0.3s-0.4,0.1-0.6,0.1c-0.2,0-0.4,0-0.6-0.1s-0.3-0.2-0.5-0.3s-0.2-0.3-0.3-0.5
			S35.6,15.5,35.6,15.3z"/>
		<path class="st3" d="M46.1,19.6h2.8v1.8h-2.8v8.4H48v2h-5.9v-2h1.8v-8.4h-2v-1.8h2v-1.9c0-0.7,0.1-1.3,0.3-1.8s0.5-1,0.8-1.3
			s0.8-0.6,1.2-0.8s1-0.3,1.6-0.3c0.4,0,0.8,0,1.1,0.1s0.6,0.1,0.9,0.2s0.5,0.1,0.7,0.2s0.4,0.2,0.5,0.2l-0.7,1.6
			c-0.3-0.1-0.6-0.2-1-0.3s-0.8-0.1-1.3-0.1c-0.6,0-1.2,0.2-1.5,0.6s-0.6,1-0.6,1.8V19.6z"/>
		<path class="st3" d="M52.9,25.9c0,0.3,0,0.7,0.1,0.9s0.1,0.6,0.2,0.8c0.3,0.8,0.8,1.4,1.4,1.8s1.4,0.6,2.2,0.6
			c0.6,0,1.2-0.1,1.8-0.3s1.2-0.5,1.9-0.8l0.9,1.5c-0.8,0.5-1.6,1-2.4,1.2s-1.6,0.4-2.5,0.4c-0.8,0-1.6-0.1-2.3-0.4
			s-1.3-0.7-1.8-1.2s-0.9-1.2-1.2-2s-0.4-1.7-0.4-2.8c0-0.9,0.1-1.7,0.4-2.5s0.6-1.4,1.1-2s1.1-1,1.8-1.4s1.5-0.5,2.5-0.5
			c0.9,0,1.7,0.1,2.3,0.4s1.1,0.6,1.5,1.1s0.7,1,0.9,1.6s0.3,1.2,0.4,1.8c0,0.3,0.1,0.6,0.1,0.9s0,0.6,0,0.9H52.9z M56.3,21.1
			c-0.5,0-1,0.1-1.3,0.2s-0.7,0.4-1,0.6s-0.5,0.6-0.6,1S53,23.8,53,24.2h6.3c0-0.5-0.1-0.9-0.2-1.3s-0.3-0.7-0.5-1s-0.5-0.5-0.9-0.7
			S56.8,21.1,56.3,21.1z"/>
	</g>
	<g class="st10">
		<path class="st3" d="M160,25.6l3.1-3.3c0.3-0.3,0.5-0.5,0.6-0.8s0.2-0.5,0.2-0.8c0-0.1,0-0.2-0.1-0.3s-0.1-0.2-0.2-0.3
			s-0.2-0.2-0.3-0.2s-0.3-0.1-0.4-0.1c-0.2,0-0.4,0-0.5,0.1s-0.3,0.1-0.4,0.2s-0.2,0.2-0.2,0.4s-0.1,0.3-0.1,0.4h-1.8
			c0-0.5,0.1-0.9,0.2-1.2s0.4-0.7,0.6-0.9s0.6-0.4,0.9-0.6s0.7-0.2,1.2-0.2c0.4,0,0.8,0.1,1.1,0.2s0.7,0.3,0.9,0.5s0.5,0.5,0.6,0.8
			s0.2,0.7,0.2,1.1c0,0.3-0.1,0.7-0.2,1s-0.3,0.6-0.6,0.8l-2.5,2.7h3.3v1.8H160V25.6z"/>
		<path class="st3" d="M170.1,27.2c-0.6,0-1.2-0.1-1.6-0.3s-0.8-0.5-1.1-1s-0.5-0.9-0.6-1.4s-0.2-1.1-0.2-1.8c0-0.6,0.1-1.2,0.2-1.8
			s0.3-1,0.6-1.5s0.6-0.7,1.1-1s1-0.4,1.6-0.4c0.6,0,1.2,0.1,1.6,0.4s0.8,0.6,1.1,1s0.5,0.9,0.6,1.4s0.2,1.1,0.2,1.8
			c0,0.6-0.1,1.2-0.2,1.8s-0.3,1-0.6,1.4s-0.6,0.7-1.1,1S170.7,27.2,170.1,27.2z M170.1,25.4c0.3,0,0.6-0.1,0.8-0.2s0.4-0.3,0.5-0.6
			s0.2-0.5,0.2-0.9s0-0.7,0-1.1c0-0.4,0-0.7,0-1.1s-0.1-0.6-0.2-0.9s-0.3-0.4-0.5-0.6s-0.5-0.2-0.8-0.2c-0.3,0-0.6,0.1-0.8,0.2
			s-0.4,0.3-0.5,0.6s-0.2,0.5-0.2,0.9s0,0.7,0,1.1c0,0.4,0,0.8,0,1.1s0.1,0.6,0.2,0.9s0.3,0.4,0.5,0.6S169.7,25.4,170.1,25.4z"/>
	</g>
	<g class="st10">
		<defs>
			<rect id="SVGID_16_" width="198" height="270"/>
		</defs>
		<clipPath id="SVGID_17_">
			<use xlink:href="#SVGID_16_"  style="overflow:visible;"/>
		</clipPath>
		<path class="st14" d="M107.3,124.7c0.3-1.1,0.7-2.1,1.3-3.2c0.3-0.5,0.6-1,1-1.4c0.2-0.2,0.4-0.5,0.5-0.7c0.2-0.2,0.4-0.4,0.6-0.6
			c0.8-0.8,1.8-1.5,2.8-2.1c0.5-0.3,1-0.5,1.6-0.8c0.3-0.1,0.6-0.2,0.8-0.3c0.1,0,0.3-0.1,0.4-0.1c0.2,0,0.3-0.1,0.5-0.1l0.5-0.1
			l0.2,0.5c0.2,0.3,0.3,0.6,0.4,1c0.1,0.3,0.2,0.6,0.3,1c0.2,0.6,0.4,1.3,0.5,2c0.3,1.3,0.4,2.7,0.5,4c0.1,2.7-0.4,5.5-1.5,8
			c-1,2.5-2.6,4.8-4.4,6.7c-0.9,1-1.9,1.8-3,2.7c-0.5,0.4-1.1,0.8-1.6,1.1c-0.6,0.4-1.1,0.7-1.7,1c0.5-0.4,1-0.9,1.5-1.3l0.7-0.7
			c0.2-0.2,0.5-0.4,0.7-0.7l0.7-0.7l0.3-0.3l0.3-0.4l0.7-0.7c0.2-0.2,0.4-0.5,0.6-0.7c1.6-2,2.9-4.2,3.8-6.6c0.4-1.2,0.8-2.4,1-3.7
			c0.2-1.2,0.3-2.5,0.3-3.8c0-1.3-0.1-2.5-0.4-3.8c-0.1-0.6-0.3-1.2-0.4-1.9c-0.1-0.3-0.2-0.6-0.3-0.9c-0.1-0.3-0.2-0.6-0.3-0.9
			l0.7,0.4c-0.1,0-0.2,0-0.4,0.1l-0.4,0.1c-0.3,0.1-0.5,0.1-0.8,0.2c-0.5,0.2-1,0.4-1.5,0.6c-1,0.5-1.9,1-2.7,1.7
			c-0.8,0.7-1.6,1.5-2.3,2.4C108.3,122.7,107.8,123.7,107.3,124.7"/>
		<path class="st14" d="M116.9,130.3l0.6-0.6c0.2-0.2,0.4-0.4,0.6-0.6c0.5-0.4,0.9-0.8,1.4-1.2c1-0.7,2-1.3,3.1-1.9
			c1.1-0.5,2.3-0.9,3.5-1.2c0.6-0.1,1.2-0.2,1.8-0.3c0.3,0,0.6-0.1,0.9-0.1c0.2,0,0.3,0,0.5,0c0.2,0,0.3,0,0.5,0l0.5,0l0.1,0.5
			c0,0.2,0.1,0.5,0.1,0.7c0,0.2,0,0.4,0.1,0.7c0,0.2,0,0.4,0,0.7l0,0.7c0,0.9-0.1,1.7-0.3,2.6c-0.1,0.9-0.4,1.7-0.6,2.6
			c-0.3,0.8-0.6,1.7-1,2.4c-0.7,1.6-1.7,3.1-2.8,4.4c-1.1,1.3-2.4,2.6-3.7,3.6c-2.7,2.1-5.9,3.7-9.1,4.8c-3.2,1.1-6.6,1.8-9.9,2.2
			c3.3-0.8,6.5-1.8,9.6-3.1c0.4-0.2,0.8-0.3,1.1-0.5c0.4-0.2,0.8-0.3,1.1-0.5c0.7-0.4,1.5-0.7,2.2-1.2c1.4-0.8,2.8-1.7,4.1-2.8
			c2.6-2,4.7-4.6,6.1-7.6c0.4-0.7,0.6-1.5,0.9-2.3c0.2-0.8,0.5-1.6,0.6-2.4c0.2-0.8,0.3-1.6,0.3-2.4l0-0.6l0-0.6c0-0.2,0-0.4,0-0.6
			c0-0.2,0-0.4,0-0.6l0.5,0.5c-0.1,0-0.3,0-0.4,0c-0.1,0-0.3,0-0.4,0c-0.3,0-0.6,0-0.9,0c-0.6,0-1.1,0.1-1.7,0.2
			c-1.1,0.2-2.3,0.5-3.4,0.9c-1.1,0.4-2.2,0.9-3.2,1.5c-0.5,0.3-1,0.6-1.5,1c-0.3,0.2-0.5,0.4-0.7,0.5L116.9,130.3z"/>
		<path class="st14" d="M90.7,124.7c-0.5-1-1-2-1.7-2.9c-0.7-0.9-1.4-1.7-2.3-2.4c-0.8-0.7-1.8-1.3-2.7-1.7c-0.5-0.2-1-0.4-1.5-0.6
			c-0.3-0.1-0.5-0.2-0.8-0.2l-0.4-0.1c-0.1,0-0.3-0.1-0.4-0.1l0.7-0.4c-0.1,0.3-0.2,0.6-0.3,0.9c-0.1,0.3-0.2,0.6-0.3,0.9
			c-0.2,0.6-0.3,1.2-0.4,1.9c-0.2,1.2-0.4,2.5-0.4,3.8c0,1.3,0.1,2.5,0.3,3.8c0.2,1.2,0.5,2.5,1,3.7c0.9,2.4,2.2,4.6,3.8,6.6
			c0.2,0.2,0.4,0.5,0.6,0.7l0.7,0.7l0.3,0.4l0.3,0.3l0.7,0.7c0.2,0.2,0.5,0.4,0.7,0.7l0.7,0.7c0.5,0.4,1,0.8,1.5,1.3
			c-0.6-0.3-1.1-0.7-1.7-1c-0.5-0.4-1.1-0.7-1.6-1.1c-1-0.8-2.1-1.7-3-2.7c-1.9-1.9-3.4-4.2-4.4-6.7c-1-2.5-1.5-5.3-1.5-8
			c0-1.4,0.2-2.7,0.5-4c0.1-0.7,0.3-1.3,0.5-2c0.1-0.3,0.2-0.6,0.3-1c0.1-0.3,0.3-0.6,0.4-1l0.2-0.5l0.5,0.1c0.2,0,0.3,0.1,0.5,0.1
			c0.1,0,0.3,0.1,0.4,0.1c0.3,0.1,0.6,0.2,0.8,0.3c0.5,0.2,1.1,0.5,1.6,0.8c1,0.6,2,1.3,2.8,2.1c0.2,0.2,0.4,0.4,0.6,0.6
			c0.2,0.2,0.4,0.4,0.5,0.7c0.4,0.5,0.7,0.9,1,1.4C90,122.6,90.4,123.6,90.7,124.7"/>
		<path class="st14" d="M81.1,130.3l-0.7-0.6c-0.2-0.2-0.5-0.4-0.7-0.5c-0.5-0.3-1-0.7-1.5-1c-1-0.6-2.1-1.1-3.2-1.5
			c-1.1-0.4-2.2-0.7-3.4-0.9c-0.6-0.1-1.1-0.2-1.7-0.2c-0.3,0-0.6,0-0.9,0c-0.1,0-0.3,0-0.4,0c-0.1,0-0.3,0-0.4,0l0.5-0.5
			c0,0.2,0,0.4,0,0.6c0,0.2,0,0.4,0,0.6l0,0.6l0,0.6c0,0.8,0.2,1.6,0.3,2.4c0.1,0.8,0.4,1.6,0.6,2.4c0.3,0.8,0.6,1.5,0.9,2.3
			c1.4,2.9,3.5,5.5,6.1,7.6c1.3,1,2.6,2,4.1,2.8c0.7,0.4,1.5,0.8,2.2,1.2c0.4,0.2,0.8,0.4,1.1,0.5c0.4,0.2,0.8,0.3,1.1,0.5
			c3.1,1.3,6.3,2.3,9.6,3.1c-3.4-0.4-6.7-1.1-9.9-2.2c-3.2-1.1-6.3-2.7-9.1-4.8c-1.4-1-2.6-2.3-3.7-3.6c-1.1-1.3-2.1-2.8-2.8-4.4
			c-0.4-0.8-0.7-1.6-1-2.4c-0.3-0.8-0.5-1.7-0.6-2.6c-0.1-0.9-0.2-1.7-0.3-2.6l0-0.7c0-0.2,0-0.4,0-0.7c0-0.2,0-0.4,0.1-0.7
			c0-0.2,0-0.4,0.1-0.7l0.1-0.5l0.5,0c0.2,0,0.3,0,0.5,0c0.2,0,0.3,0,0.5,0c0.3,0,0.6,0,0.9,0.1c0.6,0.1,1.2,0.2,1.8,0.3
			c1.2,0.3,2.4,0.7,3.5,1.2c1.1,0.5,2.2,1.1,3.1,1.9c0.5,0.3,0.9,0.8,1.4,1.2c0.2,0.2,0.4,0.4,0.6,0.6L81.1,130.3z"/>
		<path class="st14" d="M93.7,137.4c-1.2-2.3-2.2-4.8-2.7-7.4c-0.5-2.6-0.6-5.3-0.1-7.9c0.4-2.6,1.4-5.2,2.6-7.6
			c0.6-1.2,1.4-2.3,2.2-3.4c0.4-0.5,0.8-1,1.3-1.5c0.2-0.3,0.5-0.5,0.7-0.7c0.2-0.2,0.5-0.5,0.8-0.7l0.5,1.3h0l0.5-1.3
			c0.3,0.2,0.5,0.5,0.8,0.7c0.2,0.2,0.5,0.5,0.7,0.7c0.5,0.5,0.9,1,1.3,1.5c0.8,1.1,1.6,2.2,2.2,3.4c1.3,2.3,2.2,4.9,2.7,7.6
			c0.5,2.6,0.4,5.4-0.1,8c-0.5,2.6-1.4,5.1-2.7,7.4c0.9-2.4,1.6-5,1.9-7.5c0.1-1.3,0.2-2.6,0.1-3.8c-0.1-1.3-0.2-2.5-0.5-3.8
			c-0.3-1.2-0.6-2.5-1.1-3.6c-0.5-1.2-1-2.3-1.7-3.4c-0.6-1.1-1.3-2.2-2.1-3.1c-0.4-0.5-0.8-1-1.2-1.4c-0.2-0.2-0.4-0.5-0.7-0.7
			c-0.2-0.2-0.5-0.4-0.7-0.6l0,0c-0.3-0.3-0.3-0.8-0.1-1.1c0.2-0.2,0.4-0.3,0.6-0.3h0c0.4,0,0.8,0.3,0.8,0.8c0,0.2-0.1,0.4-0.3,0.6
			l0,0c-0.2,0.2-0.4,0.4-0.7,0.6c-0.2,0.2-0.4,0.4-0.7,0.7c-0.4,0.5-0.8,0.9-1.2,1.4c-0.8,1-1.5,2-2.1,3.1c-0.6,1.1-1.2,2.2-1.7,3.4
			c-0.5,1.2-0.8,2.4-1.1,3.6c-0.3,1.2-0.4,2.5-0.5,3.8c-0.1,1.3,0,2.6,0.1,3.8C92,132.5,92.7,135,93.7,137.4"/>
	</g>
</g>
<g>
	<defs>
		<rect id="SVGID_1_" x="144" y="9" width="54" height="27"/>
	</defs>
	<clipPath id="SVGID_18_">
		<use xlink:href="#SVGID_1_"  style="overflow:visible;"/>
	</clipPath>
	<path class="st15" d="M198,22.5L198,22.5C198,15,192,9,184.5,9h-27C150,9,144,15,144,22.5S150,36,157.5,36h27
		C192,36,198,30,198,22.5 M159.8,29.3c-3.7,0-6.8-3-6.8-6.8s3-6.8,6.8-6.8H180V18v9v2.3H159.8z"/>
</g>
</svg>
