<svg xmlns="http://www.w3.org/2000/svg" xmlns:xlink="http://www.w3.org/1999/xlink" viewBox="0 0 162 180">
<style type="text/css">
	.st0{fill:none;stroke:#FFFFFF;stroke-width:2.25;stroke-linecap:round;stroke-linejoin:round;stroke-miterlimit:10;}
	.st2{stroke:#FFFFFF;stroke-width:2.25;stroke-linecap:round;stroke-linejoin:round;stroke-miterlimit:10;}
	.st4{fill:none;stroke:#FFFFFF;stroke-width:1;stroke-linecap:round;stroke-linejoin:round;stroke-miterlimit:10;}
	.st5{fill:#FFFFFF;}
</style>

<rect width="162" height="180"/>
<ellipse class="st0" cx="81" cy="90" rx="27" ry="81"/>
<ellipse transform="matrix(0.866 -0.5 0.5 0.866 -34.148 52.558)" class="st0" cx="81" cy="90" rx="81" ry="27"/>
<ellipse transform="matrix(0.5 -0.866 0.866 0.5 -37.442 115.1486)" class="st0" cx="81" cy="90" rx="27" ry="81"/>
<circle cx="81" cy="90" r="36"/>
<circle class="st2" cx="34.2" cy="44.1" r="4.5"/>

<circle class="st2" cx="144.5" cy="72.3" r="4.5"/>
<circle class="st2" cx="65.1" cy="153.5" r="4.5"/>
<path class="st5" d="M77.7,58.3c2.1,0.4,11.8,6.4,13.6,26.5c0,0,0,0,0,0c1.5-0.4,3.7-4.9,1.6-11.4c0,0,0-0.1,0,0
	c2.7,2.8,11.8,13.6,3.6,23.5v0c0.2,0.7,2.4,1.7,3.7-0.8c0,0,0.1,0,0.1,0c-1.2,32.6-51.3,20.6-37.3-9.6
	C68.9,75.4,80.3,82.5,77.7,58.3C77.6,58.3,77.7,58.3,77.7,58.3z"/>

</svg>
